<svg width="30" height="30" viewBox="0 0 30 30" fill="none" xmlns="http://www.w3.org/2000/svg">
<mask id="mask0_45_4954" style="mask-type:alpha" maskUnits="userSpaceOnUse" x="0" y="0" width="30" height="30">
<rect width="30" height="30" fill="#D9D9D9"/>
</mask>
<g mask="url(#mask0_45_4954)">
<path d="M13.75 26.25V23.75H23.75V14.875C23.75 13.6667 23.5208 12.5313 23.0625 11.4688C22.6042 10.4063 21.9792 9.47917 21.1875 8.6875C20.3958 7.89583 19.4688 7.27083 18.4063 6.8125C17.3438 6.35417 16.2083 6.125 15 6.125C13.7917 6.125 12.6562 6.35417 11.5937 6.8125C10.5312 7.27083 9.60417 7.89583 8.8125 8.6875C8.02083 9.47917 7.39583 10.4063 6.9375 11.4688C6.47917 12.5313 6.25 13.6667 6.25 14.875V22.5H5C4.3125 22.5 3.72417 22.2554 3.235 21.7663C2.745 21.2763 2.5 20.6875 2.5 20V17.5C2.5 17.0208 2.61458 16.5988 2.84375 16.2338C3.07292 15.8696 3.375 15.5729 3.75 15.3437L3.84375 13.6875C4.03125 12.1667 4.46375 10.7917 5.14125 9.5625C5.81792 8.33333 6.66167 7.29167 7.6725 6.4375C8.6825 5.58333 9.81792 4.92167 11.0787 4.4525C12.3387 3.98417 13.6458 3.75 15 3.75C16.375 3.75 17.6929 3.98417 18.9538 4.4525C20.2138 4.92167 21.3437 5.58833 22.3438 6.4525C23.3438 7.3175 24.1825 8.35917 24.86 9.5775C25.5367 10.7967 25.9687 12.1563 26.1562 13.6563L26.25 15.2813C26.625 15.4688 26.9271 15.7446 27.1563 16.1088C27.3854 16.4738 27.5 16.875 27.5 17.3125V20.1875C27.5 20.6458 27.3854 21.0521 27.1563 21.4062C26.9271 21.7604 26.625 22.0312 26.25 22.2187V23.75C26.25 24.4375 26.0054 25.0263 25.5163 25.5163C25.0263 26.0054 24.4375 26.25 23.75 26.25H13.75ZM11.25 17.5C10.8958 17.5 10.5992 17.38 10.36 17.14C10.12 16.9008 10 16.6042 10 16.25C10 15.8958 10.12 15.5987 10.36 15.3587C10.5992 15.1196 10.8958 15 11.25 15C11.6042 15 11.9013 15.1196 12.1413 15.3587C12.3804 15.5987 12.5 15.8958 12.5 16.25C12.5 16.6042 12.3804 16.9008 12.1413 17.14C11.9013 17.38 11.6042 17.5 11.25 17.5ZM18.75 17.5C18.3958 17.5 18.0992 17.38 17.86 17.14C17.62 16.9008 17.5 16.6042 17.5 16.25C17.5 15.8958 17.62 15.5987 17.86 15.3587C18.0992 15.1196 18.3958 15 18.75 15C19.1042 15 19.4013 15.1196 19.6413 15.3587C19.8804 15.5987 20 15.8958 20 16.25C20 16.6042 19.8804 16.9008 19.6413 17.14C19.4013 17.38 19.1042 17.5 18.75 17.5ZM7.53125 15.5625C7.44792 14.3333 7.62 13.2187 8.0475 12.2187C8.47417 11.2187 9.04667 10.3696 9.765 9.67125C10.4842 8.97375 11.3125 8.4375 12.25 8.0625C13.1875 7.6875 14.125 7.5 15.0625 7.5C16.9583 7.5 18.5992 8.09917 19.985 9.2975C21.37 10.495 22.2083 11.9896 22.5 13.7812C20.5417 13.7604 18.7708 13.2342 17.1875 12.2025C15.6042 11.1717 14.4062 9.83333 13.5938 8.1875C13.2604 9.875 12.5575 11.3696 11.485 12.6713C10.4117 13.9738 9.09375 14.9375 7.53125 15.5625Z" fill="#00ED64"/>
</g>
</svg>
