<svg width="80" height="80" viewBox="0 0 80 80" fill="none" xmlns="http://www.w3.org/2000/svg">
<g clip-path="url(#clip0_8_2)">
<path d="M40 79.5C61.8152 79.5 79.5 61.8152 79.5 40C79.5 18.1848 61.8152 0.5 40 0.5C18.1848 0.5 0.5 18.1848 0.5 40C0.5 61.8152 18.1848 79.5 40 79.5Z" stroke="#00ED64"/>
<path d="M40 72C57.6731 72 72 57.6731 72 40C72 22.3269 57.6731 8 40 8C22.3269 8 8 22.3269 8 40C8 57.6731 22.3269 72 40 72Z" fill="#00ED64"/>
<mask id="mask0_8_2" style="mask-type:luminance" maskUnits="userSpaceOnUse" x="20" y="20" width="41" height="40">
<path d="M60.8008 20.8H20.8008V59.2H60.8008V20.8Z" fill="white"/>
</mask>
<g mask="url(#mask0_8_2)">
<path d="M41.9681 48.8C41.9681 49.085 41.8504 49.3627 41.6337 49.5707C41.4163 49.7794 41.1173 49.9 40.8014 49.9C40.4856 49.9 40.1866 49.7794 39.9692 49.5707C39.7525 49.3627 39.6348 49.085 39.6348 48.8C39.6348 48.515 39.7525 48.2373 39.9692 48.0293C40.1866 47.8206 40.4856 47.7 40.8014 47.7C41.1173 47.7 41.4163 47.8206 41.6337 48.0293C41.8504 48.2373 41.9681 48.515 41.9681 48.8ZM41.339 35.1122C41.4776 35.2452 41.5514 35.4211 41.5514 35.6V42.8C41.5514 42.9789 41.4776 43.1548 41.339 43.2878C41.1998 43.4215 41.0068 43.5 40.8014 43.5C40.5961 43.5 40.403 43.4215 40.2638 43.2878C40.1253 43.1548 40.0514 42.9789 40.0514 42.8V35.6C40.0514 35.4211 40.1253 35.2452 40.2638 35.1122C40.403 34.9785 40.5961 34.9 40.8014 34.9C41.0068 34.9 41.1998 34.9785 41.339 35.1122Z" fill="white" stroke="white"/>
<path d="M42.6722 26.934L42.6715 26.9328C42.4782 26.6141 42.2028 26.352 41.8747 26.1709C41.5467 25.9898 41.1764 25.8953 40.8006 25.8953C40.4248 25.8953 40.0545 25.9898 39.7265 26.1709C39.3983 26.352 39.1229 26.6141 38.9297 26.9328L38.9289 26.934L23.9856 51.7404L23.9848 51.7417C23.7932 52.062 23.6917 52.4266 23.6921 52.7989C23.6925 53.1712 23.7947 53.5356 23.987 53.8555C24.1792 54.1753 24.4539 54.4385 24.7817 54.6209C25.1094 54.8032 25.4797 54.8989 25.8558 54.9H25.8572H55.7439H55.7456C56.1214 54.8987 56.4914 54.8029 56.8188 54.6207C57.1463 54.4385 57.4208 54.1755 57.6129 53.8561C57.8051 53.5365 57.9074 53.1724 57.9081 52.8005C57.9088 52.4285 57.8077 52.0641 57.6166 51.7438L57.6155 51.742L42.6722 26.934ZM37.6222 26.2484C39.0328 23.9071 42.5683 23.9071 43.979 26.2484L58.9238 51.0546C60.3098 53.3579 58.5997 56.3 55.7439 56.3H25.8572C23 56.3 21.2912 53.358 22.6773 51.0546L37.6222 26.2484Z" fill="white" stroke="white"/>
</g>
</g>
<defs>
<clipPath id="clip0_8_2">
<rect width="80" height="80" fill="white"/>
</clipPath>
</defs>
</svg>
