<svg xmlns="http://www.w3.org/2000/svg" viewBox="0 0 185 185"><defs><style>.cls-1{fill:#21313c;}.cls-2{fill:#00ed64;}.cls-3{fill:#fff;}</style></defs><g id="Layer_2" data-name="Layer 2"><g id="Layer_1-2" data-name="Layer 1"><rect class="cls-1" width="185" height="185" rx="65"/><polygon class="cls-2" points="82.23 110.3 82.23 110.3 82.23 134.02 61.68 122.17 61.68 122.16 41.15 110.3 41.13 110.3 41.13 86.58 41.15 86.58 61.68 74.71 61.7 74.71 82.23 62.84 102.78 74.71 82.25 86.58 82.23 86.58 61.7 98.43 82.23 110.3"/><polygon class="cls-3" points="143.87 74.7 143.87 98.43 123.32 110.29 102.77 122.16 82.23 110.29 102.77 98.43 102.78 98.43 123.32 86.57 102.77 74.7 102.77 50.98 123.32 62.84 143.87 74.7"/></g></g></svg>