<svg width="38" height="50" viewBox="0 0 38 50" fill="none" xmlns="http://www.w3.org/2000/svg">
<path d="M18.2928 9.26462C15.9825 10.8895 13.364 12.7312 11.961 15.7782C9.52401 21.0941 16.9475 26.8927 17.2648 27.1369C17.3385 27.1937 17.4268 27.222 17.5148 27.222C17.6083 27.222 17.7018 27.19 17.7778 27.1264C17.9252 27.0031 17.9669 26.7938 17.8785 26.6232C17.8516 26.5715 15.187 21.3957 15.286 17.6826C15.321 16.3893 17.1309 14.9222 19.0469 13.369C20.8018 11.9463 22.7911 10.3339 23.955 8.44772C26.51 4.29575 23.6702 0.213122 23.6412 0.172301C23.5284 0.013902 23.3202 -0.043422 23.1422 0.034605C22.9643 0.113121 22.8658 0.305407 22.9064 0.495545C22.9122 0.522594 23.4644 3.22241 21.9277 6.00396C21.2947 7.15338 19.9037 8.1317 18.2928 9.26462Z" fill="#00ED64"/>
<path d="M28.0264 11.0956C28.1894 10.9729 28.2373 10.749 28.1387 10.5703C28.04 10.3915 27.8252 10.3127 27.6343 10.3852C27.2419 10.5344 18.0234 14.0878 18.0234 18.3813C18.0234 21.341 19.2876 22.9045 20.2108 24.0463C20.5729 24.4941 20.8855 24.8809 20.9885 25.211C21.2785 26.1625 20.5914 27.8822 20.3025 28.4647C20.2192 28.632 20.26 28.835 20.4017 28.9572C20.4782 29.0234 20.5739 29.0569 20.6696 29.0569C20.751 29.0569 20.8328 29.0327 20.9035 28.9835C21.062 28.8734 24.7773 26.2466 24.111 23.0818C23.8627 21.8789 23.2716 21 22.75 20.2244C21.942 19.0227 21.3584 18.1548 22.2438 16.5516C23.2811 14.6817 27.9789 11.1312 28.0264 11.0956Z" fill="#00ED64"/>
<path d="M4.03197 29.1251C3.87397 29.5983 3.94867 30.0676 4.24757 30.4828C5.24687 31.8702 8.78667 32.6341 14.2152 32.6341C14.215 32.6341 14.2155 32.6341 14.2152 32.6341C14.9507 32.6341 15.728 32.6197 16.5234 32.5911C25.2026 32.2805 28.4218 29.5766 28.5546 29.4616C28.6993 29.3363 28.738 29.1278 28.6481 28.959C28.558 28.7903 28.364 28.7056 28.1785 28.7567C25.1218 29.5912 19.414 29.8875 15.455 29.8875C11.025 29.8875 8.76897 29.5684 8.21657 29.3327C8.49997 28.9436 10.2481 28.2486 12.4142 27.8226C12.6212 27.7819 12.7635 27.5907 12.743 27.3808C12.7225 27.1708 12.5461 27.0107 12.3351 27.0107C11.0654 27.0107 4.69767 27.1126 4.03197 29.1251Z" fill="#00ED64"/>
<path d="M33.0728 26.3398C31.2826 26.3398 29.585 27.2371 29.5136 27.2751C29.348 27.3638 29.2641 27.5536 29.3095 27.736C29.3551 27.9182 29.5188 28.0462 29.7066 28.0464C29.7446 28.0464 33.5252 28.0774 33.8676 30.2374C34.1709 32.1009 30.2905 35.1203 28.7697 36.1265C28.6055 36.2352 28.5417 36.4452 28.618 36.6268C28.6829 36.7814 28.8334 36.8781 28.9957 36.8781C29.024 36.8781 29.0527 36.8751 29.0812 36.8691C29.4422 36.7918 37.91 34.9258 37.0147 29.9956C36.4685 26.9741 34.5694 26.3398 33.0728 26.3398Z" fill="#00ED64"/>
<path d="M27.2668 35.5231C27.2963 35.3652 27.2306 35.2046 27.0991 35.1123L25.0687 33.6901C24.9697 33.6208 24.8446 33.599 24.7284 33.6297C24.7072 33.6351 22.584 34.1933 19.5013 34.5356C18.2779 34.6728 16.9076 34.7453 15.5382 34.7453C12.4564 34.7453 10.4413 34.3832 10.1479 34.1175C10.109 34.0429 10.1213 34.009 10.1282 33.9902C10.1816 33.842 10.4673 33.6658 10.6515 33.5961C10.8549 33.5208 10.9646 33.2999 10.9013 33.0924C10.8382 32.8847 10.6242 32.7626 10.4131 32.8132C8.3764 33.3047 7.3805 33.9921 7.4529 34.856C7.5817 36.3879 11.1297 37.1741 14.1292 37.3819C14.5606 37.4114 15.0271 37.4263 15.5155 37.4263C15.5152 37.4263 15.5158 37.4263 15.5155 37.4263C20.5032 37.4263 26.8981 35.8614 26.962 35.8455C27.1182 35.8074 27.2372 35.6813 27.2668 35.5231Z" fill="#00ED64"/>
<path d="M11.9592 38.8115C12.113 38.7115 12.1811 38.5214 12.1265 38.3463C12.0721 38.1712 11.9084 38.0562 11.7244 38.0586C11.4514 38.0658 9.05357 38.174 8.88567 39.7007C8.83487 40.157 8.96558 40.5739 9.27428 40.9396C10.1352 41.9599 12.4593 42.5663 16.3779 42.7935C16.8415 42.8213 17.3124 42.8353 17.7777 42.8353C22.7597 42.8353 26.115 41.2754 26.2555 41.209C26.3917 41.1446 26.4816 41.0107 26.4896 40.8603C26.4976 40.7099 26.4225 40.5672 26.294 40.4886L23.7281 38.9222C23.639 38.8679 23.5324 38.8499 23.4309 38.8707C23.4147 38.8741 21.7855 39.212 19.3268 39.5458C18.8615 39.6091 18.2789 39.6412 17.5953 39.6412C15.1392 39.6412 12.4074 39.24 11.8835 38.9772C11.8759 38.9281 11.8855 38.8658 11.9592 38.8115Z" fill="#00ED64"/>
<path d="M15.4557 47.5437C26.8673 47.534 32.992 45.5046 34.1719 44.2276C34.5896 43.7758 34.6347 43.3481 34.5992 43.0687C34.5115 42.3812 33.8853 41.9603 33.8143 41.9146C33.643 41.8044 33.4131 41.8332 33.2795 41.9873C33.1462 42.1414 33.1431 42.3666 33.2769 42.5206C33.3488 42.6132 33.3904 42.7682 33.18 42.9788C32.7083 43.4194 27.951 44.7566 20.0299 45.1583C18.9449 45.2147 17.8068 45.2434 16.6475 45.2436C9.55538 45.2436 4.36498 44.2721 3.68369 43.7061C3.94629 43.3288 5.78218 42.7259 7.73468 42.3849C7.95468 42.3465 8.10328 42.1392 8.06918 41.9185C8.03518 41.6979 7.83169 41.546 7.60939 41.5748C7.55429 41.5824 7.36739 41.5935 7.15099 41.6068C3.92949 41.8035 0.206685 42.2418 0.0124852 43.9017C-0.0465148 44.4075 0.103785 44.8666 0.459285 45.2663C1.32939 46.2438 3.83048 47.5437 15.4557 47.5437C15.4559 47.5439 15.4555 47.5437 15.4557 47.5437Z" fill="#00ED64"/>
<path d="M36.4137 44.5887C36.2524 44.5141 36.0618 44.5518 35.9415 44.6817C35.9248 44.6997 34.209 46.4938 29.0504 47.5473C27.0755 47.943 23.3685 48.1437 18.0322 48.1437C12.686 48.1437 7.59884 47.9333 7.54814 47.9312C7.33564 47.9208 7.15394 48.0753 7.12504 48.2845C7.09594 48.4935 7.23073 48.6906 7.43593 48.7394C7.48883 48.7519 12.8202 50.0009 20.1097 50.0009C23.6059 50.0009 27.008 49.717 30.2218 49.1567C36.2141 48.1062 36.6337 45.1349 36.6486 45.0089C36.6695 44.8328 36.5748 44.6633 36.4137 44.5887Z" fill="#00ED64"/>
</svg>
