<svg xmlns="http://www.w3.org/2000/svg" viewBox="0 0 441.25 102.46" ><defs><style>.cls-1{fill:#fff;}.cls-2{fill:#00ed64;}</style></defs><g id="Layer_2" data-name="Layer 2"><g id="Layer_1-2" data-name="Layer 1"><path class="cls-1" d="M184.21,13V49.72h-8.06V44.46a16,16,0,0,1-12.89,6.12c-10.37,0-18.08-8.28-18.08-19.22s7.71-19.23,18.08-19.23a16,16,0,0,1,12.89,6.12V13Zm-8.06,18.36a11.34,11.34,0,1,0-22.68,0,11.34,11.34,0,1,0,22.68,0Z"/><path class="cls-1" d="M228.78,26.61V49.72h-8.06V29.27c0-5.62-3.61-9.36-9.15-9.36-5.83,0-9.72,3.81-9.72,9.5V49.72h-8.06V13h8.06v4.75a15.25,15.25,0,0,1,12.39-5.62C223,12.13,228.78,17.89,228.78,26.61Z"/><path class="cls-1" d="M261,50.08h-12.6c-2.59,0-4.32-1.44-4.32-3.53A4.26,4.26,0,0,1,246,43a19.32,19.32,0,0,0,6.84,1.22c9.65,0,17.07-6.91,17.07-16a15.4,15.4,0,0,0-3.38-9.8c.21-1.94,1.87-3.17,4.1-3.17h2.52V7.74h-2.95c-4.68,0-8.07,2.44-9,6.33a18.62,18.62,0,0,0-8.36-1.94c-9.72,0-17.06,6.91-17.06,16.06a15.53,15.53,0,0,0,5,11.52,10.29,10.29,0,0,0-4.83,8.85c0,5.55,4.4,9.36,10.95,9.36h12.6c3.62,0,6.26,2.2,6.54,5.09a25.69,25.69,0,0,1,7.77-4.38C272.08,53.28,267.37,50.08,261,50.08Zm-8.14-30.32A8.43,8.43,0,1,1,244,28.19C244,23.36,247.78,19.76,252.82,19.76Z"/><path class="cls-1" d="M278.24,0h8.06V49.72h-8.06Z"/><path class="cls-1" d="M332.1,34.6H302.36c1.3,5.25,5.83,8.71,11.81,8.71a14.05,14.05,0,0,0,11-5L330.66,43A21.21,21.21,0,0,1,314,50.58c-11.66,0-20.3-8.35-20.3-19.37S302,12.13,313,12.13a18.81,18.81,0,0,1,19.29,19.3A24.11,24.11,0,0,1,332.1,34.6ZM302.29,28h21.38a11,11,0,0,0-21.38,0Z"/><path class="cls-1" d="M168.3,64a16,16,0,0,0-13,6.19V56.34a23.89,23.89,0,0,1-8.07-4.47v49.72h8.07V96.26a16,16,0,0,0,13,6.19c10.3,0,18.07-8.28,18.07-19.22S178.6,64,168.3,64Zm-1.58,30.68A11.45,11.45,0,1,1,178,83.23,11.19,11.19,0,0,1,166.72,94.68Z"/><path class="cls-1" d="M214.67,64.29v8.28H213.3c-7.2,0-11.45,4.4-11.45,11.16v17.86h-8.06V64.87h8.06v5.4a13.76,13.76,0,0,1,11.45-6Z"/><path class="cls-1" d="M256.35,64.87v36.72h-8.06V96.34a16,16,0,0,1-12.89,6.12c-10.37,0-18.07-8.28-18.07-19.23S225,64,235.4,64a16,16,0,0,1,12.89,6.12V64.87Zm-8.06,18.36A11.34,11.34,0,1,0,237,94.68,11.13,11.13,0,0,0,248.29,83.23Z"/><path class="cls-1" d="M263.7,83.23c0-10.94,8.42-19.22,19.65-19.22a19.26,19.26,0,0,1,16.85,9.14l-7,4.25a11.45,11.45,0,1,0,0,11.66l7,4.25a19.26,19.26,0,0,1-16.85,9.15C272.12,102.46,263.7,94.18,263.7,83.23Z"/><path class="cls-1" d="M324.32,82l16.13-17.13H329.94l-15.2,16.56V57.57H314a29.67,29.67,0,0,1-7.27-.88v44.89h8.06V92.23l3.89-4.18,11.67,13.54H341Z"/><path class="cls-1" d="M379.26,86.47H349.52c1.3,5.26,5.83,8.71,11.81,8.71a14.05,14.05,0,0,0,11-5l5.48,4.68a21.22,21.22,0,0,1-16.71,7.64c-11.66,0-20.3-8.36-20.3-19.37S349.16,64,360.18,64A18.8,18.8,0,0,1,379.47,83.3,24.11,24.11,0,0,1,379.26,86.47Zm-29.81-6.62h21.38a11,11,0,0,0-21.38,0Z"/><path class="cls-1" d="M396.39,72.21V89.57c0,3.45,1.95,5.11,5.33,5.11a10.85,10.85,0,0,0,5-1.3v7.56a14.08,14.08,0,0,1-6.69,1.52c-7.93,0-11.74-4.47-11.74-11.6V72.21h-6.19V64.87h6.19V55.36h8.06v9.51h10.37v7.34Z"/><path class="cls-1" d="M410.65,96.84l4.17-5.69a15.37,15.37,0,0,0,10.95,4.32c4.1,0,7.27-1.44,7.27-4,0-2.88-3.6-3.82-7.92-4.83-5.9-1.36-13.32-3.24-13.32-11.3,0-7.56,6.7-11.3,14.62-11.3a21.74,21.74,0,0,1,14,4.89l-4.25,5.69a14.53,14.53,0,0,0-9.58-3.6C423,71,420,72.21,420,74.73c0,2.88,3.53,3.75,8,4.76,5.91,1.29,13.25,3.16,13.25,11.16,0,7.63-6.77,11.81-15.34,11.81A22.61,22.61,0,0,1,410.65,96.84Z"/><polygon class="cls-1" points="50.71 73.19 50.71 73.19 50.71 102.46 25.35 87.83 25.35 87.81 0.02 73.19 0 73.19 0 43.93 0.02 43.93 25.35 29.29 25.37 29.29 50.71 14.64 76.06 29.29 50.73 43.93 50.71 43.93 25.37 58.55 50.71 73.19"/><polygon class="cls-2" points="126.75 29.27 126.75 58.55 101.39 73.17 76.04 87.81 50.71 73.17 76.04 58.55 76.06 58.55 101.39 43.91 76.04 29.27 76.04 0 101.39 14.64 126.75 29.27"/></g></g></svg>