<svg width="245" height="239" viewBox="0 0 245 239" fill="none" xmlns="http://www.w3.org/2000/svg">
<path opacity="0.5" d="M-101.365 58.2978C-101.365 56.3861 -101.272 54.4959 -101.091 52.6315L-100.593 52.68C-100.223 48.8869 -99.4832 45.2018 -98.4095 41.6614L-98.888 41.5162C-97.7797 37.8616 -96.3189 34.3599 -94.5454 31.0507L-94.1047 31.2868C-92.3254 27.9668 -90.2285 24.8422 -87.8547 21.9535L-88.241 21.6361C-85.8379 18.7118 -83.1534 16.0274 -80.2292 13.6243L-79.9117 14.0106C-77.0231 11.6367 -73.8984 9.53984 -70.5784 7.76055L-70.8146 7.31985C-67.5053 5.54633 -64.0036 4.08557 -60.349 2.97724L-60.2039 3.45572C-56.6635 2.38202 -52.9784 1.64201 -49.1853 1.27235L-49.2338 0.774708C-47.3693 0.593004 -45.4791 0.500025 -43.5674 0.500025L-38.7702 0.500025L-38.7702 1.00002L-29.1756 1.00002L-29.1756 0.500024L-19.581 0.500023L-19.581 1.00002L-9.98645 1.00002L-9.98645 0.500022L-0.391876 0.500021L-0.391876 1.00002L9.20268 1.00002L9.20268 0.500021L18.7973 0.50002L18.7973 1.00002L28.3918 1.00002L28.3918 0.500019L37.9864 0.500018L37.9864 1.00002L47.581 1.00002L47.581 0.500017L57.1756 0.500016L57.1756 1.00002L66.7701 1.00002L66.7701 0.500015L76.3647 0.500015L76.3647 1.00001L85.9593 1.00001L85.9593 0.500014L95.5538 0.500013L95.5538 1.00001L105.148 1.00001L105.148 0.500012L114.743 0.500011L114.743 1.00001L124.338 1.00001L124.338 0.50001L129.135 0.50001C130.822 0.50001 132.501 0.536303 134.171 0.608153L134.15 1.10769C137.518 1.25261 140.849 1.54281 144.136 1.97216L144.201 1.47637C147.552 1.91406 150.858 2.49575 154.112 3.21503L154.005 3.70325C157.285 4.42827 160.513 5.2937 163.682 6.29288L163.832 5.81602C167.048 6.82988 170.203 7.98086 173.29 9.26207L173.098 9.72388C176.195 11.0091 179.224 12.426 182.177 13.9675L182.408 13.5242C185.391 15.0808 188.296 16.7639 191.119 18.5664L190.85 18.9877C193.67 20.789 196.407 22.71 199.052 24.7435L199.357 24.3471C202.02 26.3939 204.591 28.5542 207.063 30.8207L206.725 31.1893C209.188 33.4477 211.552 35.8121 213.811 38.2753L214.179 37.9374C216.446 40.4094 218.606 42.9804 220.653 45.6432L220.256 45.9479C222.29 48.5935 224.211 51.33 226.012 54.1504L226.434 53.8812C228.236 56.7035 229.919 59.6093 231.476 62.5915L231.033 62.8229C232.574 65.7762 233.991 68.8049 235.276 71.9018L235.738 71.7101C237.019 74.7973 238.17 77.9521 239.184 81.1675L238.707 81.3179C239.706 84.4868 240.572 87.7149 241.297 90.9955L241.785 90.8876C242.504 94.1422 243.086 97.4482 243.524 100.799L243.028 100.864C243.457 104.151 243.747 107.482 243.892 110.85L244.392 110.829C244.464 112.499 244.5 114.178 244.5 115.865C244.5 117.553 244.464 119.232 244.392 120.902L243.892 120.88C243.747 124.248 243.457 127.579 243.028 130.866L243.524 130.931C243.086 134.282 242.504 137.588 241.785 140.843L241.297 140.735C240.572 144.016 239.706 147.244 238.707 150.412L239.184 150.563C238.17 153.778 237.019 156.933 235.738 160.02L235.276 159.829C233.991 162.925 232.574 165.954 231.033 168.908L231.476 169.139C229.919 172.121 228.236 175.027 226.434 177.849L226.012 177.58C224.211 180.4 222.29 183.137 220.256 185.783L220.653 186.087C218.606 188.75 216.446 191.321 214.179 193.793L213.811 193.455C211.552 195.918 209.188 198.283 206.725 200.541L207.063 200.91C204.591 203.176 202.02 205.336 199.357 207.383L199.052 206.987C196.407 209.02 193.67 210.941 190.85 212.743L191.119 213.164C188.297 214.966 185.391 216.65 182.409 218.206L182.177 217.763C179.224 219.304 176.195 220.721 173.098 222.006L173.29 222.468C170.203 223.75 167.048 224.9 163.833 225.914L163.682 225.437C160.513 226.437 157.285 227.302 154.005 228.027L154.112 228.515C150.858 229.235 147.552 229.816 144.201 230.254L144.136 229.758C140.849 230.188 137.518 230.478 134.15 230.623L134.171 231.122C132.501 231.194 130.822 231.23 129.135 231.23C127.454 231.23 125.781 231.267 124.118 231.338L124.096 230.839C120.712 230.984 117.366 231.276 114.063 231.707L114.128 232.203C110.79 232.639 107.498 233.218 104.256 233.935L104.148 233.446C100.852 234.175 97.6091 235.044 94.4253 236.048L94.5757 236.525C91.3733 237.535 88.2314 238.681 85.1567 239.957L84.965 239.495C81.8536 240.786 78.8107 242.21 75.8435 243.759L76.0748 244.202C73.1046 245.752 70.2104 247.429 67.3994 249.224L67.1303 248.803C64.2967 250.612 61.5473 252.542 58.8892 254.585L59.194 254.982C56.5417 257.02 53.9808 259.172 51.5186 261.43L51.1807 261.061C48.7059 263.33 46.3304 265.706 44.0613 268.181L44.4299 268.519C42.1722 270.981 40.0205 273.542 37.9818 276.194L37.5854 275.889C35.5422 278.547 33.6122 281.297 31.8025 284.13L32.2239 284.399C30.4286 287.21 28.7523 290.105 27.202 293.075L26.7587 292.843C25.21 295.811 23.7864 298.854 22.4952 301.965L22.957 302.157C21.681 305.231 20.5347 308.373 19.5249 311.576L19.0481 311.425C18.0442 314.609 17.1747 317.852 16.4463 321.148L16.9345 321.256C16.2182 324.498 15.6388 327.79 15.2029 331.128L14.7071 331.063C14.2757 334.366 13.9842 337.712 13.8386 341.096L14.3381 341.118C14.2665 342.781 14.2304 344.454 14.2304 346.135C14.2304 347.822 14.1941 349.501 14.1222 351.171L13.6227 351.15C13.4778 354.518 13.1876 357.849 12.7582 361.136L13.254 361.201C12.8163 364.552 12.2346 367.858 11.5154 371.112L11.0271 371.005C10.3021 374.285 9.43669 377.513 8.43752 380.682L8.91437 380.832C7.90052 384.048 6.74953 387.203 5.46831 390.29L5.0065 390.098C3.72127 393.195 2.3044 396.224 0.762883 399.177L1.20615 399.409C-0.350414 402.391 -2.03349 405.297 -3.83596 408.119L-4.25735 407.85C-6.05859 410.67 -7.97958 413.407 -10.0131 416.052L-9.61674 416.357C-11.6635 419.02 -13.8238 421.591 -16.0903 424.063L-16.4589 423.725C-18.7173 426.188 -21.0817 428.552 -23.5449 430.811L-23.207 431.179C-25.679 433.446 -28.25 435.606 -30.9128 437.653L-31.2175 437.256C-33.8631 439.29 -36.5996 441.211 -39.42 443.012L-39.1508 443.434C-41.9731 445.236 -44.8789 446.919 -47.8611 448.476L-48.0925 448.033C-51.0459 449.574 -54.0745 450.991 -57.1714 452.276L-56.9797 452.738C-60.0669 454.019 -63.2217 455.17 -66.4371 456.184L-66.5875 455.707C-69.7564 456.706 -72.9845 457.572 -76.2651 458.297L-76.1572 458.785C-79.4118 459.504 -82.7179 460.086 -86.0689 460.524L-86.1337 460.028C-89.4209 460.457 -92.7517 460.747 -96.1199 460.892L-96.0983 461.392C-97.7683 461.464 -99.4473 461.5 -101.135 461.5C-102.822 461.5 -104.501 461.464 -106.171 461.392L-106.15 460.892C-109.518 460.747 -112.849 460.457 -116.136 460.028L-116.201 460.524C-119.552 460.086 -122.858 459.504 -126.112 458.785L-126.005 458.297C-129.285 457.572 -132.513 456.706 -135.682 455.707L-135.832 456.184C-139.048 455.17 -142.203 454.019 -145.29 452.738L-145.098 452.276C-148.195 450.991 -151.224 449.574 -154.177 448.033L-154.408 448.476C-157.391 446.919 -160.297 445.236 -163.119 443.434L-162.85 443.012C-165.67 441.211 -168.407 439.29 -171.052 437.257L-171.357 437.653C-174.02 435.606 -176.591 433.446 -179.063 431.179L-178.725 430.811C-181.188 428.552 -183.552 426.188 -185.811 423.725L-186.179 424.063C-188.446 421.591 -190.606 419.02 -192.653 416.357L-192.256 416.052C-194.29 413.407 -196.211 410.67 -198.012 407.85L-198.434 408.119C-200.236 405.297 -201.919 402.391 -203.476 399.409L-203.032 399.177C-204.574 396.224 -205.991 393.195 -207.276 390.098L-207.738 390.29C-209.019 387.203 -210.17 384.048 -211.184 380.833L-210.707 380.682C-211.706 377.513 -212.572 374.285 -213.297 371.005L-213.785 371.112C-214.504 367.858 -215.086 364.552 -215.524 361.201L-215.028 361.136C-215.457 357.849 -215.747 354.518 -215.892 351.15L-216.392 351.171C-216.464 349.501 -216.5 347.822 -216.5 346.135L-216.5 341.338L-216 341.338L-216 331.743L-216.5 331.743L-216.5 322.148L-216 322.148L-216 312.554L-216.5 312.554L-216.5 302.959L-216 302.959L-216 293.365L-216.5 293.365L-216.5 283.77L-216 283.77L-216 274.176L-216.5 274.176L-216.5 264.581L-216 264.581L-216 254.986L-216.5 254.986L-216.5 245.392L-216 245.392L-216 235.797L-216.5 235.797L-216.5 226.203L-216 226.203L-216 216.608L-216.5 216.608L-216.5 207.014L-216 207.014L-216 197.419L-216.5 197.419L-216.5 187.824L-216 187.824L-216 178.23L-216.5 178.23L-216.5 173.433C-216.5 171.521 -216.407 169.631 -216.225 167.766L-215.728 167.815C-215.358 164.022 -214.618 160.337 -213.544 156.796L-214.023 156.651C-212.914 152.996 -211.454 149.495 -209.68 146.185L-209.24 146.422C-207.46 143.102 -205.363 139.977 -202.99 137.088L-203.376 136.771C-200.973 133.847 -198.288 131.162 -195.364 128.759L-195.047 129.145C-192.158 126.772 -189.033 124.675 -185.713 122.895L-185.949 122.455C-182.64 120.681 -179.138 119.22 -175.484 118.112L-175.339 118.591C-171.798 117.517 -168.113 116.777 -164.32 116.407L-164.369 115.91C-162.504 115.728 -160.614 115.635 -158.702 115.635C-157.187 115.635 -155.685 115.576 -154.199 115.46L-154.16 115.959C-151.099 115.721 -148.105 115.244 -145.196 114.547L-145.312 114.061C-142.366 113.355 -139.508 112.422 -136.757 111.28L-136.566 111.742C-133.753 110.575 -131.052 109.192 -128.483 107.614L-128.745 107.188C-126.18 105.612 -123.748 103.84 -121.47 101.892L-121.145 102.272C-118.843 100.303 -116.697 98.1572 -114.728 95.8546L-115.108 95.5297C-113.16 93.252 -111.388 90.82 -109.812 88.2549L-109.386 88.5167C-107.808 85.9481 -106.425 83.2471 -105.258 80.4343L-105.72 80.2427C-104.578 77.4922 -103.645 74.634 -102.939 71.6876L-102.453 71.804C-101.756 68.895 -101.279 65.9007 -101.041 62.8397L-101.54 62.801C-101.424 61.3151 -101.365 59.8133 -101.365 58.2978Z" stroke="#00ED64" stroke-dasharray="10 10"/>
</svg>
