<svg width="207" height="383" viewBox="0 0 207 383" fill="none" xmlns="http://www.w3.org/2000/svg">
<path opacity="0.5" d="M-139.365 -20.7022C-139.365 -22.6139 -139.272 -24.5041 -139.091 -26.3685L-138.593 -26.32C-138.223 -30.1131 -137.483 -33.7982 -136.41 -37.3386L-136.888 -37.4838C-135.78 -41.1384 -134.319 -44.6401 -132.545 -47.9493L-132.105 -47.7132C-130.325 -51.0332 -128.228 -54.1578 -125.855 -57.0465L-126.241 -57.3639C-123.838 -60.2882 -121.153 -62.9726 -118.229 -65.3757L-117.912 -64.9894C-115.023 -67.3633 -111.898 -69.4602 -108.578 -71.2394L-108.815 -71.6801C-105.505 -73.4537 -102.004 -74.9144 -98.349 -76.0228L-98.2039 -75.5443C-94.6635 -76.618 -90.9784 -77.358 -87.1853 -77.7276L-87.2338 -78.2253C-85.3693 -78.407 -83.4791 -78.5 -81.5674 -78.5L-76.7702 -78.5L-76.7702 -78L-67.1756 -78L-67.1756 -78.5L-57.581 -78.5L-57.581 -78L-47.9865 -78L-47.9865 -78.5L-38.3919 -78.5L-38.3919 -78L-28.7973 -78L-28.7973 -78.5L-19.2027 -78.5L-19.2027 -78L-9.60817 -78L-9.60817 -78.5L-0.0135956 -78.5L-0.0135956 -78L9.58098 -78L9.58098 -78.5L19.1756 -78.5L19.1756 -78L28.7701 -78L28.7701 -78.5L38.3647 -78.5L38.3647 -78L47.9593 -78L47.9593 -78.5L57.5538 -78.5L57.5538 -78L67.1484 -78L67.1484 -78.5L76.743 -78.5L76.743 -78L86.3376 -78L86.3376 -78.5L91.1348 -78.5C92.8223 -78.5 94.5013 -78.4637 96.1712 -78.3918L96.1497 -77.8923C99.518 -77.7474 102.849 -77.4572 106.136 -77.0278L106.201 -77.5236C109.552 -77.0859 112.858 -76.5042 116.112 -75.785L116.005 -75.2968C119.285 -74.5717 122.513 -73.7063 125.682 -72.7071L125.832 -73.184C129.048 -72.1701 132.203 -71.0191 135.29 -69.7379L135.098 -69.2761C138.195 -67.9909 141.224 -66.574 144.177 -65.0325L144.408 -65.4758C147.391 -63.9192 150.296 -62.2361 153.119 -60.4336L152.85 -60.0123C155.67 -58.211 158.407 -56.29 161.052 -54.2565L161.357 -54.6529C164.02 -52.6061 166.591 -50.4458 169.063 -48.1793L168.725 -47.8107C171.188 -45.5523 173.552 -43.1879 175.811 -40.7247L176.179 -41.0626C178.446 -38.5906 180.606 -36.0196 182.653 -33.3568L182.256 -33.0521C184.29 -30.4065 186.211 -27.67 188.012 -24.8496L188.434 -25.1188C190.236 -22.2965 191.919 -19.3907 193.476 -16.4085L193.033 -16.1771C194.574 -13.2238 195.991 -10.1951 197.276 -7.09824L197.738 -7.28989C199.019 -4.20267 200.17 -1.04791 201.184 2.16752L200.707 2.31787C201.706 5.48677 202.572 8.71485 203.297 11.9955L203.785 11.8876C204.504 15.1422 205.086 18.4482 205.524 21.7993L205.028 21.8641C205.457 25.1513 205.747 28.482 205.892 31.8502L206.392 31.8287C206.464 33.4987 206.5 35.1777 206.5 36.8652C206.5 38.5526 206.464 40.2317 206.392 41.9016L205.892 41.8801C205.747 45.2483 205.457 48.5791 205.028 51.8663L205.524 51.931C205.086 55.2821 204.504 58.5882 203.785 61.8428L203.297 61.7349C202.572 65.0155 201.706 68.2436 200.707 71.4125L201.184 71.5628C200.17 74.7783 199.019 77.933 197.738 81.0202L197.276 80.8286C195.991 83.9255 194.574 86.9541 193.033 89.9075L193.476 90.1389C191.919 93.1211 190.236 96.0269 188.434 98.8491L188.012 98.58C186.211 101.4 184.29 104.137 182.256 106.783L182.653 107.087C180.606 109.75 178.446 112.321 176.179 114.793L175.811 114.455C173.552 116.918 171.188 119.283 168.725 121.541L169.063 121.91C166.591 124.176 164.02 126.336 161.357 128.383L161.052 127.987C158.407 130.02 155.67 131.941 152.85 133.743L153.119 134.164C150.297 135.966 147.391 137.65 144.409 139.206L144.177 138.763C141.224 140.304 138.195 141.721 135.098 143.006L135.29 143.468C132.203 144.75 129.048 145.9 125.833 146.914L125.682 146.437C122.513 147.437 119.285 148.302 116.005 149.027L116.112 149.515C112.858 150.235 109.552 150.816 106.201 151.254L106.136 150.758C102.849 151.188 99.518 151.478 96.1498 151.623L96.1713 152.122C94.5014 152.194 92.8223 152.23 91.1348 152.23C89.4538 152.23 87.7813 152.267 86.1178 152.338L86.0963 151.839C82.7123 151.984 79.3659 152.276 76.0633 152.707L76.128 153.203C72.7904 153.639 69.4977 154.218 66.2563 154.935L66.1484 154.446C62.8523 155.175 59.6091 156.044 56.4253 157.048L56.5757 157.525C53.3733 158.535 50.2314 159.681 47.1567 160.957L46.965 160.495C43.8536 161.786 40.8107 163.21 37.8435 164.759L38.0748 165.202C35.1046 166.752 32.2104 168.429 29.3994 170.224L29.1303 169.803C26.2967 171.612 23.5473 173.542 20.8892 175.585L21.194 175.982C18.5417 178.02 15.9808 180.172 13.5186 182.43L13.1807 182.061C10.7059 184.33 8.33041 186.706 6.06135 189.181L6.42988 189.519C4.17223 191.981 2.02046 194.542 -0.0182102 197.194L-0.414634 196.889C-2.45775 199.547 -4.38776 202.297 -6.19747 205.13L-5.77608 205.399C-7.57137 208.21 -9.24772 211.105 -10.798 214.075L-11.2413 213.843C-12.79 216.811 -14.2136 219.854 -15.5048 222.965L-15.043 223.157C-16.319 226.231 -17.4653 229.373 -18.4751 232.576L-18.9519 232.425C-19.9558 235.609 -20.8253 238.852 -21.5537 242.148L-21.0655 242.256C-21.7818 245.498 -22.3612 248.79 -22.7971 252.128L-23.2929 252.063C-23.7243 255.366 -24.0158 258.712 -24.1614 262.096L-23.6619 262.118C-23.7335 263.781 -23.7696 265.454 -23.7696 267.135C-23.7696 268.822 -23.8059 270.501 -23.8778 272.171L-24.3773 272.15C-24.5222 275.518 -24.8124 278.849 -25.2418 282.136L-24.746 282.201C-25.1837 285.552 -25.7654 288.858 -26.4846 292.112L-26.9729 292.005C-27.6979 295.285 -28.5633 298.513 -29.5625 301.682L-29.0856 301.832C-30.0995 305.048 -31.2505 308.203 -32.5317 311.29L-32.9935 311.098C-34.2787 314.195 -35.6956 317.224 -37.2371 320.177L-36.7938 320.409C-38.3504 323.391 -40.0335 326.297 -41.836 329.119L-42.2573 328.85C-44.0586 331.67 -45.9796 334.407 -48.0131 337.052L-47.6167 337.357C-49.6635 340.02 -51.8238 342.591 -54.0903 345.063L-54.4589 344.725C-56.7173 347.188 -59.0817 349.552 -61.5449 351.811L-61.207 352.179C-63.679 354.446 -66.25 356.606 -68.9128 358.653L-69.2175 358.256C-71.8631 360.29 -74.5996 362.211 -77.42 364.012L-77.1508 364.434C-79.9731 366.236 -82.8789 367.919 -85.8611 369.476L-86.0925 369.033C-89.0459 370.574 -92.0745 371.991 -95.1714 373.276L-94.9797 373.738C-98.0669 375.019 -101.222 376.17 -104.437 377.184L-104.587 376.707C-107.756 377.706 -110.984 378.572 -114.265 379.297L-114.157 379.785C-117.412 380.504 -120.718 381.086 -124.069 381.524L-124.134 381.028C-127.421 381.457 -130.752 381.747 -134.12 381.892L-134.098 382.392C-135.768 382.464 -137.447 382.5 -139.135 382.5C-140.822 382.5 -142.501 382.464 -144.171 382.392L-144.15 381.892C-147.518 381.747 -150.849 381.457 -154.136 381.028L-154.201 381.524C-157.552 381.086 -160.858 380.504 -164.112 379.785L-164.005 379.297C-167.285 378.572 -170.513 377.706 -173.682 376.707L-173.832 377.184C-177.048 376.17 -180.203 375.019 -183.29 373.738L-183.098 373.276C-186.195 371.991 -189.224 370.574 -192.177 369.033L-192.408 369.476C-195.391 367.919 -198.297 366.236 -201.119 364.434L-200.85 364.012C-203.67 362.211 -206.407 360.29 -209.052 358.257L-209.357 358.653C-212.02 356.606 -214.591 354.446 -217.063 352.179L-216.725 351.811C-219.188 349.552 -221.552 347.188 -223.811 344.725L-224.179 345.063C-226.446 342.591 -228.606 340.02 -230.653 337.357L-230.256 337.052C-232.29 334.407 -234.211 331.67 -236.012 328.85L-236.434 329.119C-238.236 326.297 -239.919 323.391 -241.476 320.409L-241.032 320.177C-242.574 317.224 -243.991 314.195 -245.276 311.098L-245.738 311.29C-247.019 308.203 -248.17 305.048 -249.184 301.833L-248.707 301.682C-249.706 298.513 -250.572 295.285 -251.297 292.005L-251.785 292.112C-252.504 288.858 -253.086 285.552 -253.524 282.201L-253.028 282.136C-253.457 278.849 -253.747 275.518 -253.892 272.15L-254.392 272.171C-254.464 270.501 -254.5 268.822 -254.5 267.135L-254.5 262.338L-254 262.338L-254 252.743L-254.5 252.743L-254.5 243.148L-254 243.148L-254 233.554L-254.5 233.554L-254.5 223.959L-254 223.959L-254 214.365L-254.5 214.365L-254.5 204.77L-254 204.77L-254 195.176L-254.5 195.176L-254.5 185.581L-254 185.581L-254 175.986L-254.5 175.986L-254.5 166.392L-254 166.392L-254 156.797L-254.5 156.797L-254.5 147.203L-254 147.203L-254 137.608L-254.5 137.608L-254.5 128.014L-254 128.014L-254 118.419L-254.5 118.419L-254.5 108.824L-254 108.824L-254 99.2299L-254.5 99.2299L-254.5 94.4326C-254.5 92.521 -254.407 90.6308 -254.225 88.7663L-253.728 88.8148C-253.358 85.0217 -252.618 81.3366 -251.544 77.7962L-252.023 77.6511C-250.914 73.9965 -249.454 70.4947 -247.68 67.1855L-247.24 67.4217C-245.46 64.1016 -243.363 60.977 -240.99 58.0884L-241.376 57.7709C-238.973 54.8466 -236.288 52.1622 -233.364 49.7591L-233.047 50.1454C-230.158 47.7716 -227.033 45.6747 -223.713 43.8954L-223.949 43.4547C-220.64 41.6812 -217.138 40.2204 -213.484 39.1121L-213.339 39.5905C-209.798 38.5168 -206.113 37.7768 -202.32 37.4072L-202.369 36.9095C-200.504 36.7278 -198.614 36.6349 -196.702 36.6349C-195.187 36.6349 -193.685 36.576 -192.199 36.4604L-192.16 36.9589C-189.099 36.7207 -186.105 36.244 -183.196 35.5472L-183.312 35.061C-180.366 34.3552 -177.508 33.4218 -174.757 32.2804L-174.566 32.7422C-171.753 31.5749 -169.052 30.1918 -166.483 28.6138L-166.745 28.1878C-164.18 26.6118 -161.748 24.8397 -159.47 22.8922L-159.145 23.2722C-156.843 21.3035 -154.697 19.1572 -152.728 16.8546L-153.108 16.5297C-151.16 14.252 -149.388 11.82 -147.812 9.25492L-147.386 9.51666C-145.808 6.94814 -144.425 4.24714 -143.258 1.43431L-143.72 1.24265C-142.578 -1.50776 -141.645 -4.366 -140.939 -7.31242L-140.453 -7.19595C-139.756 -10.105 -139.279 -13.0993 -139.041 -16.1603L-139.54 -16.199C-139.424 -17.6849 -139.365 -19.1867 -139.365 -20.7022Z" stroke="#00ED64" stroke-dasharray="10 10"/>
</svg>
