<svg width="171" height="315" viewBox="0 0 171 315" fill="none" xmlns="http://www.w3.org/2000/svg">
<path opacity="0.5" d="M346.365 -88.7022C346.365 -90.6139 346.272 -92.5041 346.091 -94.3685L345.593 -94.32C345.223 -98.1131 344.483 -101.798 343.41 -105.339L343.888 -105.484C342.78 -109.138 341.319 -112.64 339.545 -115.949L339.105 -115.713C337.325 -119.033 335.228 -122.158 332.855 -125.046L333.241 -125.364C330.838 -128.288 328.153 -130.973 325.229 -133.376L324.912 -132.989C322.023 -135.363 318.898 -137.46 315.578 -139.239L315.815 -139.68C312.505 -141.454 309.004 -142.914 305.349 -144.023L305.204 -143.544C301.663 -144.618 297.978 -145.358 294.185 -145.728L294.234 -146.225C292.369 -146.407 290.479 -146.5 288.567 -146.5L283.77 -146.5L283.77 -146L274.176 -146L274.176 -146.5L264.581 -146.5L264.581 -146L254.986 -146L254.986 -146.5L245.392 -146.5L245.392 -146L235.797 -146L235.797 -146.5L226.203 -146.5L226.203 -146L216.608 -146L216.608 -146.5L207.014 -146.5L207.014 -146L197.419 -146L197.419 -146.5L187.824 -146.5L187.824 -146L178.23 -146L178.23 -146.5L168.635 -146.5L168.635 -146L159.041 -146L159.041 -146.5L149.446 -146.5L149.446 -146L139.852 -146L139.852 -146.5L130.257 -146.5L130.257 -146L120.662 -146L120.662 -146.5L115.865 -146.5C114.178 -146.5 112.499 -146.464 110.829 -146.392L110.85 -145.892C107.482 -145.747 104.151 -145.457 100.864 -145.028L100.799 -145.524C97.4482 -145.086 94.1422 -144.504 90.8876 -143.785L90.9955 -143.297C87.7149 -142.572 84.4868 -141.706 81.3179 -140.707L81.1675 -141.184C77.9521 -140.17 74.7974 -139.019 71.7101 -137.738L71.9018 -137.276C68.8049 -135.991 65.7763 -134.574 62.8229 -133.033L62.5915 -133.476C59.6093 -131.919 56.7035 -130.236 53.8813 -128.434L54.1504 -128.012C51.33 -126.211 48.5935 -124.29 45.9479 -122.256L45.6432 -122.653C42.9804 -120.606 40.4094 -118.446 37.9374 -116.179L38.2753 -115.811C35.8122 -113.552 33.4477 -111.188 31.1893 -108.725L30.8207 -109.063C28.5542 -106.591 26.3939 -104.02 24.3471 -101.357L24.7436 -101.052C22.71 -98.4065 20.789 -95.67 18.9877 -92.8496L18.5664 -93.1188C16.7639 -90.2965 15.0808 -87.3907 13.5242 -84.4085L13.9675 -84.1771C12.426 -81.2238 11.0091 -78.1951 9.72388 -75.0982L9.26207 -75.2899C7.98085 -72.2027 6.82988 -69.0479 5.81602 -65.8325L6.29288 -65.6821C5.29369 -62.5132 4.42826 -59.2851 3.70324 -56.0045L3.21502 -56.1124C2.49574 -52.8578 1.91405 -49.5518 1.47635 -46.2007L1.97214 -46.1359C1.54279 -42.8487 1.25259 -39.518 1.10767 -36.1498L0.608135 -36.1713C0.536284 -34.5013 0.49999 -32.8223 0.49999 -31.1348C0.49999 -29.4474 0.536283 -27.7683 0.608133 -26.0984L1.10767 -26.1199C1.25259 -22.7517 1.54278 -19.4209 1.97214 -16.1337L1.47635 -16.069C1.91404 -12.7179 2.49573 -9.41183 3.21501 -6.15723L3.70323 -6.26512C4.42825 -2.9845 5.29367 0.243576 6.29286 3.41248L5.816 3.56282C6.82986 6.77826 7.98083 9.93301 9.26205 13.0202L9.72386 12.8286C11.0091 15.9255 12.426 18.9541 13.9675 21.9075L13.5242 22.1389C15.0808 25.1211 16.7639 28.0269 18.5663 30.8491L18.9877 30.58C20.789 33.4003 22.71 36.1369 24.7435 38.7825L24.3471 39.0872C26.3939 41.75 28.5541 44.321 30.8207 46.793L31.1892 46.4551C33.4477 48.9182 35.8121 51.2827 38.2753 53.5411L37.9374 53.9096C40.4094 56.1762 42.9804 58.3365 45.6431 60.3832L45.9478 59.9868C48.5934 62.0204 51.33 63.9414 54.1503 65.7426L53.8812 66.164C56.7035 67.9665 59.6093 69.6496 62.5915 71.2061L62.8228 70.7629C65.7762 72.3044 68.8049 73.7213 71.9017 75.0065L71.7101 75.4683C74.7973 76.7495 77.9521 77.9005 81.1675 78.9143L81.3179 78.4375C84.4868 79.4367 87.7148 80.3021 90.9954 81.0271L90.8875 81.5153C94.1422 82.2346 97.4482 82.8163 100.799 83.254L100.864 82.7582C104.151 83.1876 107.482 83.4778 110.85 83.6227L110.829 84.1222C112.499 84.1941 114.178 84.2304 115.865 84.2304C117.546 84.2304 119.219 84.2665 120.882 84.3381L120.904 83.8386C124.288 83.9842 127.634 84.2757 130.937 84.7071L130.872 85.2029C134.21 85.6388 137.502 86.2182 140.744 86.9345L140.852 86.4463C144.148 87.1747 147.391 88.0442 150.575 89.0481L150.424 89.5249C153.627 90.5347 156.769 91.681 159.843 92.957L160.035 92.4952C163.146 93.7865 166.189 95.21 169.157 96.7587L168.925 97.202C171.895 98.7523 174.79 100.429 177.601 102.224L177.87 101.803C180.703 103.612 183.453 105.542 186.111 107.585L185.806 107.982C188.458 110.02 191.019 112.172 193.481 114.43L193.819 114.061C196.294 116.33 198.67 118.706 200.939 121.181L200.57 121.519C202.828 123.981 204.98 126.542 207.018 129.194L207.415 128.889C209.458 131.547 211.388 134.297 213.197 137.13L212.776 137.399C214.571 140.21 216.248 143.105 217.798 146.075L218.241 145.843C219.79 148.811 221.214 151.854 222.505 154.965L222.043 155.157C223.319 158.231 224.465 161.373 225.475 164.576L225.952 164.425C226.956 167.609 227.825 170.852 228.554 174.148L228.065 174.256C228.782 177.498 229.361 180.79 229.797 184.128L230.293 184.063C230.724 187.366 231.016 190.712 231.161 194.096L230.662 194.118C230.733 195.781 230.77 197.454 230.77 199.135C230.77 200.822 230.806 202.501 230.878 204.171L231.377 204.15C231.522 207.518 231.812 210.849 232.242 214.136L231.746 214.201C232.184 217.552 232.765 220.858 233.485 224.112L233.973 224.005C234.698 227.285 235.563 230.513 236.562 233.682L236.086 233.832C237.099 237.048 238.25 240.203 239.532 243.29L239.993 243.098C241.279 246.195 242.696 249.224 244.237 252.177L243.794 252.409C245.35 255.391 247.033 258.297 248.836 261.119L249.257 260.85C251.059 263.67 252.98 266.407 255.013 269.052L254.617 269.357C256.663 272.02 258.824 274.591 261.09 277.063L261.459 276.725C263.717 279.188 266.082 281.552 268.545 283.811L268.207 284.179C270.679 286.446 273.25 288.606 275.913 290.653L276.217 290.256C278.863 292.29 281.6 294.211 284.42 296.012L284.151 296.434C286.973 298.236 289.879 299.919 292.861 301.476L293.092 301.033C296.046 302.574 299.074 303.991 302.171 305.276L301.98 305.738C305.067 307.019 308.222 308.17 311.437 309.184L311.587 308.707C314.756 309.706 317.984 310.572 321.265 311.297L321.157 311.785C324.412 312.504 327.718 313.086 331.069 313.524L331.134 313.028C334.421 313.457 337.752 313.747 341.12 313.892L341.098 314.392C342.768 314.464 344.447 314.5 346.135 314.5C347.822 314.5 349.501 314.464 351.171 314.392L351.15 313.892C354.518 313.747 357.849 313.457 361.136 313.028L361.201 313.524C364.552 313.086 367.858 312.504 371.112 311.785L371.005 311.297C374.285 310.572 377.513 309.706 380.682 308.707L380.832 309.184C384.048 308.17 387.203 307.019 390.29 305.738L390.098 305.276C393.195 303.991 396.224 302.574 399.177 301.033L399.408 301.476C402.391 299.919 405.297 298.236 408.119 296.434L407.85 296.012C410.67 294.211 413.407 292.29 416.052 290.257L416.357 290.653C419.02 288.606 421.591 286.446 424.063 284.179L423.725 283.811C426.188 281.552 428.552 279.188 430.811 276.725L431.179 277.063C433.446 274.591 435.606 272.02 437.653 269.357L437.256 269.052C439.29 266.407 441.211 263.67 443.012 260.85L443.434 261.119C445.236 258.297 446.919 255.391 448.476 252.409L448.032 252.177C449.574 249.224 450.991 246.195 452.276 243.098L452.738 243.29C454.019 240.203 455.17 237.048 456.184 233.833L455.707 233.682C456.706 230.513 457.572 227.285 458.297 224.005L458.785 224.112C459.504 220.858 460.086 217.552 460.524 214.201L460.028 214.136C460.457 210.849 460.747 207.518 460.892 204.15L461.392 204.171C461.464 202.501 461.5 200.822 461.5 199.135L461.5 194.338L461 194.338L461 184.743L461.5 184.743L461.5 175.148L461 175.148L461 165.554L461.5 165.554L461.5 155.959L461 155.959L461 146.365L461.5 146.365L461.5 136.77L461 136.77L461 127.176L461.5 127.176L461.5 117.581L461 117.581L461 107.986L461.5 107.986L461.5 98.3919L461 98.3919L461 88.7973L461.5 88.7973L461.5 79.2028L461 79.2028L461 69.6082L461.5 69.6082L461.5 60.0136L461 60.0136L461 50.419L461.5 50.419L461.5 40.8245L461 40.8245L461 31.2299L461.5 31.2299L461.5 26.4326C461.5 24.521 461.407 22.6308 461.225 20.7663L460.728 20.8148C460.358 17.0217 459.618 13.3366 458.544 9.79618L459.023 9.65107C457.914 5.99645 456.454 2.49471 454.68 -0.81452L454.24 -0.578345C452.46 -3.89835 450.363 -7.02302 447.99 -9.91164L448.376 -10.2291C445.973 -13.1534 443.288 -15.8378 440.364 -18.2409L440.047 -17.8546C437.158 -20.2284 434.033 -22.3253 430.713 -24.1046L430.949 -24.5453C427.64 -26.3188 424.138 -27.7796 420.484 -28.8879L420.339 -28.4095C416.798 -29.4832 413.113 -30.2232 409.32 -30.5928L409.369 -31.0905C407.504 -31.2722 405.614 -31.3651 403.702 -31.3651C402.187 -31.3651 400.685 -31.424 399.199 -31.5396L399.16 -31.0411C396.099 -31.2793 393.105 -31.756 390.196 -32.4528L390.312 -32.939C387.366 -33.6448 384.508 -34.5782 381.757 -35.7196L381.566 -35.2578C378.753 -36.4251 376.052 -37.8082 373.483 -39.3862L373.745 -39.8122C371.18 -41.3882 368.748 -43.1603 366.47 -45.1078L366.145 -44.7278C363.843 -46.6965 361.697 -48.8428 359.728 -51.1454L360.108 -51.4703C358.16 -53.748 356.388 -56.18 354.812 -58.7451L354.386 -58.4833C352.808 -61.0519 351.425 -63.7529 350.258 -66.5657L350.72 -66.7573C349.578 -69.5078 348.645 -72.366 347.939 -75.3124L347.453 -75.196C346.756 -78.105 346.279 -81.0993 346.041 -84.1603L346.54 -84.199C346.424 -85.6849 346.365 -87.1867 346.365 -88.7022Z" stroke="#00ED64" stroke-dasharray="10 10"/>
</svg>
