<svg width="21" height="17" viewBox="0 0 21 17" fill="none" xmlns="http://www.w3.org/2000/svg">
<g clip-path="url(#clip0_45_5451)">
<path d="M20.0938 2.29998L18.2955 4.09508V4.39355C18.2955 4.7208 18.2422 5.03526 18.1643 5.338C18.1217 7.80679 17.3361 11.0804 14.0966 13.6632C7.73274 18.749 0.90625 14.2634 0.90625 14.2634C6.30327 14.2634 6.30327 12.4683 6.30327 12.4683C5.10298 12.4683 2.70455 10.0773 2.70455 10.0773C3.30469 10.6743 4.50497 10.0773 4.50497 10.0773C1.50319 8.28115 1.50319 6.48499 1.50319 6.48499C2.10334 7.083 3.30362 6.48499 3.30362 6.48499C0.306108 4.09508 2.1044 1.10289 2.1044 1.10289C2.70455 4.09508 10.5 5.2911 10.5 5.2911L10.5991 5.24206C10.535 4.86306 10.5018 4.47946 10.5 4.09508C10.5 1.94714 12.2439 0.504883 14.3972 0.504883C15.5826 0.504883 16.6293 1.04426 17.3446 1.87572L17.6953 1.70197L19.4936 0.504883L18.2976 2.89799L20.0938 2.29998Z" fill="#666666"/>
</g>
<defs>
<clipPath id="clip0_45_5451">
<rect width="19.1875" height="16" fill="white" transform="translate(0.90625 0.5)"/>
</clipPath>
</defs>
</svg>
