<svg width="20" height="19" viewBox="0 0 20 19" fill="none" xmlns="http://www.w3.org/2000/svg">
<g clip-path="url(#clip0_45_5448)">
<path d="M10.4062 0.237549C5.15139 0.237549 0.90625 4.48269 0.90625 9.73755C0.90625 13.923 3.63818 17.4868 7.40696 18.7625C7.88196 18.8521 8.06111 18.5549 8.06111 18.3174V16.7146C5.41875 17.2778 4.85418 15.4375 4.85418 15.4375C4.40904 14.3383 3.78611 14.0424 3.78611 14.0424C2.92568 13.448 3.84582 13.4778 3.84582 13.4778C4.79582 13.5375 5.29932 14.4577 5.29932 14.4577C6.16111 15.9125 7.52639 15.4973 8.06111 15.2584C8.15068 14.6355 8.38682 14.2202 8.65418 13.9827C6.54654 13.7452 4.32082 12.9146 4.32082 9.29241C4.32082 8.25283 4.67639 7.42226 5.29932 6.73962C5.21111 6.50212 4.88404 5.52226 5.38889 4.21533C5.38889 4.21533 6.18961 3.94798 8.00139 5.19519C8.77539 4.98312 9.57388 4.87361 10.3764 4.86948C11.1771 4.86948 12.009 4.98755 12.7514 5.19519C14.5632 3.97783 15.3639 4.21533 15.3639 4.21533C15.8687 5.52226 15.5417 6.50212 15.4535 6.73962C16.0777 7.39105 16.4333 8.25283 16.4333 9.29105C16.4333 12.9431 14.2062 13.7452 12.0986 13.9827C12.4243 14.2799 12.7514 14.8431 12.7514 15.7334V18.3473C12.7514 18.6146 12.9292 18.9105 13.4042 18.7924C17.1757 17.4855 19.9062 13.923 19.9062 9.73755C19.9062 4.48269 15.6611 0.237549 10.4062 0.237549Z" fill="#666666"/>
</g>
<defs>
<clipPath id="clip0_45_5448">
<rect width="19" height="19" fill="white" transform="translate(0.90625)"/>
</clipPath>
</defs>
</svg>
