<svg width="125" height="776" viewBox="0 0 125 776" fill="none" xmlns="http://www.w3.org/2000/svg">
<path opacity="0.5" d="M473.134 303.56C474.701 304.311 476.243 305.123 477.759 305.992L477.631 306.465C480.689 308.217 483.638 310.203 486.469 312.397L486.664 311.969C489.553 314.209 492.319 316.665 494.95 319.311L494.693 319.685C497.311 322.318 499.794 325.14 502.13 328.126L502.44 327.812C504.78 330.803 506.974 333.956 509.009 337.245L508.654 337.494C510.655 340.727 512.502 344.093 514.184 347.567L514.574 347.384C516.243 350.831 517.751 354.384 519.086 358.018L518.668 358.136C519.973 361.687 521.113 365.318 522.077 369.004L522.516 368.951C523.468 372.594 524.251 376.29 524.853 380.019L524.4 380.008C524.987 383.643 525.402 387.309 525.636 390.986L526.095 391.059C526.325 394.677 526.38 398.305 526.252 401.924L525.792 401.792C525.668 405.307 525.37 408.815 524.891 412.296L525.346 412.486C525.11 414.203 524.83 415.914 524.504 417.616L523.528 422.728L523.077 422.512L521.124 432.737L521.575 432.953L519.621 443.178L519.171 442.961L517.217 453.186L517.668 453.402L515.715 463.627L515.264 463.41L513.311 473.635L513.762 473.851L511.809 484.076L511.358 483.86L509.405 494.084L509.856 494.3L507.902 504.525L507.452 504.309L505.498 514.533L505.949 514.75L503.996 524.974L503.545 524.758L501.592 534.982L502.043 535.199L500.09 545.423L499.639 545.207L497.686 555.432L498.137 555.648L496.183 565.873L495.733 565.656L493.779 575.881L494.23 576.097L492.277 586.322L491.826 586.105L489.873 596.33L490.324 596.546L488.371 606.771L487.92 606.555L485.967 616.779L486.418 616.995L484.464 627.22L484.014 627.004L482.06 637.228L482.511 637.445L480.558 647.669L480.107 647.453L478.154 657.678L478.605 657.894L477.628 663.006C477.304 664.705 476.959 666.387 476.595 668.054L476.147 667.824C475.415 671.173 474.603 674.454 473.715 677.668L474.157 677.924C473.254 681.188 472.273 684.382 471.217 687.504L470.783 687.222C469.715 690.377 468.57 693.458 467.35 696.464L467.775 696.77C466.538 699.817 465.226 702.787 463.841 705.676L463.427 705.345C462.031 708.257 460.561 711.087 459.021 713.834L459.423 714.189C457.862 716.973 456.229 719.671 454.527 722.282L454.14 721.904C452.425 724.535 450.64 727.077 448.79 729.527L449.162 729.926C447.29 732.405 445.35 734.79 443.347 737.08L442.991 736.66C440.976 738.963 438.896 741.168 436.756 743.274L437.093 743.713C434.926 745.845 432.697 747.876 430.41 749.801L430.093 749.344C427.795 751.279 425.439 753.107 423.029 754.827L423.325 755.301C420.889 757.04 418.397 758.668 415.855 760.182L415.582 759.693C413.027 761.215 410.421 762.622 407.768 763.912L408.016 764.414C405.338 765.716 402.612 766.899 399.843 767.959L399.621 767.445C396.844 768.509 394.023 769.449 391.164 770.263L391.357 770.786C388.474 771.607 385.551 772.3 382.594 772.863L382.43 772.333C379.473 772.895 376.482 773.327 373.46 773.625L373.592 774.16C370.553 774.46 367.484 774.625 364.389 774.652L364.289 774.116C361.206 774.143 358.097 774.033 354.968 773.784L355.033 774.319C351.9 774.069 348.746 773.68 345.576 773.147L345.545 772.616C342.404 772.089 339.246 771.421 336.077 770.61L336.071 771.133C332.914 770.325 329.745 769.374 326.57 768.28L326.611 767.767C323.486 766.689 320.354 765.471 317.221 764.11L317.145 764.61C315.584 763.932 314.024 763.219 312.463 762.47C310.902 761.721 309.354 760.942 307.818 760.135L307.929 759.652C304.846 758.031 301.814 756.292 298.836 754.442L298.691 754.905C295.666 753.024 292.697 751.03 289.786 748.927L289.965 748.487C287.044 746.376 284.183 744.157 281.384 741.834L281.173 742.249C278.349 739.906 275.588 737.458 272.893 734.912L273.135 734.523C270.443 731.98 267.818 729.339 265.262 726.606L264.992 726.966C262.426 724.222 259.93 721.387 257.506 718.467L257.803 718.138C255.393 715.233 253.055 712.244 250.791 709.177L250.47 709.475C248.206 706.407 246.016 703.261 243.905 700.044L244.249 699.778C242.154 696.587 240.136 693.326 238.198 690L237.834 690.233C235.9 686.917 234.046 683.537 232.273 680.099L232.655 679.899C230.899 676.494 229.223 673.032 227.63 669.52L227.232 669.687C225.646 666.193 224.143 662.648 222.724 659.06L223.136 658.926C221.733 655.376 220.412 651.784 219.177 648.154L218.753 648.255C217.524 644.644 216.38 640.995 215.323 637.316L215.757 637.247C214.714 633.614 213.755 629.951 212.884 626.263L212.441 626.3C211.576 622.634 210.796 618.944 210.106 615.235L210.555 615.23C209.873 611.565 209.278 607.882 208.772 604.185L208.317 604.159C207.815 600.491 207.4 596.81 207.076 593.122L207.534 593.179C207.214 589.54 206.981 585.893 206.839 582.243L206.379 582.155C206.238 578.533 206.185 574.909 206.222 571.287L206.683 571.405C206.72 567.832 206.845 564.262 207.061 560.698L206.601 560.551C206.815 557.024 207.116 553.504 207.508 549.995L207.965 550.171C208.35 546.716 208.824 543.272 209.386 539.842L208.933 539.639C209.213 537.933 209.515 536.23 209.84 534.531C210.164 532.833 210.466 531.131 210.746 529.426L211.199 529.628C211.765 526.183 212.24 522.722 212.628 519.251L212.171 519.076C212.562 515.569 212.863 512.052 213.077 508.528L213.536 508.675C213.753 505.094 213.878 501.507 213.916 497.918L213.455 497.8C213.493 494.18 213.44 490.559 213.299 486.94L213.759 487.028C213.616 483.361 213.382 479.697 213.06 476.041L212.602 475.983C212.278 472.298 211.864 468.62 211.362 464.956L211.817 464.983C211.309 461.269 210.71 457.568 210.025 453.886L209.575 453.891C208.886 450.186 208.107 446.5 207.242 442.839L207.685 442.802C206.81 439.097 205.847 435.416 204.798 431.766L204.364 431.835C203.308 428.161 202.165 424.517 200.938 420.91L201.362 420.808C200.122 417.161 198.795 413.552 197.385 409.986L196.973 410.12C195.556 406.537 194.055 402.998 192.472 399.508L192.87 399.341C191.27 395.813 189.586 392.335 187.821 388.914L187.439 389.114C185.669 385.682 183.818 382.309 181.889 378.998L182.253 378.765C180.305 375.424 178.278 372.147 176.173 368.941L175.829 369.207C173.722 365.996 171.537 362.857 169.278 359.796L169.6 359.498C167.326 356.417 164.976 353.414 162.555 350.496L162.258 350.825C159.84 347.911 157.35 345.083 154.791 342.347L155.061 341.987C152.493 339.242 149.855 336.588 147.151 334.033L146.91 334.421C144.222 331.882 141.469 329.441 138.653 327.104L138.864 326.688C136.052 324.355 133.177 322.125 130.242 320.004L130.064 320.445C127.162 318.348 124.201 316.359 121.184 314.484L121.329 314.021C118.338 312.162 115.292 310.415 112.194 308.786L112.083 309.268C110.551 308.463 109.007 307.687 107.451 306.94C105.89 306.191 104.342 305.413 102.806 304.605L102.917 304.123C99.8336 302.501 96.8018 300.762 93.8245 298.912L93.6793 299.375C90.6539 297.495 87.6846 295.5 84.7742 293.397L84.9529 292.957C82.0321 290.847 79.1708 288.627 76.3718 286.304L76.161 286.719C73.3368 284.376 70.576 281.928 67.8815 279.382L68.123 278.993C65.4315 276.45 62.8063 273.809 60.2504 271.076L59.9801 271.436C57.4143 268.692 54.9181 265.857 52.4944 262.937L52.7915 262.608C50.3813 259.704 48.0429 256.715 45.7794 253.647L45.4578 253.945C43.1938 250.877 41.0045 247.731 38.8927 244.514L39.2367 244.249C37.1423 241.058 35.1243 237.796 33.1857 234.47L32.8216 234.703C30.8884 231.387 29.0339 228.007 27.261 224.569L27.6431 224.369C25.8869 220.964 24.2108 217.503 22.6177 213.991L22.2195 214.158C20.6342 210.663 19.1308 207.118 17.712 203.53L18.1241 203.396C16.7206 199.846 15.4001 196.254 14.1652 192.624L13.7411 192.726C12.5123 189.114 11.368 185.465 10.3109 181.786L10.7453 181.717C9.70152 178.084 8.74296 174.421 7.87203 170.733L7.4293 170.77C6.56362 167.104 5.78429 163.414 5.0938 159.705L5.5433 159.7C4.86102 156.036 4.26561 152.352 3.75955 148.656L3.30496 148.629C2.80286 144.961 2.38839 141.281 2.06386 137.592L2.52196 137.65C2.2018 134.01 1.9694 130.363 1.827 126.713L1.36695 126.625C1.22567 123.004 1.17274 119.379 1.21027 115.757L1.67069 115.875C1.70769 112.302 1.833 108.732 2.04863 105.168L1.58922 105.021C1.80255 101.495 2.10405 97.9747 2.49571 94.4656L2.9527 94.641C3.3383 91.1862 3.81154 87.7418 4.37436 84.3122L3.92117 84.1094C4.20121 82.4028 4.50339 80.6999 4.8279 79.0011C5.15241 77.3023 5.49696 75.6198 5.8612 73.9536L6.30929 74.1831C7.04126 70.8347 7.85294 67.5527 8.74118 64.339L8.29954 64.0833C9.20176 60.8191 10.1828 57.6253 11.2394 54.5036L11.6731 54.785C12.741 51.6299 13.8864 48.5487 15.1058 45.5436L14.6815 45.237C15.918 42.1899 17.2305 39.2206 18.6155 36.3314L19.029 36.6624C20.4249 33.7505 21.8947 30.9201 23.4348 28.1733L23.0335 27.8186C24.5945 25.0345 26.2276 22.3361 27.929 19.7255L28.3166 20.103C30.0314 17.4718 31.8158 14.9303 33.6661 12.4806L33.2938 12.0815C35.1664 9.60228 37.1064 7.21685 39.1096 4.92758L39.4651 5.3473C41.4805 3.04416 43.5601 0.838595 45.7001 -1.26684L45.3628 -1.70595C47.5301 -3.83836 49.7591 -5.86851 52.0457 -7.79383L52.3631 -7.33659C54.6608 -9.2714 57.0169 -11.1 59.427 -12.8198L59.131 -13.2938C61.5675 -15.0325 64.059 -16.6604 66.6013 -18.175L66.8741 -17.686C69.4289 -19.208 72.035 -20.6152 74.688 -21.9048L74.4401 -22.4072C77.1183 -23.7091 79.8444 -24.8915 82.6136 -25.952L82.8351 -25.4381C85.6121 -26.5015 88.4327 -27.4416 91.2923 -28.2558L91.099 -28.779C93.9821 -29.5999 96.9048 -30.2932 99.8624 -30.856L100.026 -30.3256C102.983 -30.8883 105.975 -31.3201 108.996 -31.6182L108.864 -32.153C111.903 -32.4528 114.973 -32.6178 118.068 -32.6452L118.167 -32.1086C121.25 -32.1359 124.359 -32.0262 127.488 -31.7766L127.423 -32.3119C130.556 -32.062 133.71 -31.6724 136.881 -31.1402L136.911 -30.6092C140.053 -30.0817 143.21 -29.4137 146.379 -28.6024L146.385 -29.1259C149.542 -28.3174 152.711 -27.3672 155.887 -26.2724L155.845 -25.7596C158.97 -24.6823 162.102 -23.4643 165.235 -22.1033L165.311 -22.6023C166.872 -21.9246 168.433 -21.2115 169.993 -20.4626L174.553 -18.275L174.46 -17.7839L183.579 -13.4085L183.673 -13.8996L192.793 -9.52431L192.699 -9.03319L201.819 -4.65786L201.913 -5.14898L211.032 -0.773635L210.939 -0.282515L220.058 4.09282L220.152 3.6017L229.272 7.97703L229.178 8.46815L238.298 12.8435L238.392 12.3524L247.512 16.7277L247.418 17.2188L256.537 21.5942L256.631 21.103L265.751 25.4784L265.657 25.9695L274.777 30.3448L274.871 29.8537L283.991 34.229L283.897 34.7202L293.017 39.0955L293.11 38.6044L302.23 42.9797L302.136 43.4708L311.256 47.8461L311.35 47.355L320.47 51.7304L320.376 52.2215L329.496 56.5968L329.589 56.1057L338.709 60.481L338.615 60.9722L347.735 65.3475L347.829 64.8564L356.949 69.2317L356.855 69.7228L365.975 74.0981L366.069 73.607L370.628 75.7947C372.195 76.5465 373.737 77.3581 375.253 78.2267L375.125 78.6997C378.183 80.4522 381.132 82.438 383.963 84.6322L384.158 84.204C387.047 86.4445 389.813 88.9005 392.444 91.5458L392.187 91.9198C394.805 94.5529 397.288 97.3752 399.624 100.361L399.934 100.047C402.274 103.038 404.468 106.191 406.503 109.48L406.148 109.729C408.149 112.962 409.996 116.328 411.678 119.802L412.068 119.619C413.737 123.066 415.245 126.619 416.58 130.253L416.162 130.371C417.467 133.923 418.607 137.553 419.571 141.239L420.01 141.186C420.962 144.829 421.745 148.525 422.347 152.254L421.894 152.243C422.481 155.878 422.896 159.544 423.13 163.221L423.589 163.294C423.819 166.912 423.874 170.54 423.746 174.16L423.286 174.027C423.162 177.542 422.864 181.05 422.385 184.532L422.84 184.721C422.604 186.438 422.324 188.149 421.998 189.851C421.674 191.552 421.394 193.261 421.157 194.976L420.702 194.786C420.218 198.301 419.918 201.841 419.792 205.39L420.253 205.522C420.125 209.136 420.18 212.758 420.41 216.37L419.95 216.297C420.186 220.009 420.605 223.709 421.197 227.379L421.65 227.39C422.251 231.111 423.031 234.799 423.982 238.433L423.543 238.486C424.516 242.207 425.667 245.872 426.984 249.457L427.402 249.339C428.734 252.963 430.237 256.505 431.901 259.941L431.51 260.125C433.208 263.632 435.072 267.029 437.092 270.293L437.446 270.043C439.473 273.319 441.657 276.459 443.987 279.436L443.677 279.749C446.035 282.763 448.541 285.612 451.184 288.27L451.44 287.896C454.057 290.527 456.808 292.97 459.681 295.198L459.486 295.626C462.343 297.841 465.32 299.845 468.407 301.614L468.536 301.141C470.043 302.005 471.576 302.812 473.134 303.56Z" stroke="#00ED64" stroke-dasharray="10 10"/>
</svg>
