<svg width="163" height="163" viewBox="0 0 163 163" fill="none" xmlns="http://www.w3.org/2000/svg">
<g clip-path="url(#clip0_40_2)">
<path d="M81.5757 127.323C80.8734 127.323 80.2905 126.754 80.2905 126.05C80.2905 125.347 80.8473 124.777 81.5509 124.777H81.5757C81.7429 124.777 81.9085 124.81 82.0629 124.874C82.2174 124.938 82.3577 125.031 82.4759 125.15C82.5941 125.268 82.6879 125.408 82.7518 125.563C82.8158 125.717 82.8486 125.883 82.8485 126.05C82.8487 126.217 82.8158 126.383 82.7519 126.537C82.688 126.692 82.5942 126.832 82.476 126.95C82.3578 127.068 82.2174 127.162 82.063 127.226C81.9085 127.29 81.7429 127.323 81.5757 127.323ZM34.4041 122.761C34.1869 122.76 33.9732 122.705 33.7834 122.599C33.5936 122.494 33.4338 122.341 33.3191 122.157C33.1423 121.869 33.0867 121.523 33.1645 121.195C33.2423 120.866 33.4472 120.582 33.7343 120.404C35.144 119.536 36.9106 118.716 39.2906 117.826C43.195 116.367 51.8664 112.968 56.7501 110.549C57.3827 110.234 58.1423 110.497 58.4568 111.124C58.6066 111.426 58.6302 111.776 58.5223 112.097C58.4144 112.417 58.1838 112.681 57.8812 112.832C52.904 115.295 44.1271 118.736 40.1817 120.208C37.9602 121.041 36.3356 121.792 35.0717 122.572C34.8706 122.695 34.6397 122.76 34.4041 122.761ZM128.601 122.766C128.365 122.766 128.134 122.699 127.934 122.574C126.671 121.794 125.045 121.043 122.815 120.207C118.878 118.738 110.112 115.302 105.12 112.831C104.817 112.681 104.587 112.417 104.479 112.098C104.371 111.778 104.394 111.429 104.543 111.126C104.617 110.976 104.72 110.842 104.845 110.732C104.971 110.621 105.117 110.537 105.276 110.484C105.434 110.43 105.602 110.408 105.769 110.419C105.935 110.431 106.098 110.475 106.248 110.549C111.148 112.976 119.81 116.369 123.705 117.825C126.097 118.716 127.864 119.538 129.271 120.411C129.414 120.499 129.537 120.613 129.635 120.749C129.733 120.884 129.803 121.038 129.841 121.2C129.88 121.363 129.885 121.532 129.858 121.696C129.831 121.861 129.772 122.019 129.684 122.161C129.571 122.347 129.411 122.5 129.222 122.605C129.032 122.711 128.818 122.767 128.601 122.766ZM81.5 114.594C69.5125 114.594 49.6787 96.1225 49.6787 75.0761C49.6787 74.3725 50.2479 73.803 50.9515 73.803C51.6551 73.803 52.2243 74.3725 52.2243 75.0761C52.2243 94.1391 70.4879 112.048 81.5 112.048C92.5133 112.048 110.776 94.1391 110.776 75.0761C110.776 74.3725 111.345 73.803 112.048 73.803C112.752 73.803 113.321 74.3725 113.321 75.0761C113.321 96.1228 93.4875 114.594 81.5 114.594Z" fill="#00ED64"/>
<path d="M50.9515 73.8628C50.6346 73.8626 50.3291 73.7443 50.0948 73.5311C49.8604 73.3178 49.7138 73.0249 49.6838 72.7094C48.5749 60.8645 51.1469 51.4163 57.3282 44.6282C66.5068 34.5499 81.5659 32.4341 92.583 32.4341C98.8127 32.4341 103.159 33.1176 103.34 33.1475C103.614 33.1909 103.866 33.323 104.058 33.5235C104.25 33.7241 104.37 33.982 104.401 34.2576C104.434 34.533 104.376 34.8115 104.235 35.0505C104.095 35.2896 103.88 35.4762 103.624 35.5817C97.8783 37.9446 98.4972 43.5681 98.9995 45.7966C101.337 45.7046 106.202 46.2455 109.806 50.4554C113.724 55.0322 114.903 62.5452 113.307 72.7865C113.268 73.0373 113.155 73.2708 112.982 73.4567C112.809 73.6426 112.585 73.7723 112.337 73.8291C112.09 73.8873 111.83 73.8698 111.592 73.7789C111.355 73.6881 111.15 73.528 111.004 73.3194L102.701 61.4573C99.7798 62.7292 90.8922 66.2257 81.4328 66.2257C71.9883 66.2257 63.2 62.739 60.295 61.4611L51.9941 73.3197C51.8768 73.4874 51.7207 73.6243 51.5392 73.7189C51.3577 73.8134 51.1561 73.8628 50.9515 73.8628ZM103.139 58.5886C103.542 58.5886 103.937 58.7812 104.183 59.1317L111.208 69.1702C112.004 61.3593 110.885 55.6301 107.872 52.1109C105.063 48.8293 101.274 48.3396 99.2679 48.3396C98.6538 48.3396 98.266 48.388 98.2266 48.3931C97.6395 48.4689 97.0454 48.1244 96.8442 47.5504C95.815 44.5846 95.3626 38.899 99.365 35.2618C97.5946 35.1124 95.2582 34.9797 92.583 34.9797C82.0794 34.9797 67.7634 36.951 59.2103 46.3422C54.1586 51.89 51.7397 59.4574 51.9982 68.8745L58.8188 59.1317C58.992 58.8826 59.2488 58.7038 59.5425 58.6279C59.8363 58.5519 60.1476 58.5839 60.4198 58.7178C60.5217 58.7675 70.7184 63.6798 81.4331 63.6798C92.1752 63.6798 102.482 58.7649 102.587 58.7153C102.759 58.6315 102.947 58.5882 103.139 58.5886ZM59.8614 109.503C59.6942 109.503 59.5286 109.47 59.3742 109.406C59.2197 109.342 59.0793 109.249 58.9611 109.13C58.8429 109.012 58.7491 108.872 58.6852 108.717C58.6213 108.563 58.5885 108.397 58.5886 108.23V105.684C58.5886 104.981 59.1578 104.411 59.8614 104.411C60.565 104.411 61.1342 104.981 61.1342 105.684V108.23C61.1343 108.397 61.1015 108.563 61.0376 108.717C60.9736 108.872 60.8799 109.012 60.7617 109.13C60.6435 109.249 60.5031 109.342 60.3486 109.406C60.1941 109.47 60.0286 109.503 59.8614 109.503Z" fill="#00ED64"/>
<path d="M70.0458 122.231C69.8547 122.231 69.666 122.189 69.4936 122.106C69.3212 122.023 69.1696 121.903 69.05 121.754L58.8672 109.026C58.6567 108.762 58.5594 108.425 58.5967 108.09C58.634 107.754 58.8028 107.447 59.0662 107.236C59.3303 107.026 59.6669 106.929 60.0023 106.966C60.3377 107.003 60.6448 107.172 60.8563 107.435L71.0391 120.163C71.2497 120.427 71.347 120.763 71.3097 121.099C71.2724 121.435 71.1035 121.742 70.8401 121.953C70.615 122.134 70.3346 122.232 70.0458 122.231Z" fill="#00ED64"/>
<path d="M70.0457 122.231C69.8091 122.231 69.5772 122.165 69.3759 122.041C69.1746 121.917 69.0118 121.739 68.9057 121.528C68.8308 121.378 68.7862 121.215 68.7743 121.049C68.7625 120.882 68.7836 120.714 68.8365 120.556C68.8894 120.397 68.973 120.251 69.0826 120.124C69.1922 119.998 69.3256 119.895 69.4752 119.82L79.6579 114.728C79.9599 114.578 80.3093 114.553 80.6295 114.66C80.9497 114.767 81.2144 114.996 81.3656 115.298C81.4405 115.447 81.4851 115.61 81.497 115.777C81.5089 115.944 81.4878 116.111 81.435 116.27C81.3821 116.428 81.2985 116.575 81.1889 116.701C81.0793 116.827 80.946 116.931 80.7964 117.006L70.6137 122.097C70.4371 122.185 70.2428 122.23 70.0457 122.231ZM103.139 109.503C102.971 109.503 102.806 109.47 102.651 109.406C102.497 109.342 102.356 109.249 102.238 109.13C102.12 109.012 102.026 108.872 101.962 108.717C101.898 108.563 101.866 108.397 101.866 108.23V105.684C101.866 104.981 102.435 104.411 103.139 104.411C103.842 104.411 104.411 104.981 104.411 105.684V108.23C104.411 108.397 104.379 108.563 104.315 108.717C104.251 108.872 104.157 109.012 104.039 109.13C103.921 109.249 103.78 109.342 103.626 109.406C103.471 109.47 103.306 109.503 103.139 109.503Z" fill="#00ED64"/>
<path d="M92.9555 122.231C92.6662 122.232 92.3854 122.134 92.1599 121.953C91.897 121.741 91.7285 121.434 91.6913 121.099C91.654 120.763 91.7511 120.427 91.9613 120.163L102.144 107.434C102.584 106.89 103.387 106.798 103.934 107.235C104.197 107.447 104.365 107.754 104.402 108.09C104.44 108.425 104.343 108.761 104.133 109.026L93.9501 121.754C93.8305 121.903 93.6791 122.023 93.507 122.106C93.3349 122.188 93.1464 122.231 92.9555 122.231Z" fill="#00ED64"/>
<path d="M92.9556 122.231C92.758 122.231 92.5632 122.185 92.3863 122.097L82.2036 117.006C82.054 116.931 81.9206 116.827 81.8111 116.701C81.7015 116.575 81.6179 116.428 81.565 116.27C81.5122 116.111 81.4911 115.943 81.503 115.777C81.5149 115.61 81.5595 115.447 81.6344 115.298C81.7855 114.996 82.0502 114.766 82.3704 114.66C82.6906 114.553 83.0401 114.578 83.3421 114.728L93.5248 119.82C94.1542 120.133 94.4073 120.899 94.0943 121.528C93.9885 121.739 93.826 121.917 93.6248 122.041C93.4237 122.165 93.192 122.231 92.9556 122.231Z" fill="#00ED64"/>
<path d="M87.8643 149.938C87.547 149.938 87.2411 149.82 87.0065 149.606C86.772 149.392 86.6257 149.098 86.5963 148.782C86.5658 148.447 86.6695 148.112 86.8848 147.853C87.1 147.593 87.4093 147.43 87.7449 147.398C119.35 144.442 144.436 119.352 147.398 87.745C147.465 87.0439 148.086 86.5269 148.782 86.5963C148.949 86.6118 149.111 86.66 149.259 86.7381C149.407 86.8162 149.538 86.9227 149.645 87.0515C149.752 87.1803 149.832 87.3289 149.882 87.4888C149.931 87.6487 149.949 87.8168 149.933 87.9834C146.858 120.809 120.804 146.863 87.9834 149.933C87.9436 149.936 87.9038 149.938 87.8643 149.938Z" fill="#00ED64"/>
<path d="M148.653 76.2668C148.337 76.2666 148.031 76.1487 147.797 75.9359C147.563 75.7231 147.416 75.4307 147.385 75.1156C144.368 43.584 119.288 18.5556 87.7453 15.6022C87.5788 15.5866 87.4171 15.5384 87.2693 15.4603C87.1215 15.3822 86.9905 15.2757 86.8838 15.147C86.7772 15.0183 86.6969 14.8698 86.6476 14.7101C86.5983 14.5503 86.581 14.3825 86.5966 14.216C86.6613 13.515 87.2907 12.9903 87.9837 13.0664C120.74 16.1341 146.786 42.1269 149.921 74.8721C149.938 75.0487 149.917 75.2268 149.861 75.3951C149.805 75.5633 149.714 75.718 149.595 75.8493C149.476 75.9805 149.33 76.0855 149.168 76.1573C149.006 76.2292 148.831 76.2665 148.653 76.2668Z" fill="#00ED64"/>
<path d="M14.3369 76.411C14.1597 76.4112 13.9844 76.3743 13.8222 76.3028C13.66 76.2313 13.5145 76.1267 13.3951 75.9958C13.2756 75.8648 13.1849 75.7104 13.1285 75.5423C13.0722 75.3743 13.0516 75.1963 13.068 75.0198C16.1404 42.1954 42.1931 16.1402 75.0162 13.0664C75.716 12.9932 76.3365 13.515 76.4024 14.216C76.4335 14.5523 76.3298 14.8871 76.1142 15.147C75.8986 15.4069 75.5887 15.5706 75.2525 15.6022C43.6477 18.5619 18.5609 43.6499 15.6037 75.256C15.5741 75.5716 15.4279 75.8649 15.1936 76.0784C14.9594 76.292 14.6539 76.4106 14.3369 76.411Z" fill="#00ED64"/>
<path d="M75.1356 149.938C75.0958 149.938 75.056 149.936 75.0162 149.933C42.1943 146.863 16.1417 120.81 13.068 87.9835C13.0523 87.8169 13.0696 87.6489 13.1189 87.489C13.1683 87.3291 13.2486 87.1806 13.3553 87.0517C13.4621 86.9229 13.5932 86.8164 13.7411 86.7383C13.8891 86.6601 14.051 86.6119 14.2176 86.5964C14.8988 86.5295 15.5375 87.0466 15.6037 87.745C18.5622 119.352 43.6489 144.442 75.2525 147.398C75.5884 147.429 75.898 147.593 76.1135 147.852C76.3291 148.112 76.4329 148.446 76.4024 148.782C76.373 149.098 76.227 149.392 75.9927 149.606C75.7584 149.819 75.4528 149.938 75.1356 149.938Z" fill="#00ED64"/>
<path d="M156.33 76.4084C156.011 76.408 155.704 76.2879 155.47 76.0719C155.236 75.8559 155.091 75.5598 155.065 75.2422C152.047 39.2606 123.74 10.9543 87.7574 7.93502C87.5909 7.92102 87.4287 7.87435 87.2803 7.79768C87.1318 7.72102 86.9999 7.61585 86.8921 7.4882C86.7842 7.36054 86.7026 7.21289 86.6519 7.05369C86.6011 6.89449 86.5823 6.72685 86.5963 6.56034C86.6102 6.39382 86.6568 6.23167 86.7335 6.08318C86.8101 5.93469 86.9153 5.80276 87.043 5.69495C87.1707 5.58714 87.3183 5.50557 87.4776 5.45489C87.6368 5.40421 87.8045 5.38542 87.971 5.39961C125.195 8.52207 154.48 37.8051 157.6 75.0286C157.616 75.2044 157.594 75.3814 157.537 75.5484C157.48 75.7154 157.389 75.8687 157.269 75.9985C157.15 76.1283 157.005 76.2318 156.843 76.3024C156.681 76.3729 156.507 76.409 156.33 76.4084Z" fill="#00ED64"/>
<path d="M75.1383 157.603C75.1023 157.603 75.0673 157.603 75.03 157.598C37.8065 154.475 8.52219 125.195 5.40099 87.9709C5.38694 87.8044 5.40582 87.6368 5.45654 87.4776C5.50727 87.3184 5.58886 87.1708 5.69664 87.0431C5.80443 86.9155 5.9363 86.8103 6.08474 86.7336C6.23317 86.6569 6.39525 86.6102 6.56173 86.5962C7.29141 86.5316 7.87942 87.0588 7.93641 87.7572C10.9545 123.738 39.2607 152.044 75.2436 155.062C75.5799 155.09 75.8911 155.251 76.1088 155.509C76.3266 155.767 76.433 156.1 76.4047 156.437C76.3783 156.754 76.2335 157.051 75.9989 157.267C75.7643 157.483 75.4571 157.603 75.1383 157.603Z" fill="#00ED64"/>
<path d="M161.69 82.7729H136.233C135.529 82.7729 134.96 82.2037 134.96 81.5001C134.96 80.7965 135.529 80.2273 136.233 80.2273H161.69C162.394 80.2273 162.963 80.7965 162.963 81.5001C162.963 82.2037 162.394 82.7729 161.69 82.7729Z" fill="#00ED64"/>
<path d="M26.7673 82.7729H1.31003C0.606458 82.7729 0.0372314 82.2037 0.0372314 81.5001C0.0372314 80.7965 0.606458 80.2273 1.31003 80.2273H26.767C27.4706 80.2273 28.0401 80.7965 28.0401 81.5001C28.0401 82.2037 27.4709 82.7729 26.7673 82.7729Z" fill="#00ED64"/>
<path d="M81.5 162.963C81.3328 162.963 81.1672 162.93 81.0127 162.866C80.8583 162.802 80.7179 162.709 80.5997 162.59C80.4815 162.472 80.3877 162.332 80.3238 162.177C80.2599 162.023 80.227 161.857 80.2272 161.69V136.233C80.2272 135.529 80.7964 134.96 81.5 134.96C82.2035 134.96 82.7728 135.529 82.7728 136.233V161.69C82.7729 161.857 82.7401 162.023 82.6761 162.177C82.6122 162.332 82.5185 162.472 82.4003 162.59C82.282 162.709 82.1417 162.802 81.9872 162.866C81.8327 162.93 81.6672 162.963 81.5 162.963Z" fill="#00ED64"/>
<path d="M81.5 28.0402C81.3328 28.0403 81.1672 28.0075 81.0127 27.9435C80.8582 27.8795 80.7179 27.7858 80.5997 27.6675C80.4815 27.5493 80.3877 27.4089 80.3238 27.2544C80.2599 27.0999 80.227 26.9343 80.2272 26.7671V1.31015C80.2272 0.60658 80.7964 0.0373535 81.5 0.0373535C82.2035 0.0373535 82.7728 0.60658 82.7728 1.31015V26.7671C82.7729 26.9343 82.7401 27.0999 82.6761 27.2544C82.6122 27.4089 82.5185 27.5493 82.4003 27.6675C82.2821 27.7858 82.1417 27.8795 81.9872 27.9435C81.8327 28.0075 81.6672 28.0403 81.5 28.0402Z" fill="#00ED64"/>
</g>
<defs>
<clipPath id="clip0_40_2">
<rect width="163" height="163" fill="white"/>
</clipPath>
</defs>
</svg>
