<svg width="20" height="20" viewBox="0 0 20 20" fill="none" xmlns="http://www.w3.org/2000/svg">
<path fill-rule="evenodd" clip-rule="evenodd" d="M8.299 14.956L7.498 15.752C6.803 16.441 5.673 16.441 4.978 15.752C4.644 15.421 4.46 14.981 4.46 14.513C4.46 14.045 4.644 13.605 4.978 13.274L7.928 10.347C8.539 9.741 9.69 8.848 10.529 9.679C10.914 10.061 11.535 10.059 11.917 9.674C12.299 9.289 12.297 8.668 11.912 8.286C10.486 6.872 8.381 7.133 6.546 8.953L3.596 11.881C2.888 12.584 2.498 13.519 2.498 14.513C2.498 15.507 2.888 16.442 3.596 17.145C4.325 17.868 5.282 18.229 6.239 18.229C7.196 18.229 8.153 17.868 8.882 17.144L9.684 16.348C10.069 15.966 10.071 15.345 9.689 14.96C9.307 14.575 8.684 14.574 8.299 14.956V14.956ZM17.241 3.584C15.711 2.065 13.57 1.983 12.153 3.389L11.154 4.381C10.769 4.763 10.766 5.384 11.148 5.769C11.531 6.154 12.152 6.156 12.537 5.774L13.536 4.783C14.269 4.054 15.231 4.356 15.858 4.978C16.192 5.31 16.376 5.75 16.376 6.217C16.376 6.685 16.192 7.125 15.858 7.456L12.711 10.579C11.272 12.007 10.596 11.337 10.308 11.051C9.923 10.669 9.302 10.672 8.92 11.056C8.537 11.44 8.54 12.062 8.925 12.444C9.586 13.099 10.34 13.424 11.131 13.424C12.099 13.424 13.121 12.937 14.094 11.971L17.241 8.848C17.949 8.145 18.34 7.21 18.34 6.215C18.34 5.223 17.949 4.288 17.241 3.584V3.584Z" fill="#00ED64"/>
<mask id="mask0_6_31" style="mask-type:luminance" maskUnits="userSpaceOnUse" x="2" y="2" width="17" height="17">
<path fill-rule="evenodd" clip-rule="evenodd" d="M8.299 14.956L7.498 15.752C6.803 16.441 5.673 16.441 4.978 15.752C4.644 15.421 4.46 14.981 4.46 14.513C4.46 14.045 4.644 13.605 4.978 13.274L7.928 10.347C8.539 9.741 9.69 8.848 10.529 9.679C10.914 10.061 11.535 10.059 11.917 9.674C12.299 9.289 12.297 8.668 11.912 8.286C10.486 6.872 8.381 7.133 6.546 8.953L3.596 11.881C2.888 12.584 2.498 13.519 2.498 14.513C2.498 15.507 2.888 16.442 3.596 17.145C4.325 17.868 5.282 18.229 6.239 18.229C7.196 18.229 8.153 17.868 8.882 17.144L9.684 16.348C10.069 15.966 10.071 15.345 9.689 14.96C9.307 14.575 8.684 14.574 8.299 14.956V14.956ZM17.241 3.584C15.711 2.065 13.57 1.983 12.153 3.389L11.154 4.381C10.769 4.763 10.766 5.384 11.148 5.769C11.531 6.154 12.152 6.156 12.537 5.774L13.536 4.783C14.269 4.054 15.231 4.356 15.858 4.978C16.192 5.31 16.376 5.75 16.376 6.217C16.376 6.685 16.192 7.125 15.858 7.456L12.711 10.579C11.272 12.007 10.596 11.337 10.308 11.051C9.923 10.669 9.302 10.672 8.92 11.056C8.537 11.44 8.54 12.062 8.925 12.444C9.586 13.099 10.34 13.424 11.131 13.424C12.099 13.424 13.121 12.937 14.094 11.971L17.241 8.848C17.949 8.145 18.34 7.21 18.34 6.215C18.34 5.223 17.949 4.288 17.241 3.584V3.584Z" fill="white"/>
</mask>
<g mask="url(#mask0_6_31)">
<rect width="20" height="20" fill="#00ED64"/>
</g>
</svg>
