<svg width="20" height="20" viewBox="0 0 20 20" fill="none" xmlns="http://www.w3.org/2000/svg">
<path fill-rule="evenodd" clip-rule="evenodd" d="M5.32481 3.47406C5.32481 4.48435 4.5627 5.30179 3.3082 5.30179C2.12825 5.30179 1.36711 4.48339 1.36711 3.47406C1.36711 2.44075 2.15375 1.64729 3.35822 1.64729C4.5627 1.64729 5.30029 2.43979 5.32481 3.47406V3.47406ZM1.46477 18.5056V6.74483H5.20276V18.5056H1.46477V18.5056Z" fill="#00ED64"/>
<path fill-rule="evenodd" clip-rule="evenodd" d="M7.43785 10.4975C7.43785 9.0305 7.38881 7.80338 7.33977 6.74512H10.5844L10.757 8.38096H10.8306C11.322 7.61054 12.5274 6.48128 14.5431 6.48128C17.0021 6.48128 18.846 8.09313 18.846 11.5557V18.5059H15.109V11.9884C15.109 10.4735 14.5676 9.43922 13.216 9.43922C12.1832 9.43922 11.5692 10.1367 11.2984 10.8112C11.1994 11.0511 11.1758 11.3888 11.1758 11.7246V18.5059H7.43883V10.4975H7.43785Z" fill="#00ED64"/>
</svg>
