<svg width="20" height="20" viewBox="0 0 20 20" fill="none" xmlns="http://www.w3.org/2000/svg">
<path fill-rule="evenodd" clip-rule="evenodd" d="M18.694 4.519C18.023 4.816 17.303 5.017 16.547 5.108C17.319 4.645 17.912 3.913 18.191 3.04C17.468 3.469 16.669 3.779 15.817 3.947C15.135 3.22 14.164 2.767 13.088 2.767C11.024 2.767 9.351 4.44 9.351 6.504C9.351 6.797 9.384 7.082 9.448 7.356C6.342 7.2 3.587 5.712 1.744 3.451C1.423 4.003 1.238 4.645 1.238 5.33C1.238 6.627 1.898 7.77 2.901 8.441C2.289 8.421 1.712 8.253 1.208 7.973C1.208 7.989 1.208 8.004 1.208 8.02C1.208 9.832 2.497 11.341 4.206 11.685C3.893 11.771 3.562 11.816 3.222 11.816C2.981 11.816 2.747 11.793 2.519 11.75C2.995 13.234 4.375 14.315 6.011 14.346C4.732 15.348 3.12 15.946 1.369 15.946C1.067 15.946 0.769999 15.928 0.476999 15.893C2.131 16.954 4.095 17.573 6.206 17.573C13.081 17.573 16.84 11.878 16.84 6.938C16.84 6.777 16.837 6.616 16.829 6.455C17.56 5.927 18.193 5.269 18.694 4.519V4.519Z" fill="#00ED64"/>
<mask id="mask0_6_30" style="mask-type:luminance" maskUnits="userSpaceOnUse" x="0" y="2" width="19" height="16">
<path fill-rule="evenodd" clip-rule="evenodd" d="M18.694 4.519C18.023 4.816 17.303 5.017 16.547 5.108C17.319 4.645 17.912 3.913 18.191 3.04C17.468 3.469 16.669 3.779 15.817 3.947C15.135 3.22 14.164 2.767 13.088 2.767C11.024 2.767 9.351 4.44 9.351 6.504C9.351 6.797 9.384 7.082 9.448 7.356C6.342 7.2 3.587 5.712 1.744 3.451C1.423 4.003 1.238 4.645 1.238 5.33C1.238 6.627 1.898 7.77 2.901 8.441C2.289 8.421 1.712 8.253 1.208 7.973C1.208 7.989 1.208 8.004 1.208 8.02C1.208 9.832 2.497 11.341 4.206 11.685C3.893 11.771 3.562 11.816 3.222 11.816C2.981 11.816 2.747 11.793 2.519 11.75C2.995 13.234 4.375 14.315 6.011 14.346C4.732 15.348 3.12 15.946 1.369 15.946C1.067 15.946 0.769999 15.928 0.476999 15.893C2.131 16.954 4.095 17.573 6.206 17.573C13.081 17.573 16.84 11.878 16.84 6.938C16.84 6.777 16.837 6.616 16.829 6.455C17.56 5.927 18.193 5.269 18.694 4.519V4.519Z" fill="white"/>
</mask>
<g mask="url(#mask0_6_30)">
<rect width="20" height="20" fill="#00ED64"/>
</g>
</svg>
