<?xml version="1.0" encoding="utf-8"?><svg xmlns="http://www.w3.org/2000/svg" xmlns:xlink="http://www.w3.org/1999/xlink"><symbol fill="none" viewBox="0 0 24 24" id="arrow-right-white" xmlns="http://www.w3.org/2000/svg"><mask id="aa" style="mask-type:alpha" maskUnits="userSpaceOnUse" x="0" y="0" width="24" height="24"><path fill="#D9D9D9" d="M0 0h24v24H0z"/></mask><g mask="url(#aa)"><path d="m14 18-1.4-1.45L16.15 13H4v-2h12.15L12.6 7.45 14 6l6 6-6 6Z" fill="#fff"/></g></symbol><symbol fill="none" viewBox="0 0 30 30" id="contact-form-featured-icon" xmlns="http://www.w3.org/2000/svg"><mask id="ba" style="mask-type:alpha" maskUnits="userSpaceOnUse" x="0" y="0" width="30" height="30"><path fill="#D9D9D9" d="M0 0h30v30H0z"/></mask><g mask="url(#ba)"><path d="M13.75 26.25v-2.5h10v-8.875c0-1.208-.23-2.344-.688-3.406a8.846 8.846 0 0 0-1.875-2.781 8.846 8.846 0 0 0-2.78-1.876A8.507 8.507 0 0 0 15 6.125c-1.208 0-2.344.23-3.406.688a8.846 8.846 0 0 0-2.781 1.875 8.847 8.847 0 0 0-1.876 2.78 8.507 8.507 0 0 0-.687 3.407V22.5H5a2.407 2.407 0 0 1-1.765-.734A2.408 2.408 0 0 1 2.5 20v-2.5c0-.48.115-.901.344-1.266.229-.364.531-.661.906-.89l.094-1.656c.187-1.521.62-2.896 1.297-4.126.677-1.229 1.52-2.27 2.532-3.124a11.375 11.375 0 0 1 3.406-1.986A11.166 11.166 0 0 1 15 3.75c1.375 0 2.693.234 3.954.702 1.26.47 2.39 1.136 3.39 2 1 .865 1.838 1.907 2.516 3.126.677 1.219 1.109 2.578 1.296 4.078l.094 1.625c.375.188.677.464.906.828.23.365.344.766.344 1.203v2.875c0 .459-.115.865-.344 1.22-.229.353-.531.624-.906.812v1.531a2.41 2.41 0 0 1-.734 1.766 2.41 2.41 0 0 1-1.766.734h-10Zm-2.5-8.75c-.354 0-.65-.12-.89-.36s-.36-.536-.36-.89.12-.651.36-.891.536-.359.89-.359.651.12.891.359c.24.24.359.537.359.891s-.12.65-.359.89c-.24.24-.537.36-.891.36Zm7.5 0c-.354 0-.65-.12-.89-.36s-.36-.536-.36-.89.12-.651.36-.891.536-.359.89-.359.651.12.891.359c.24.24.359.537.359.891s-.12.65-.359.89c-.24.24-.537.36-.891.36ZM7.531 15.562c-.083-1.229.089-2.343.516-3.343.427-1 1-1.85 1.718-2.548a7.575 7.575 0 0 1 2.485-1.608 7.524 7.524 0 0 1 2.813-.563c1.895 0 3.536.6 4.922 1.797 1.385 1.198 2.223 2.693 2.515 4.484-1.958-.02-3.73-.547-5.313-1.579-1.583-1.03-2.78-2.369-3.593-4.014a9.98 9.98 0 0 1-2.109 4.483 9.727 9.727 0 0 1-3.954 2.892Z" fill="#00ED64"/></g></symbol><symbol fill="none" viewBox="0 0 207 383" id="developer-teams-section-decorator" xmlns="http://www.w3.org/2000/svg"><path opacity=".5" d="M-139.365-20.702c0-1.912.093-3.802.274-5.666l.498.048a57.07 57.07 0 0 1 2.183-11.019l-.478-.145a57.39 57.39 0 0 1 4.343-10.465l.44.236a57.537 57.537 0 0 1 6.25-9.334l-.386-.317a58.207 58.207 0 0 1 8.012-8.012l.317.387a57.446 57.446 0 0 1 9.334-6.25l-.237-.441a57.462 57.462 0 0 1 10.466-4.343l.145.479a56.988 56.988 0 0 1 11.019-2.184l-.049-.497a58.409 58.409 0 0 1 5.667-.275h4.797v.5h9.594v-.5h9.595v.5h9.595v-.5h9.594v.5h9.595v-.5h9.594v.5h9.595v-.5h9.594v.5h9.595v-.5h9.595v.5h9.594v-.5h9.595v.5h9.594v-.5h9.595v.5h9.594v-.5h9.595v.5h9.595v-.5h4.797c1.687 0 3.366.036 5.036.108l-.021.5c3.368.145 6.699.435 9.986.864l.065-.496a114.84 114.84 0 0 1 9.911 1.739l-.107.488c3.28.725 6.508 1.59 9.677 2.59l.15-.477a114.43 114.43 0 0 1 9.458 3.446l-.192.462a114.253 114.253 0 0 1 9.079 4.243l.231-.443a115.316 115.316 0 0 1 8.711 5.042l-.269.422a115.223 115.223 0 0 1 8.202 5.755l.305-.396a116.05 116.05 0 0 1 7.706 6.474l-.338.368a115.856 115.856 0 0 1 7.086 7.086l.368-.338a116.012 116.012 0 0 1 6.474 7.706l-.397.305a115.022 115.022 0 0 1 5.756 8.202l.422-.269a115.627 115.627 0 0 1 5.042 8.71l-.443.232a114.423 114.423 0 0 1 4.243 9.079l.462-.192a114.632 114.632 0 0 1 3.446 9.458l-.477.15a114.01 114.01 0 0 1 2.59 9.678l.488-.108c.719 3.254 1.301 6.56 1.739 9.911l-.496.065c.429 3.287.719 6.618.864 9.986l.5-.021a116.921 116.921 0 0 1 0 10.073l-.5-.022a115.566 115.566 0 0 1-.864 9.986l.496.065a115.086 115.086 0 0 1-1.739 9.912l-.488-.108a114.015 114.015 0 0 1-2.59 9.677l.477.15a114.62 114.62 0 0 1-3.446 9.458l-.462-.191a114.434 114.434 0 0 1-4.243 9.079l.443.23a115.605 115.605 0 0 1-5.042 8.711l-.422-.269a115.213 115.213 0 0 1-5.756 8.203l.397.304a115.964 115.964 0 0 1-6.474 7.706l-.368-.338a115.8 115.8 0 0 1-7.086 7.086l.338.369a116.255 116.255 0 0 1-7.706 6.473l-.305-.396a115.616 115.616 0 0 1-8.202 5.756l.269.421a115.26 115.26 0 0 1-8.71 5.042l-.232-.443a114.354 114.354 0 0 1-9.079 4.243l.192.462a114.287 114.287 0 0 1-9.457 3.446l-.151-.477c-3.169 1-6.397 1.865-9.677 2.59l.107.488a114.65 114.65 0 0 1-9.911 1.739l-.065-.496c-3.287.43-6.618.72-9.986.865l.021.499c-1.67.072-3.349.108-5.036.108-1.681 0-3.354.037-5.017.108l-.022-.499c-3.384.145-6.73.437-10.033.868l.065.496c-3.338.436-6.63 1.015-9.872 1.732l-.108-.489c-3.296.729-6.539 1.598-9.723 2.602l.15.477a114.134 114.134 0 0 0-9.418 3.432l-.192-.462a114.694 114.694 0 0 0-9.122 4.264l.232.443a114.842 114.842 0 0 0-8.676 5.022l-.269-.421a115.608 115.608 0 0 0-8.24 5.782l.304.397a115.27 115.27 0 0 0-7.675 6.448l-.338-.369a116.125 116.125 0 0 0-7.12 7.12l.369.338a115.6 115.6 0 0 0-6.448 7.675l-.397-.305a115.924 115.924 0 0 0-5.782 8.241l.42.269a114.89 114.89 0 0 0-5.021 8.676l-.443-.232a115.075 115.075 0 0 0-4.264 9.122l.462.192a113.89 113.89 0 0 0-3.432 9.419l-.477-.151a114.49 114.49 0 0 0-2.602 9.723l.488.108a114.427 114.427 0 0 0-1.731 9.872l-.496-.065a115.934 115.934 0 0 0-.868 10.033l.5.022a116.644 116.644 0 0 0-.109 5.017c0 1.687-.036 3.366-.108 5.036l-.5-.021a115.363 115.363 0 0 1-.864 9.986l.496.065a114.84 114.84 0 0 1-1.739 9.911l-.488-.107c-.725 3.28-1.59 6.508-2.59 9.677l.477.15a114.43 114.43 0 0 1-3.446 9.458l-.462-.192a114.253 114.253 0 0 1-4.243 9.079l.443.232a115.296 115.296 0 0 1-5.042 8.71l-.421-.269a115.223 115.223 0 0 1-5.756 8.202l.396.305a116.05 116.05 0 0 1-6.473 7.706l-.369-.338a115.856 115.856 0 0 1-7.086 7.086l.338.368a116.012 116.012 0 0 1-7.706 6.474l-.305-.397a115.022 115.022 0 0 1-8.202 5.756l.27.422a115.627 115.627 0 0 1-8.711 5.042l-.231-.443a114.434 114.434 0 0 1-9.08 4.243l.192.462a114.684 114.684 0 0 1-9.457 3.446l-.15-.477a113.994 113.994 0 0 1-9.678 2.59l.108.488a115.124 115.124 0 0 1-9.912 1.739l-.065-.496c-3.287.429-6.618.719-9.986.864l.022.5a116.927 116.927 0 0 1-10.073 0l.021-.5a115.561 115.561 0 0 1-9.986-.864l-.065.496a115.034 115.034 0 0 1-9.911-1.739l.107-.488a114.072 114.072 0 0 1-9.677-2.59l-.15.477a114.54 114.54 0 0 1-9.458-3.446l.192-.462a114.354 114.354 0 0 1-9.079-4.243l-.231.443a115.423 115.423 0 0 1-8.711-5.042l.269-.422a115.278 115.278 0 0 1-8.202-5.755l-.305.396a115.964 115.964 0 0 1-7.706-6.474l.338-.368a116.083 116.083 0 0 1-7.086-7.086l-.368.338a115.964 115.964 0 0 1-6.474-7.706l.397-.305a114.967 114.967 0 0 1-5.756-8.202l-.422.269a115.6 115.6 0 0 1-5.042-8.71l.444-.232a114.01 114.01 0 0 1-4.244-9.079l-.462.192a114.65 114.65 0 0 1-3.446-9.457l.477-.151a114.072 114.072 0 0 1-2.59-9.677l-.488.107a115.034 115.034 0 0 1-1.739-9.911l.496-.065a115.561 115.561 0 0 1-.864-9.986l-.5.021c-.072-1.67-.108-3.349-.108-5.036v-4.797h.5v-9.595h-.5v-9.595h.5v-9.594h-.5v-9.595h.5v-9.594h-.5v-9.595h.5v-9.594h-.5v-9.595h.5v-9.595h-.5v-9.594h.5v-9.595h-.5v-9.594h.5v-9.595h-.5v-9.594h.5v-9.595h-.5v-9.595h.5V99.23h-.5v-4.797c0-1.912.093-3.802.275-5.667l.497.049a56.996 56.996 0 0 1 2.184-11.019l-.479-.145a57.461 57.461 0 0 1 4.343-10.465l.44.236a57.529 57.529 0 0 1 6.25-9.334l-.386-.317a58.207 58.207 0 0 1 8.012-8.012l.317.386a57.46 57.46 0 0 1 9.334-6.25l-.236-.44a57.452 57.452 0 0 1 10.465-4.343l.145.478a57.003 57.003 0 0 1 11.019-2.183l-.049-.497a58.424 58.424 0 0 1 5.667-.275c1.515 0 3.017-.059 4.503-.175l.039.499a57.672 57.672 0 0 0 8.964-1.412l-.116-.486a56.928 56.928 0 0 0 8.555-2.78l.191.461a57.688 57.688 0 0 0 8.083-4.128l-.262-.426a57.604 57.604 0 0 0 7.275-5.296l.325.38a58.308 58.308 0 0 0 6.417-6.417l-.38-.325a57.528 57.528 0 0 0 5.296-7.275l.426.262a57.629 57.629 0 0 0 4.128-8.083l-.462-.191a56.848 56.848 0 0 0 2.781-8.555l.486.116a57.63 57.63 0 0 0 1.412-8.964l-.499-.039c.116-1.486.175-2.988.175-4.503Z" stroke="#00ED64" stroke-dasharray="10 10"/></symbol><symbol fill="none" viewBox="0 0 24 24" id="footer-github-green-icon" xmlns="http://www.w3.org/2000/svg"><path d="M12 2A10 10 0 0 0 2 12c0 4.42 2.87 8.17 6.84 9.5.5.08.66-.23.66-.5v-1.69c-2.77.6-3.36-1.34-3.36-1.34-.46-1.16-1.11-1.47-1.11-1.47-.91-.62.07-.6.07-.6 1 .07 1.53 1.03 1.53 1.03.87 1.52 2.34 1.07 2.91.83.09-.65.35-1.09.63-1.34-2.22-.25-4.55-1.11-4.55-4.92 0-1.11.38-2 1.03-2.71-.1-.25-.45-1.29.1-2.64 0 0 .84-.27 2.75 1.02.79-.22 1.65-.33 2.5-.33.85 0 1.71.11 2.5.33 1.91-1.29 2.75-1.02 2.75-1.02.55 1.35.2 2.39.1 2.64.65.71 1.03 1.6 1.03 2.71 0 3.82-2.34 4.66-4.57 4.91.36.31.69.92.69 1.85V21c0 .27.16.59.67.5C19.14 20.16 22 16.42 22 12A10 10 0 0 0 12 2Z" fill="#00ED64"/></symbol><symbol fill="none" viewBox="0 0 20 19" id="footer-github-white-icon" xmlns="http://www.w3.org/2000/svg"><g clip-path="url(#ea)"><path d="M10.406.238a9.49 9.49 0 0 0-9.5 9.5c0 4.185 2.732 7.749 6.501 9.024.475.09.654-.207.654-.445v-1.602c-2.642.563-3.207-1.277-3.207-1.277-.445-1.1-1.068-1.396-1.068-1.396-.86-.594.06-.564.06-.564.95.06 1.453.98 1.453.98.862 1.454 2.227 1.04 2.762.8.09-.622.326-1.038.593-1.275-2.107-.238-4.333-1.068-4.333-4.69 0-1.04.355-1.87.978-2.553-.088-.238-.415-1.218.09-2.525 0 0 .8-.267 2.612.98a9.166 9.166 0 0 1 2.375-.326c.801 0 1.633.119 2.375.326 1.812-1.217 2.613-.98 2.613-.98.505 1.307.178 2.287.09 2.525.624.651.98 1.513.98 2.551 0 3.652-2.228 4.454-4.335 4.692.325.297.652.86.652 1.75v2.614c0 .268.178.563.653.445 3.772-1.307 6.502-4.869 6.502-9.054a9.49 9.49 0 0 0-9.5-9.5Z" fill="#666"/></g><defs><clipPath id="ea"><path fill="#fff" transform="translate(.906)" d="M0 0h19v19H0z"/></clipPath></defs></symbol><symbol fill="none" viewBox="0 0 24 24" id="footer-twitter-green-icon" xmlns="http://www.w3.org/2000/svg"><path d="M22.46 6c-.77.35-1.6.58-2.46.69.88-.53 1.56-1.37 1.88-2.38-.83.5-1.75.85-2.72 1.05C18.37 4.5 17.26 4 16 4c-2.35 0-4.27 1.92-4.27 4.29 0 .34.04.67.11.98C8.28 9.09 5.11 7.38 3 4.79c-.37.63-.58 1.37-.58 2.15 0 1.49.75 2.81 1.91 3.56-.71 0-1.37-.2-1.95-.5v.03c0 2.08 1.48 3.82 3.44 4.21a4.22 4.22 0 0 1-1.93.07 4.28 4.28 0 0 0 4 2.98 8.521 8.521 0 0 1-5.33 1.84c-.34 0-.68-.02-1.02-.06C3.44 20.29 5.7 21 8.12 21 16 21 20.33 14.46 20.33 8.79c0-.19 0-.37-.01-.56.84-.6 1.56-1.36 2.14-2.23Z" fill="#00ED64"/></symbol><symbol fill="none" viewBox="0 0 21 17" id="footer-twitter-white-icon" xmlns="http://www.w3.org/2000/svg"><g clip-path="url(#ga)"><path d="m20.094 2.3-1.799 1.795v.299c0 .327-.053.641-.13.944-.043 2.469-.829 5.742-4.068 8.325-6.364 5.086-13.19.6-13.19.6 5.396 0 5.396-1.795 5.396-1.795-1.2 0-3.598-2.39-3.598-2.39.6.596 1.8 0 1.8 0C1.503 8.28 1.503 6.484 1.503 6.484c.6.598 1.8 0 1.8 0-2.997-2.39-1.199-5.382-1.199-5.382.6 2.992 8.396 4.188 8.396 4.188l.1-.049a7.077 7.077 0 0 1-.1-1.147c0-2.148 1.744-3.59 3.897-3.59 1.186 0 2.232.54 2.948 1.37l.35-.173L19.494.505l-1.196 2.393 1.796-.598Z" fill="#666"/></g><defs><clipPath id="ga"><path fill="#fff" transform="translate(.906 .5)" d="M0 0h19.188v16H0z"/></clipPath></defs></symbol><symbol fill="none" viewBox="0 0 25 24" id="green-arrow-down" xmlns="http://www.w3.org/2000/svg"><mask id="ha" style="mask-type:alpha" maskUnits="userSpaceOnUse" x="0" y="0" width="25" height="24"><path fill="#D9D9D9" d="M.5 0h24v24H.5z"/></mask><g mask="url(#ha)"><path d="m12.5 15.375-6-6 1.4-1.4 4.6 4.6 4.6-4.6 1.4 1.4-6 6Z" fill="#00ED64"/></g></symbol><symbol fill="none" viewBox="0 0 125 776" id="hero-section-decorator" xmlns="http://www.w3.org/2000/svg"><path opacity=".5" d="M473.134 303.56a71.033 71.033 0 0 1 4.625 2.432l-.128.473a76.618 76.618 0 0 1 8.838 5.932l.195-.428a86.1 86.1 0 0 1 8.286 7.342l-.257.374a94.893 94.893 0 0 1 7.437 8.441l.31-.314a104.798 104.798 0 0 1 6.569 9.433l-.355.249a111.332 111.332 0 0 1 5.53 10.073l.39-.183c1.669 3.447 3.177 7 4.512 10.634l-.418.118a118.297 118.297 0 0 1 3.409 10.868l.439-.053a118.48 118.48 0 0 1 2.337 11.068l-.453-.011a114.507 114.507 0 0 1 1.236 10.978l.459.073c.23 3.618.285 7.246.157 10.865l-.46-.132a103.959 103.959 0 0 1-.901 10.504l.455.19a98.751 98.751 0 0 1-.842 5.13l-.976 5.112-.451-.216-1.953 10.225.451.216-1.954 10.225-.45-.217-1.954 10.225.451.216-1.953 10.225-.451-.217-1.953 10.225.451.216-1.953 10.225-.451-.216-1.953 10.224.451.216-1.954 10.225-.45-.216-1.954 10.224.451.217-1.953 10.224-.451-.216-1.953 10.224.451.217-1.953 10.224-.451-.216-1.953 10.225.451.216-1.954 10.225-.45-.217-1.954 10.225.451.216-1.953 10.225-.451-.217-1.953 10.225.451.216-1.953 10.225-.451-.216-1.953 10.224.451.216-1.954 10.225-.45-.216-1.954 10.224.451.217-1.953 10.224-.451-.216-1.953 10.225.451.216-.977 5.112a194.067 194.067 0 0 1-1.033 5.048l-.448-.23a186.469 186.469 0 0 1-2.432 9.844l.442.256a178.145 178.145 0 0 1-2.94 9.58l-.434-.282a166.721 166.721 0 0 1-3.433 9.242l.425.306a158.636 158.636 0 0 1-3.934 8.906l-.414-.331a149.634 149.634 0 0 1-4.406 8.489l.402.355a141.918 141.918 0 0 1-4.896 8.093l-.387-.378a134.831 134.831 0 0 1-5.35 7.623l.372.399a128.312 128.312 0 0 1-5.815 7.154l-.356-.42a121.85 121.85 0 0 1-6.235 6.614l.337.439a116.542 116.542 0 0 1-6.683 6.088l-.317-.457a111.795 111.795 0 0 1-7.064 5.483l.296.474a107.79 107.79 0 0 1-7.47 4.881l-.273-.489a104.896 104.896 0 0 1-7.814 4.219l.248.502a102.497 102.497 0 0 1-8.173 3.545l-.222-.514a100.723 100.723 0 0 1-8.457 2.818l.193.523a100.884 100.884 0 0 1-8.763 2.077l-.164-.53c-2.957.562-5.948.994-8.97 1.292l.132.535c-3.039.3-6.108.465-9.203.492l-.1-.536c-3.083.027-6.192-.083-9.321-.332l.065.535a109.6 109.6 0 0 1-9.457-1.172l-.031-.531a114.822 114.822 0 0 1-9.468-2.006l-.006.523a122.105 122.105 0 0 1-9.501-2.853l.041-.513a129.826 129.826 0 0 1-9.39-3.657l-.076.5a136.806 136.806 0 0 1-4.682-2.14 142.907 142.907 0 0 1-4.645-2.335l.111-.483a145.96 145.96 0 0 1-9.093-5.21l-.145.463a154.751 154.751 0 0 1-8.905-5.978l.179-.44a162.238 162.238 0 0 1-8.581-6.653l-.211.415a171.829 171.829 0 0 1-8.28-7.337l.242-.389a180.392 180.392 0 0 1-7.873-7.917l-.27.36a191.875 191.875 0 0 1-7.486-8.499l.297-.329a200.937 200.937 0 0 1-7.012-8.961l-.321.298a208.936 208.936 0 0 1-6.565-9.431l.344-.266a215.514 215.514 0 0 1-6.051-9.778l-.364.233a222.923 222.923 0 0 1-5.561-10.134l.382-.2a229.298 229.298 0 0 1-5.025-10.379l-.398.167a233.266 233.266 0 0 1-4.508-10.627l.412-.134a236.985 236.985 0 0 1-3.959-10.772l-.424.101a237.524 237.524 0 0 1-3.43-10.939l.434-.069a238.319 238.319 0 0 1-2.873-10.984l-.443.037a236.72 236.72 0 0 1-2.335-11.065l.449-.005a233.322 233.322 0 0 1-1.783-11.045l-.455-.026a229.592 229.592 0 0 1-1.241-11.037l.458.057c-.32-3.639-.553-7.286-.695-10.936l-.46-.088a221.289 221.289 0 0 1-.157-10.868l.461.118c.037-3.573.162-7.143.378-10.707l-.46-.147a209.2 209.2 0 0 1 .907-10.556l.457.176c.385-3.455.859-6.899 1.421-10.329l-.453-.203c.28-1.706.582-3.409.907-5.108.324-1.698.626-3.4.906-5.105l.453.202a203.359 203.359 0 0 0 1.429-10.377l-.457-.175c.391-3.507.692-7.024.906-10.548l.459.147c.217-3.581.342-7.168.38-10.757l-.461-.118a219.71 219.71 0 0 0-.156-10.86l.46.088a225.313 225.313 0 0 0-.699-10.987l-.458-.058a229.034 229.034 0 0 0-1.24-11.027l.455.027a234.235 234.235 0 0 0-1.792-11.097l-.45.005a234.626 234.626 0 0 0-2.333-11.052l.443-.037a238.03 238.03 0 0 0-2.887-11.036l-.434.069a238.541 238.541 0 0 0-3.426-10.925l.424-.102a236.35 236.35 0 0 0-3.977-10.822l-.412.134a234.211 234.211 0 0 0-4.501-10.612l.398-.167a229.3 229.3 0 0 0-5.049-10.427l-.382.2a224.625 224.625 0 0 0-5.55-10.116l.364-.233a217.556 217.556 0 0 0-6.08-9.824l-.344.266a208.296 208.296 0 0 0-6.551-9.411l.322-.298a201.481 201.481 0 0 0-7.045-9.002l-.297.329a190.43 190.43 0 0 0-7.467-8.478l.27-.36a182.086 182.086 0 0 0-7.91-7.954l-.241.388a171.905 171.905 0 0 0-8.257-7.317l.211-.416a163.363 163.363 0 0 0-8.622-6.684l-.178.441a153.535 153.535 0 0 0-8.88-5.961l.145-.463a146.24 146.24 0 0 0-9.135-5.235l-.111.482a143.115 143.115 0 0 0-4.632-2.328 140.91 140.91 0 0 1-4.645-2.335l.111-.482a146.15 146.15 0 0 1-9.093-5.211l-.145.463a153.893 153.893 0 0 1-8.905-5.978l.179-.44c-2.92-2.11-5.782-4.33-8.581-6.653l-.211.415a171.483 171.483 0 0 1-8.28-7.337l.242-.389a180.606 180.606 0 0 1-7.873-7.917l-.27.36a191.804 191.804 0 0 1-7.486-8.499l.297-.329a199.284 199.284 0 0 1-7.012-8.961l-.321.298a209.591 209.591 0 0 1-6.565-9.431l.344-.265a216.628 216.628 0 0 1-6.051-9.779l-.364.233a223.603 223.603 0 0 1-5.561-10.134l.382-.2a229.16 229.16 0 0 1-5.025-10.378l-.398.167a234.344 234.344 0 0 1-4.508-10.628l.412-.134a236.265 236.265 0 0 1-3.959-10.772l-.424.102a238.323 238.323 0 0 1-3.43-10.94l.434-.069a237.24 237.24 0 0 1-2.873-10.984l-.443.037a236.48 236.48 0 0 1-2.335-11.065l.45-.005a233.002 233.002 0 0 1-1.784-11.044l-.455-.027a229.997 229.997 0 0 1-1.241-11.037l.458.058c-.32-3.64-.553-7.287-.695-10.937l-.46-.088a220.269 220.269 0 0 1-.157-10.868l.46.118c.038-3.573.163-7.143.379-10.707l-.46-.147a208.9 208.9 0 0 1 .907-10.555l.457.175c.385-3.455.859-6.9 1.421-10.329l-.453-.203a198.736 198.736 0 0 1 1.94-10.155l.448.23a186.28 186.28 0 0 1 2.432-9.845l-.441-.256a176.756 176.756 0 0 1 2.94-9.58l.433.282a166.802 166.802 0 0 1 3.433-9.241l-.425-.307a158.292 158.292 0 0 1 3.935-8.906l.413.331a149.472 149.472 0 0 1 4.406-8.489l-.401-.354a142.088 142.088 0 0 1 4.895-8.093l.388.377c1.714-2.631 3.499-5.173 5.35-7.622l-.373-.4a128.154 128.154 0 0 1 5.816-7.153l.355.42A121.75 121.75 0 0 1 45.7-1.268l-.337-.439a116.74 116.74 0 0 1 6.683-6.088l.317.457a111.678 111.678 0 0 1 7.064-5.483l-.296-.474a108.178 108.178 0 0 1 7.47-4.881l.273.489c2.555-1.522 5.161-2.93 7.814-4.219l-.248-.502a102.724 102.724 0 0 1 8.174-3.545l.221.514a100.943 100.943 0 0 1 8.457-2.818l-.193-.523c2.883-.82 5.806-1.514 8.763-2.077l.164.53c2.957-.562 5.949-.994 8.97-1.292l-.132-.535c3.039-.3 6.109-.465 9.204-.492l.099.536a105.46 105.46 0 0 1 9.321.332l-.065-.535c3.133.25 6.287.64 9.458 1.172l.03.53c3.142.528 6.299 1.196 9.468 2.008l.006-.524c3.157.809 6.326 1.759 9.502 2.854l-.042.512a129.492 129.492 0 0 1 9.39 3.657l.076-.5c1.561.678 3.122 1.392 4.682 2.14l4.56 2.188-.093.491 9.119 4.375.094-.49 9.12 4.375-.094.49 9.12 4.376.094-.491 9.119 4.375-.093.491 9.119 4.376.094-.491 9.12 4.375-.094.491 9.12 4.376.094-.492 9.12 4.376-.094.49 9.119 4.376.094-.491 9.12 4.375-.094.491 9.12 4.376.094-.491 9.12 4.375-.094.491 9.12 4.376.093-.492 9.12 4.376-.094.49 9.12 4.376.094-.491 9.12 4.375-.094.492 9.12 4.375.093-.491 9.12 4.375-.094.491 9.12 4.375.094-.49 9.12 4.375-.094.49 9.12 4.376.094-.491 4.559 2.188a71.626 71.626 0 0 1 4.625 2.432l-.128.473a76.66 76.66 0 0 1 8.838 5.932l.195-.428a86.26 86.26 0 0 1 8.286 7.342l-.257.374a94.938 94.938 0 0 1 7.437 8.441l.31-.314a104.798 104.798 0 0 1 6.569 9.433l-.355.249a111.332 111.332 0 0 1 5.53 10.073l.39-.183c1.669 3.447 3.177 7 4.512 10.634l-.418.118a118.394 118.394 0 0 1 3.409 10.868l.439-.053a118.48 118.48 0 0 1 2.337 11.068l-.453-.011a114.507 114.507 0 0 1 1.236 10.978l.459.073c.23 3.618.285 7.246.157 10.866l-.46-.133a104.003 104.003 0 0 1-.901 10.505l.455.189a98.751 98.751 0 0 1-.842 5.13c-.324 1.701-.604 3.41-.841 5.125l-.455-.19a105.068 105.068 0 0 0-.91 10.604l.461.132c-.128 3.614-.073 7.236.157 10.848l-.46-.073c.236 3.712.655 7.412 1.247 11.082l.453.011a117.879 117.879 0 0 0 2.332 11.043l-.439.053a119.515 119.515 0 0 0 3.441 10.971l.418-.118a116.712 116.712 0 0 0 4.499 10.602l-.391.184a112.42 112.42 0 0 0 5.582 10.168l.354-.25a104.175 104.175 0 0 0 6.541 9.393l-.31.313a95.784 95.784 0 0 0 7.507 8.521l.256-.374a85.811 85.811 0 0 0 8.241 7.302l-.195.428a77.285 77.285 0 0 0 8.921 5.988l.129-.473a71.205 71.205 0 0 0 4.598 2.419Z" stroke="#00ED64" stroke-dasharray="10 10"/></symbol><symbol fill="none" viewBox="0 0 24 25" id="navbar-cancel-icon" xmlns="http://www.w3.org/2000/svg"><mask id="ja" style="mask-type:alpha" maskUnits="userSpaceOnUse" x="0" y="0" width="24" height="25"><path fill="#D9D9D9" d="M0 .5h24v24H0z"/></mask><g mask="url(#ja)"><path d="M6.4 19.5 5 18.1l5.6-5.6L5 6.9l1.4-1.4 5.6 5.6 5.6-5.6L19 6.9l-5.6 5.6 5.6 5.6-1.4 1.4-5.6-5.6-5.6 5.6Z" fill="#00ED64"/></g></symbol><symbol fill="none" viewBox="0 0 24 25" id="navbar-hamburger" xmlns="http://www.w3.org/2000/svg"><mask id="ka" style="mask-type:alpha" maskUnits="userSpaceOnUse" x="0" y="0" width="24" height="25"><path fill="#D9D9D9" d="M0 .5h24v24H0z"/></mask><g mask="url(#ka)"><path d="M4 15.5v-2h16v2H4Zm0-4v-2h16v2H4Z" fill="#00ED64"/></g></symbol><symbol fill="none" viewBox="0 0 24 24" id="navbar-white-arrow-down" xmlns="http://www.w3.org/2000/svg"><mask id="la" style="mask-type:alpha" maskUnits="userSpaceOnUse" x="0" y="0" width="24" height="24"><path fill="#D9D9D9" d="M0 0h24v24H0z"/></mask><g mask="url(#la)"><path d="m12 15.4-6-6L7.4 8l4.6 4.6L16.6 8 18 9.4l-6 6Z" fill="#fff"/></g></symbol></svg>