
<svg width="0" height="0" class="hidden">
  <symbol viewBox="0 0 40 40" fill="none" xmlns="http://www.w3.org/2000/svg" id="arrow-left-icon">
    <mask id="a" maskUnits="userSpaceOnUse" x="0" y="0" width="40" height="40">
      <path fill="#D9D9D9" d="M0 0h40v40H0z"></path>
    </mask>
    <g mask="url(#a)">
      <path d="M23.333 30L21 27.583l5.917-5.916H6.667v-3.334h20.25L21 12.417 23.333 10l10 10-10 10z" fill="#fff"></path>
    </g>
  </symbol>
  <symbol viewBox="0 0 28 20" fill="none" xmlns="http://www.w3.org/2000/svg" id="arrow-left">
    <path d="M10.665 20L13 17.583l-5.917-5.916h20.25V8.333H7.082l5.917-5.916L10.665 0l-10 10 10 10z" fill="#fff"></path>
  </symbol>
  <symbol viewBox="0 0 24 24" fill="none" xmlns="http://www.w3.org/2000/svg" id="arrow-right-white">
    <mask id="a" maskUnits="userSpaceOnUse" x="0" y="0" width="24" height="24">
      <path fill="#D9D9D9" d="M0 0h24v24H0z"></path>
    </mask>
    <g mask="url(#a)">
      <path d="M14 18l-1.4-1.45L16.15 13H4v-2h12.15L12.6 7.45 14 6l6 6-6 6z" fill="#fff"></path>
    </g>
  </symbol>
  <symbol viewBox="0 0 28 20" fill="none" xmlns="http://www.w3.org/2000/svg" id="arrow-right">
    <path d="M17.335 20L15 17.583l5.917-5.916H.668V8.333h20.25l-5.917-5.916L17.335 0l10 10-10 10z" fill="#fff"></path>
  </symbol>
  <symbol viewBox="0 0 21 20" fill="none" xmlns="http://www.w3.org/2000/svg" id="arrow-up">
    <mask id="a" maskUnits="userSpaceOnUse" x="0" y="0" width="21" height="20">
      <path fill="#D9D9D9" d="M.667 0h20v20h-20z"></path>
    </mask>
    <g mask="url(#a)">
      <path d="M5.167 16.666L4 15.5l9.667-9.667h-5.5V4.166H16.5V12.5h-1.667V7l-9.666 9.666z" fill="#fff"></path>
    </g>
  </symbol>
  <symbol viewBox="0 0 24 24" fill="none" xmlns="http://www.w3.org/2000/svg" id="arrow_right_alt">
    <mask id="a" maskUnits="userSpaceOnUse" x="0" y="0" width="24" height="24">
      <path transform="matrix(0 1 1 0 0 0)" fill="#D9D9D9" d="M0 0h24v24H0z"></path>
    </mask>
    <g mask="url(#a)">
      <path d="M18 14l-1.45-1.4L13 16.15V4h-2v12.15L7.45 12.6 6 14l6 6 6-6z" fill="#001E2B"></path>
    </g>
  </symbol>
  <symbol viewBox="0 0 25 24" fill="none" xmlns="http://www.w3.org/2000/svg" id="arrow_right_dark">
    <mask id="a" maskUnits="userSpaceOnUse" x="0" y="0" width="25" height="24">
      <path fill="#D9D9D9" d="M.662 0h24v24h-24z"></path>
    </mask>
    <g mask="url(#a)">
      <path d="M14.662 18l-1.4-1.45 3.55-3.55H4.662v-2h12.15l-3.55-3.55 1.4-1.45 6 6-6 6z" fill="#001E2B"></path>
    </g>
  </symbol>
  <symbol viewBox="0 0 245 239" fill="none" xmlns="http://www.w3.org/2000/svg" id="bottom-corner-pattern">
    <path opacity=".5" d="M-101.365 58.298c0-1.912.093-3.802.274-5.666l.498.048a57.018 57.018 0 0 1 2.184-11.019l-.479-.145a57.445 57.445 0 0 1 4.343-10.465l.44.236a57.44 57.44 0 0 1 6.25-9.334l-.386-.317a58.2 58.2 0 0 1 8.012-8.012l.317.387a57.43 57.43 0 0 1 9.334-6.25l-.237-.441a57.45 57.45 0 0 1 10.466-4.343l.145.479a56.993 56.993 0 0 1 11.019-2.184l-.049-.497A58.407 58.407 0 0 1-43.567.5h4.797V1h9.594V.5h9.595V1h9.595V.5h9.594V1h9.595V.5h9.594V1h9.595V.5h9.594V1h9.595V.5h9.595V1h9.594V.5h9.595V1h9.594V.5h9.595V1h9.594V.5h9.595V1h9.595V.5h4.797c1.687 0 3.366.036 5.036.108l-.021.5c3.368.145 6.699.435 9.986.864l.065-.496c3.351.438 6.657 1.02 9.911 1.739l-.107.488c3.28.725 6.508 1.59 9.677 2.59l.15-.477a114.412 114.412 0 0 1 9.458 3.446l-.192.462a114.26 114.26 0 0 1 9.079 4.243l.231-.443a115.316 115.316 0 0 1 8.711 5.042l-.269.422a115.223 115.223 0 0 1 8.202 5.756l.305-.397a116.05 116.05 0 0 1 7.706 6.474l-.338.368a115.856 115.856 0 0 1 7.086 7.086l.368-.338a116.012 116.012 0 0 1 6.474 7.706l-.397.305a115.022 115.022 0 0 1 5.756 8.202l.422-.269a115.627 115.627 0 0 1 5.042 8.71l-.443.232a114.418 114.418 0 0 1 4.243 9.079l.462-.192a114.633 114.633 0 0 1 3.446 9.458l-.477.15a114.015 114.015 0 0 1 2.59 9.678l.488-.108c.719 3.254 1.301 6.56 1.739 9.911l-.496.065c.429 3.287.719 6.618.864 9.986l.5-.021a116.915 116.915 0 0 1 0 10.073l-.5-.022a115.561 115.561 0 0 1-.864 9.986l.496.065a115.124 115.124 0 0 1-1.739 9.912l-.488-.108a113.871 113.871 0 0 1-2.59 9.677l.477.151a114.65 114.65 0 0 1-3.446 9.457l-.462-.191a114.685 114.685 0 0 1-4.243 9.079l.443.231a115.6 115.6 0 0 1-5.042 8.71l-.422-.269a115.213 115.213 0 0 1-5.756 8.203l.397.304a115.964 115.964 0 0 1-6.474 7.706l-.368-.338a115.8 115.8 0 0 1-7.086 7.086l.338.369a116.255 116.255 0 0 1-7.706 6.473l-.305-.396a115.616 115.616 0 0 1-8.202 5.756l.269.421a115.26 115.26 0 0 1-8.71 5.042l-.232-.443a114.354 114.354 0 0 1-9.079 4.243l.192.462a114.287 114.287 0 0 1-9.457 3.446l-.151-.477c-3.169 1-6.397 1.865-9.677 2.59l.107.488a114.65 114.65 0 0 1-9.911 1.739l-.065-.496c-3.287.43-6.618.72-9.986.865l.021.499c-1.67.072-3.349.108-5.036.108-1.681 0-3.354.037-5.017.108l-.022-.499c-3.384.145-6.73.437-10.033.868l.065.496c-3.338.436-6.63 1.015-9.872 1.732l-.108-.489a114.652 114.652 0 0 0-9.723 2.602l.15.477a114.134 114.134 0 0 0-9.418 3.432l-.192-.462a114.694 114.694 0 0 0-9.121 4.264l.23.443a114.842 114.842 0 0 0-8.675 5.022l-.269-.421a115.608 115.608 0 0 0-8.24 5.782l.304.397a115.27 115.27 0 0 0-7.675 6.448l-.338-.369a116.137 116.137 0 0 0-7.12 7.12l.369.338a115.594 115.594 0 0 0-6.448 7.675l-.397-.305a115.894 115.894 0 0 0-5.783 8.241l.422.269a114.893 114.893 0 0 0-5.022 8.676l-.443-.232a115.075 115.075 0 0 0-4.264 9.122l.462.192a113.89 113.89 0 0 0-3.432 9.419l-.477-.151a114.49 114.49 0 0 0-2.602 9.723l.488.108a114.427 114.427 0 0 0-1.731 9.872l-.496-.065a115.934 115.934 0 0 0-.868 10.033l.5.022a116.644 116.644 0 0 0-.109 5.017c0 1.687-.036 3.366-.108 5.036l-.5-.021a115.363 115.363 0 0 1-.864 9.986l.496.065a114.84 114.84 0 0 1-1.739 9.911l-.488-.107c-.725 3.28-1.59 6.508-2.59 9.677l.477.15a114.405 114.405 0 0 1-3.446 9.458l-.462-.192a114.258 114.258 0 0 1-4.243 9.079l.443.232a115.293 115.293 0 0 1-5.042 8.71l-.421-.269a115.197 115.197 0 0 1-5.756 8.202l.396.305a116.037 116.037 0 0 1-6.473 7.706l-.369-.338a115.856 115.856 0 0 1-7.086 7.086l.338.368a116.012 116.012 0 0 1-7.706 6.474l-.305-.397a115.022 115.022 0 0 1-8.202 5.756l.27.422a115.627 115.627 0 0 1-8.711 5.042l-.232-.443a114.434 114.434 0 0 1-9.078 4.243l.191.462a114.633 114.633 0 0 1-9.457 3.446l-.15-.477a114.015 114.015 0 0 1-9.678 2.59l.108.488a115.09 115.09 0 0 1-9.912 1.739l-.065-.496c-3.287.429-6.618.719-9.986.864l.022.5a116.924 116.924 0 0 1-10.073 0l.021-.5a115.561 115.561 0 0 1-9.986-.864l-.065.496a115.034 115.034 0 0 1-9.911-1.739l.107-.488a114.072 114.072 0 0 1-9.677-2.59l-.15.477a114.54 114.54 0 0 1-9.458-3.446l.192-.462a114.354 114.354 0 0 1-9.079-4.243l-.231.443a115.423 115.423 0 0 1-8.711-5.042l.269-.422a115.278 115.278 0 0 1-8.202-5.755l-.305.396a115.964 115.964 0 0 1-7.706-6.474l.338-.368a116.083 116.083 0 0 1-7.086-7.086l-.368.338a115.964 115.964 0 0 1-6.474-7.706l.397-.305a114.967 114.967 0 0 1-5.756-8.202l-.422.269a115.6 115.6 0 0 1-5.042-8.71l.444-.232a114.01 114.01 0 0 1-4.244-9.079l-.462.192a114.65 114.65 0 0 1-3.446-9.457l.477-.151a114.072 114.072 0 0 1-2.59-9.677l-.488.107a115.034 115.034 0 0 1-1.739-9.911l.496-.065a115.561 115.561 0 0 1-.864-9.986l-.5.021c-.072-1.67-.108-3.349-.108-5.036v-4.797h.5v-9.595h-.5v-9.595h.5v-9.594h-.5v-9.595h.5v-9.594h-.5v-9.595h.5v-9.594h-.5v-9.595h.5v-9.595h-.5v-9.594h.5v-9.595h-.5v-9.594h.5v-9.595h-.5v-9.594h.5v-9.595h-.5v-9.595h.5v-9.594h-.5v-4.797c0-1.912.093-3.802.275-5.667l.497.049a57.01 57.01 0 0 1 2.184-11.019l-.479-.145a57.477 57.477 0 0 1 4.343-10.466l.44.237a57.557 57.557 0 0 1 6.25-9.334l-.386-.317a58.22 58.22 0 0 1 8.012-8.012l.317.386a57.557 57.557 0 0 1 9.334-6.25l-.236-.44a57.397 57.397 0 0 1 10.465-4.343l.145.479a57.01 57.01 0 0 1 11.019-2.184l-.049-.497a58.329 58.329 0 0 1 5.667-.275c1.515 0 3.017-.059 4.503-.175l.039.499a57.625 57.625 0 0 0 8.964-1.412l-.116-.486a56.884 56.884 0 0 0 8.555-2.781l.191.462a57.653 57.653 0 0 0 8.083-4.128l-.262-.426a57.557 57.557 0 0 0 7.275-5.296l.325.38a58.332 58.332 0 0 0 6.417-6.417l-.38-.325a57.526 57.526 0 0 0 5.296-7.275l.426.262a57.635 57.635 0 0 0 4.128-8.083l-.462-.191a56.852 56.852 0 0 0 2.781-8.555l.486.116a57.629 57.629 0 0 0 1.412-8.964l-.499-.039c.116-1.486.175-2.988.175-4.503z" stroke="#00ED64" stroke-dasharray="10 10"></path>
  </symbol>
  <symbol viewBox="0 0 18 20" fill="none" xmlns="http://www.w3.org/2000/svg" id="calendar-icon">
    <path d="M9 12a.965.965 0 0 1-.712-.288A.965.965 0 0 1 8 11c0-.283.096-.521.288-.713A.967.967 0 0 1 9 10a.97.97 0 0 1 .713.287A.97.97 0 0 1 10 11a.97.97 0 0 1-.287.712A.968.968 0 0 1 9 12zm-4 0a.968.968 0 0 1-.713-.288A.967.967 0 0 1 4 11a.97.97 0 0 1 .287-.713A.97.97 0 0 1 5 10a.97.97 0 0 1 .713.287A.97.97 0 0 1 6 11a.97.97 0 0 1-.287.712A.968.968 0 0 1 5 12zm8 0a.965.965 0 0 1-.712-.288A.965.965 0 0 1 12 11c0-.283.096-.521.288-.713A.967.967 0 0 1 13 10a.97.97 0 0 1 .712.287c.192.192.288.43.288.713s-.096.52-.288.712A.965.965 0 0 1 13 12zm-4 4a.965.965 0 0 1-.712-.288A.965.965 0 0 1 8 15c0-.283.096-.52.288-.712A.965.965 0 0 1 9 14c.283 0 .521.096.713.288A.967.967 0 0 1 10 15a.97.97 0 0 1-.287.712A.968.968 0 0 1 9 16zm-4 0a.968.968 0 0 1-.713-.288A.967.967 0 0 1 4 15a.97.97 0 0 1 .287-.712A.968.968 0 0 1 5 14c.283 0 .521.096.713.288A.967.967 0 0 1 6 15a.97.97 0 0 1-.287.712A.968.968 0 0 1 5 16zm8 0a.965.965 0 0 1-.712-.288A.965.965 0 0 1 12 15c0-.283.096-.52.288-.712A.965.965 0 0 1 13 14c.283 0 .52.096.712.288A.965.965 0 0 1 14 15c0 .283-.096.52-.288.712A.965.965 0 0 1 13 16zM2 20a1.93 1.93 0 0 1-1.413-.587A1.928 1.928 0 0 1 0 18V4c0-.55.196-1.02.587-1.412A1.927 1.927 0 0 1 2 2h1V0h2v2h8V0h2v2h1c.55 0 1.021.196 1.413.588.391.391.587.862.587 1.412v14a1.93 1.93 0 0 1-.587 1.413A1.928 1.928 0 0 1 16 20H2zm0-2h14V8H2v10z" fill="#00ED64"></path>
  </symbol>
  <symbol viewBox="0 0 24 25" fill="none" xmlns="http://www.w3.org/2000/svg" id="check_box">
    <mask id="a" maskUnits="userSpaceOnUse" x="0" y="0" width="24" height="25">
      <path fill="#D9D9D9" d="M0 .5h24v24H0z"></path>
    </mask>
    <g mask="url(#a)">
      <path d="M10.6 16.7l7.05-7.05-1.4-1.4-5.65 5.65-2.85-2.85-1.4 1.4 4.25 4.25zM5 21.5c-.55 0-1.02-.196-1.413-.587A1.926 1.926 0 0 1 3 19.5v-14c0-.55.196-1.02.587-1.412A1.926 1.926 0 0 1 5 3.5h14c.55 0 1.02.196 1.413.588.391.391.587.862.587 1.412v14c0 .55-.196 1.02-.587 1.413A1.926 1.926 0 0 1 19 21.5H5z" fill="#00ED64"></path>
    </g>
  </symbol>
  <symbol viewBox="0 0 30 30" fill="none" xmlns="http://www.w3.org/2000/svg" id="contact-form-featured-icon">
    <mask id="a" maskUnits="userSpaceOnUse" x="0" y="0" width="30" height="30">
      <path fill="#D9D9D9" d="M0 0h30v30H0z"></path>
    </mask>
    <g mask="url(#a)">
      <path d="M13.75 26.25v-2.5h10v-8.875c0-1.208-.23-2.344-.688-3.406a8.846 8.846 0 0 0-1.875-2.781 8.846 8.846 0 0 0-2.78-1.876A8.507 8.507 0 0 0 15 6.125c-1.208 0-2.344.23-3.406.688a8.846 8.846 0 0 0-2.781 1.875 8.847 8.847 0 0 0-1.876 2.78 8.507 8.507 0 0 0-.687 3.407V22.5H5a2.407 2.407 0 0 1-1.765-.734A2.408 2.408 0 0 1 2.5 20v-2.5c0-.48.115-.901.344-1.266.229-.364.531-.661.906-.89l.094-1.656c.187-1.521.62-2.896 1.297-4.126a10.95 10.95 0 0 1 2.532-3.124 11.375 11.375 0 0 1 3.406-1.986A11.166 11.166 0 0 1 15 3.75c1.375 0 2.693.234 3.954.702 1.26.47 2.39 1.136 3.39 2 1 .865 1.838 1.907 2.516 3.126.677 1.219 1.109 2.578 1.296 4.078l.094 1.625c.375.188.677.464.906.828.23.365.344.766.344 1.203v2.875a2.2 2.2 0 0 1-.344 1.22 2.28 2.28 0 0 1-.906.812v1.531a2.41 2.41 0 0 1-.734 1.766 2.41 2.41 0 0 1-1.766.734h-10zm-2.5-8.75c-.354 0-.65-.12-.89-.36s-.36-.536-.36-.89.12-.651.36-.891.536-.359.89-.359.651.12.891.359c.24.24.359.537.359.891s-.12.65-.359.89c-.24.24-.537.36-.891.36zm7.5 0c-.354 0-.65-.12-.89-.36s-.36-.536-.36-.89.12-.651.36-.891.536-.359.89-.359.651.12.891.359c.24.24.359.537.359.891s-.12.65-.359.89c-.24.24-.537.36-.891.36zM7.531 15.562c-.083-1.229.089-2.343.516-3.343.427-1 1-1.85 1.718-2.548a7.575 7.575 0 0 1 2.485-1.608 7.524 7.524 0 0 1 2.813-.563c1.895 0 3.536.6 4.922 1.797 1.385 1.198 2.223 2.693 2.515 4.484-1.958-.02-3.73-.547-5.313-1.579-1.583-1.03-2.78-2.369-3.593-4.014a9.98 9.98 0 0 1-2.109 4.483 9.727 9.727 0 0 1-3.954 2.892z" fill="#00ED64"></path>
    </g>
  </symbol>
  <symbol viewBox="0 0 23 22" fill="none" xmlns="http://www.w3.org/2000/svg" id="cross-icon">
    <path d="M21.25 1.5l-19.5 19m0-19l19.5 19" stroke="#fff" stroke-width="3" stroke-linecap="round" stroke-linejoin="round"></path>
  </symbol>
  <symbol viewBox="0 0 207 383" fill="none" xmlns="http://www.w3.org/2000/svg" id="developer-teams-section-decorator">
    <path opacity=".5" d="M-139.365-20.702c0-1.912.093-3.802.274-5.666l.498.048a57.07 57.07 0 0 1 2.183-11.019l-.478-.145a57.39 57.39 0 0 1 4.343-10.465l.44.236a57.537 57.537 0 0 1 6.25-9.334l-.386-.317a58.207 58.207 0 0 1 8.012-8.012l.317.387a57.446 57.446 0 0 1 9.334-6.25l-.237-.441a57.462 57.462 0 0 1 10.466-4.343l.145.479a56.988 56.988 0 0 1 11.019-2.184l-.049-.497a58.409 58.409 0 0 1 5.667-.275h4.797v.5h9.594v-.5h9.595v.5h9.595v-.5h9.594v.5h9.595v-.5h9.594v.5h9.595v-.5h9.594v.5h9.595v-.5h9.595v.5h9.594v-.5h9.595v.5h9.594v-.5h9.595v.5h9.594v-.5h9.595v.5h9.595v-.5h4.797c1.687 0 3.366.036 5.036.108l-.021.5c3.368.145 6.699.435 9.986.864l.065-.496a114.84 114.84 0 0 1 9.911 1.739l-.107.488c3.28.725 6.508 1.59 9.677 2.59l.15-.477a114.43 114.43 0 0 1 9.458 3.446l-.192.462a114.253 114.253 0 0 1 9.079 4.243l.231-.443a115.316 115.316 0 0 1 8.711 5.042l-.269.422a115.223 115.223 0 0 1 8.202 5.755l.305-.396a116.05 116.05 0 0 1 7.706 6.474l-.338.368a115.856 115.856 0 0 1 7.086 7.086l.368-.338a116.012 116.012 0 0 1 6.474 7.706l-.397.305a115.022 115.022 0 0 1 5.756 8.202l.422-.269a115.627 115.627 0 0 1 5.042 8.71l-.443.232a114.423 114.423 0 0 1 4.243 9.079l.462-.192a114.632 114.632 0 0 1 3.446 9.458l-.477.15a114.01 114.01 0 0 1 2.59 9.678l.488-.108c.719 3.254 1.301 6.56 1.739 9.911l-.496.065c.429 3.287.719 6.618.864 9.986l.5-.021a116.921 116.921 0 0 1 0 10.073l-.5-.022a115.566 115.566 0 0 1-.864 9.986l.496.065a115.086 115.086 0 0 1-1.739 9.912l-.488-.108a114.015 114.015 0 0 1-2.59 9.677l.477.15a114.62 114.62 0 0 1-3.446 9.458l-.462-.191a114.434 114.434 0 0 1-4.243 9.079l.443.23a115.605 115.605 0 0 1-5.042 8.711l-.422-.269a115.213 115.213 0 0 1-5.756 8.203l.397.304a115.964 115.964 0 0 1-6.474 7.706l-.368-.338a115.8 115.8 0 0 1-7.086 7.086l.338.369a116.255 116.255 0 0 1-7.706 6.473l-.305-.396a115.616 115.616 0 0 1-8.202 5.756l.269.421a115.26 115.26 0 0 1-8.71 5.042l-.232-.443a114.354 114.354 0 0 1-9.079 4.243l.192.462a114.287 114.287 0 0 1-9.457 3.446l-.151-.477c-3.169 1-6.397 1.865-9.677 2.59l.107.488a114.65 114.65 0 0 1-9.911 1.739l-.065-.496c-3.287.43-6.618.72-9.986.865l.021.499c-1.67.072-3.349.108-5.036.108-1.681 0-3.354.037-5.017.108l-.022-.499c-3.384.145-6.73.437-10.033.868l.065.496c-3.338.436-6.63 1.015-9.872 1.732l-.108-.489a114.679 114.679 0 0 0-9.723 2.602l.15.477a114.134 114.134 0 0 0-9.418 3.432l-.192-.462a114.694 114.694 0 0 0-9.122 4.264l.232.443a114.842 114.842 0 0 0-8.676 5.022l-.269-.421a115.608 115.608 0 0 0-8.24 5.782l.304.397a115.27 115.27 0 0 0-7.675 6.448l-.338-.369a116.125 116.125 0 0 0-7.12 7.12l.369.338a115.6 115.6 0 0 0-6.448 7.675l-.397-.305a115.924 115.924 0 0 0-5.782 8.241l.42.269a114.89 114.89 0 0 0-5.021 8.676l-.443-.232a115.075 115.075 0 0 0-4.264 9.122l.462.192a113.89 113.89 0 0 0-3.432 9.419l-.477-.151a114.49 114.49 0 0 0-2.602 9.723l.488.108a114.427 114.427 0 0 0-1.731 9.872l-.496-.065a115.934 115.934 0 0 0-.868 10.033l.5.022a116.644 116.644 0 0 0-.109 5.017c0 1.687-.036 3.366-.108 5.036l-.5-.021a115.363 115.363 0 0 1-.864 9.986l.496.065a114.84 114.84 0 0 1-1.739 9.911l-.488-.107c-.725 3.28-1.59 6.508-2.59 9.677l.477.15a114.43 114.43 0 0 1-3.446 9.458l-.462-.192a114.253 114.253 0 0 1-4.243 9.079l.443.232a115.296 115.296 0 0 1-5.042 8.71l-.421-.269a115.223 115.223 0 0 1-5.756 8.202l.396.305a116.05 116.05 0 0 1-6.473 7.706l-.369-.338a115.856 115.856 0 0 1-7.086 7.086l.338.368a116.012 116.012 0 0 1-7.706 6.474l-.305-.397a115.022 115.022 0 0 1-8.202 5.756l.27.422a115.627 115.627 0 0 1-8.711 5.042l-.231-.443a114.434 114.434 0 0 1-9.08 4.243l.192.462a114.684 114.684 0 0 1-9.457 3.446l-.15-.477a113.994 113.994 0 0 1-9.678 2.59l.108.488a115.124 115.124 0 0 1-9.912 1.739l-.065-.496c-3.287.429-6.618.719-9.986.864l.022.5a116.927 116.927 0 0 1-10.073 0l.021-.5a115.561 115.561 0 0 1-9.986-.864l-.065.496a115.034 115.034 0 0 1-9.911-1.739l.107-.488a114.072 114.072 0 0 1-9.677-2.59l-.15.477a114.54 114.54 0 0 1-9.458-3.446l.192-.462a114.354 114.354 0 0 1-9.079-4.243l-.231.443a115.423 115.423 0 0 1-8.711-5.042l.269-.422a115.278 115.278 0 0 1-8.202-5.755l-.305.396a115.964 115.964 0 0 1-7.706-6.474l.338-.368a116.083 116.083 0 0 1-7.086-7.086l-.368.338a115.964 115.964 0 0 1-6.474-7.706l.397-.305a114.967 114.967 0 0 1-5.756-8.202l-.422.269a115.6 115.6 0 0 1-5.042-8.71l.444-.232a114.01 114.01 0 0 1-4.244-9.079l-.462.192a114.65 114.65 0 0 1-3.446-9.457l.477-.151a114.072 114.072 0 0 1-2.59-9.677l-.488.107a115.034 115.034 0 0 1-1.739-9.911l.496-.065a115.561 115.561 0 0 1-.864-9.986l-.5.021c-.072-1.67-.108-3.349-.108-5.036v-4.797h.5v-9.595h-.5v-9.595h.5v-9.594h-.5v-9.595h.5v-9.594h-.5v-9.595h.5v-9.594h-.5v-9.595h.5v-9.595h-.5v-9.594h.5v-9.595h-.5v-9.594h.5v-9.595h-.5v-9.594h.5v-9.595h-.5v-9.595h.5V99.23h-.5v-4.797c0-1.912.093-3.802.275-5.667l.497.049a56.996 56.996 0 0 1 2.184-11.019l-.479-.145a57.461 57.461 0 0 1 4.343-10.465l.44.236a57.529 57.529 0 0 1 6.25-9.334l-.386-.317a58.207 58.207 0 0 1 8.012-8.012l.317.386a57.46 57.46 0 0 1 9.334-6.25l-.236-.44a57.452 57.452 0 0 1 10.465-4.343l.145.478a57.003 57.003 0 0 1 11.019-2.183l-.049-.497a58.424 58.424 0 0 1 5.667-.275c1.515 0 3.017-.059 4.503-.175l.039.499a57.672 57.672 0 0 0 8.964-1.412l-.116-.486a56.928 56.928 0 0 0 8.555-2.78l.191.461a57.688 57.688 0 0 0 8.083-4.128l-.262-.426a57.604 57.604 0 0 0 7.275-5.296l.325.38a58.308 58.308 0 0 0 6.417-6.417l-.38-.325a57.528 57.528 0 0 0 5.296-7.275l.426.262a57.629 57.629 0 0 0 4.128-8.083l-.462-.191a56.848 56.848 0 0 0 2.781-8.555l.486.116a57.63 57.63 0 0 0 1.412-8.964l-.499-.039c.116-1.486.175-2.988.175-4.503z" stroke="#00ED64" stroke-dasharray="10 10"></path>
  </symbol>
  <symbol viewBox="0 0 24 24" fill="none" xmlns="http://www.w3.org/2000/svg" id="diagonal-arrow">
    <mask id="a" maskUnits="userSpaceOnUse" x="0" y="0" width="24" height="24">
      <path fill="#D9D9D9" d="M0 0h24v24H0z"></path>
    </mask>
    <g mask="url(#a)">
      <path d="M5.4 20L4 18.6 15.6 7H9V5h10v10h-2V8.4L5.4 20z" fill="#00ED64"></path>
    </g>
  </symbol>
  <symbol viewBox="0 0 12 16" fill="none" xmlns="http://www.w3.org/2000/svg" id="down-arrow">
    <path d="M12 10l-1.45-1.4L7 12.15V0H5v12.15L1.45 8.6 0 10l6 6 6-6z" fill="#001E2B"></path>
  </symbol>
  <symbol viewBox="0 0 80 80" fill="none" xmlns="http://www.w3.org/2000/svg" id="error-page-icon">
    <g clip-path="url(#clip0_8_2)">
      <path d="M40 79.5c21.815 0 39.5-17.685 39.5-39.5S61.815.5 40 .5.5 18.185.5 40 18.185 79.5 40 79.5z" stroke="#00ED64"></path>
      <path d="M40 72c17.673 0 32-14.327 32-32C72 22.327 57.673 8 40 8 22.327 8 8 22.327 8 40c0 17.673 14.327 32 32 32z" fill="#00ED64"></path>
      <mask id="a" maskUnits="userSpaceOnUse" x="20" y="20" width="41" height="40">
        <path d="M60.8 20.8h-40v38.4h40V20.8z" fill="#fff"></path>
      </mask>
      <g mask="url(#a)" fill="#fff" stroke="#fff">
        <path d="M41.968 48.8c0 .285-.118.563-.334.77a1.2 1.2 0 0 1-.833.33 1.2 1.2 0 0 1-.832-.33 1.068 1.068 0 0 1-.334-.77c0-.285.117-.563.334-.77a1.2 1.2 0 0 1 .832-.33c.316 0 .615.12.833.33.216.207.334.485.334.77zm-.629-13.688a.676.676 0 0 1 .212.488v7.2a.676.676 0 0 1-.212.488.777.777 0 0 1-.538.212.777.777 0 0 1-.537-.212.676.676 0 0 1-.213-.488v-7.2c0-.179.074-.355.213-.488a.777.777 0 0 1 .537-.212c.206 0 .399.078.538.212z"></path>
        <path d="M42.672 26.934v-.001a2.14 2.14 0 0 0-.797-.762 2.224 2.224 0 0 0-2.148 0 2.138 2.138 0 0 0-.797.762l-.001.001L23.986 51.74l-.001.002a2.054 2.054 0 0 0 .002 2.114c.192.32.467.582.795.765.327.182.698.278 1.074.279h29.89a2.224 2.224 0 0 0 1.073-.28c.327-.181.602-.444.794-.764a2.055 2.055 0 0 0 .004-2.112l-.002-.002-14.943-24.808zm-5.05-.686c1.41-2.34 4.946-2.34 6.357 0l14.945 24.807c1.386 2.303-.324 5.245-3.18 5.245H25.857c-2.857 0-4.566-2.942-3.18-5.245l14.945-24.807z"></path>
      </g>
    </g>
    <defs>
      <clipPath id="clip0_8_2">
        <path fill="#fff" d="M0 0h80v80H0z"></path>
      </clipPath>
    </defs>
  </symbol>
  <symbol xmlns="http://www.w3.org/2000/svg" viewBox="0 0 16 16" aria-busy="false" id="exit-icon">
    <path d="M12 10v3a1 1 0 0 1-1 1H3a1 1 0 0 1-1-1V5a1 1 0 0 1 1-1h3v2H4v6h6v-2h2zm1-8H8v2h2.67L6 8.67 7.33 10 12 5.33V8h2V3a1 1 0 0 0-1-1z" fill="currentColor"></path>
  </symbol>
  <symbol viewBox="0 0 20 20" fill="none" xmlns="http://www.w3.org/2000/svg" id="facebook-blogs-green-icon">
    <path fill-rule="evenodd" clip-rule="evenodd" d="M12.697 4.203c-.337 0-.714.438-.714 1.025v2.037h3.572v2.904h-3.572v8.72H8.611v-8.72H5.555V7.265H8.61V5.556c0-2.45 1.723-4.445 4.086-4.445h2.858v3.092h-2.858z" fill="#00ED64"></path>
  </symbol>
  <symbol xmlns="http://www.w3.org/2000/svg" viewBox="0 0 800 800" id="facebook-round-svgrepo-com">
    <path d="M400 0C179.1 0 0 179.1 0 400s179.1 400 400 400 400-179.1 400-400S620.9 0 400 0zm88.3 332.2l-4.5 59.8h-61.4v207.8h-77.5V392h-41.4v-59.8h41.4V292c0-17.7.5-45 13.3-62 13.6-18 32.2-30.2 64.2-30.2 52.2 0 74.1 7.5 74.1 7.5l-10.3 61.3s-17.2-5-33.3-5c-16.1 0-30.5 5.8-30.5 21.9v46.7h65.9z" fill="#666"></path>
  </symbol>
  <symbol viewBox="0 0 24 24" fill="none" xmlns="http://www.w3.org/2000/svg" id="facebook">
    <g clip-path="url(#clip0_446_6379)">
      <path d="M12 .05c-6.627 0-12 5.372-12 12 0 5.944 4.326 10.866 9.999 11.82v-9.317H7.104v-3.352h2.895V8.729c0-2.868 1.752-4.432 4.31-4.432 1.226 0 2.28.092 2.585.132v2.998l-1.775.001c-1.391 0-1.66.661-1.66 1.631v2.14h3.32l-.432 3.353H13.46v9.398C19.397 23.227 24 18.18 24 12.046 24 5.422 18.627.05 12 .05z" fill="#fff"></path>
    </g>
    <defs>
      <clipPath id="clip0_446_6379">
        <path fill="#fff" d="M0 0h24v24H0z"></path>
      </clipPath>
    </defs>
  </symbol>
  <symbol viewBox="0 0 171 315" fill="none" xmlns="http://www.w3.org/2000/svg" id="faqs-corner-icon">
    <path opacity=".5" d="M346.365-88.702c0-1.912-.093-3.802-.274-5.666l-.498.048a57.084 57.084 0 0 0-2.183-11.019l.478-.145a57.397 57.397 0 0 0-4.343-10.465l-.44.236a57.504 57.504 0 0 0-6.25-9.333l.386-.318a58.22 58.22 0 0 0-8.012-8.012l-.317.387a57.427 57.427 0 0 0-9.334-6.25l.237-.441a57.477 57.477 0 0 0-10.466-4.343l-.145.479a57.01 57.01 0 0 0-11.019-2.184l.049-.497a58.329 58.329 0 0 0-5.667-.275h-4.797v.5h-9.594v-.5h-9.595v.5h-9.595v-.5h-9.594v.5h-9.595v-.5h-9.594v.5h-9.595v-.5h-9.594v.5h-9.595v-.5h-9.595v.5h-9.594v-.5h-9.595v.5h-9.594v-.5h-9.595v.5h-9.594v-.5h-9.595v.5h-9.595v-.5h-4.797c-1.687 0-3.366.036-5.036.108l.021.5c-3.368.145-6.699.435-9.986.864l-.065-.496c-3.35.438-6.657 1.02-9.911 1.739l.108.488c-3.281.725-6.51 1.591-9.678 2.59l-.15-.477a114.646 114.646 0 0 0-9.458 3.446l.192.462a114.434 114.434 0 0 0-9.08 4.243l-.23-.443a115.605 115.605 0 0 0-8.71 5.042l.268.422a115.022 115.022 0 0 0-8.202 5.756l-.305-.397a116.012 116.012 0 0 0-7.706 6.474l.338.368a115.884 115.884 0 0 0-7.086 7.086l-.368-.338a116.05 116.05 0 0 0-6.474 7.706l.397.305a115.223 115.223 0 0 0-5.756 8.202l-.422-.269a115.322 115.322 0 0 0-5.042 8.71l.444.232a114.324 114.324 0 0 0-4.244 9.079l-.462-.192a114.502 114.502 0 0 0-3.446 9.458l.477.15a113.95 113.95 0 0 0-2.59 9.678l-.488-.108a114.86 114.86 0 0 0-1.739 9.911l.496.065c-.43 3.287-.72 6.618-.864 9.986l-.5-.021a117.162 117.162 0 0 0 0 10.073l.5-.022c.145 3.368.435 6.7.864 9.986l-.496.065c.438 3.351 1.02 6.657 1.739 9.912l.488-.108c.725 3.28 1.59 6.509 2.59 9.677l-.477.15a114.495 114.495 0 0 0 3.446 9.458l.462-.191a114.348 114.348 0 0 0 4.243 9.078l-.443.232a115.333 115.333 0 0 0 5.042 8.71l.422-.269a115.301 115.301 0 0 0 5.756 8.203l-.397.304a116.067 116.067 0 0 0 6.474 7.706l.368-.338a115.688 115.688 0 0 0 7.086 7.086l-.338.369a116.06 116.06 0 0 0 7.706 6.473l.305-.396a115.236 115.236 0 0 0 8.202 5.756l-.269.421a115.287 115.287 0 0 0 8.71 5.042l.232-.443a114.35 114.35 0 0 0 9.079 4.243l-.192.462a114.487 114.487 0 0 0 9.458 3.446l.15-.477c3.169 1 6.397 1.865 9.677 2.59l-.108.488a114.74 114.74 0 0 0 9.912 1.739l.065-.496c3.287.43 6.618.72 9.986.865l-.021.5c1.67.071 3.349.107 5.036.107 1.681 0 3.354.036 5.017.108l.022-.5c3.384.146 6.73.438 10.033.87l-.065.495a114.58 114.58 0 0 1 9.872 1.731l.108-.488a114.49 114.49 0 0 1 9.723 2.602l-.151.477a113.89 113.89 0 0 1 9.419 3.432l.192-.462a115.11 115.11 0 0 1 9.122 4.264l-.232.443c2.97 1.55 5.865 3.227 8.676 5.022l.269-.421a115.72 115.72 0 0 1 8.241 5.782l-.305.397a115.288 115.288 0 0 1 7.675 6.448l.338-.369a116.062 116.062 0 0 1 7.12 7.12l-.369.338a115.288 115.288 0 0 1 6.448 7.675l.397-.305a115.72 115.72 0 0 1 5.782 8.241l-.421.269a114.894 114.894 0 0 1 5.022 8.676l.443-.232a114.903 114.903 0 0 1 4.264 9.122l-.462.192a113.961 113.961 0 0 1 3.432 9.419l.477-.151a114.679 114.679 0 0 1 2.602 9.723l-.489.108a114.197 114.197 0 0 1 1.732 9.872l.496-.065c.431 3.303.723 6.649.868 10.033l-.499.022c.071 1.663.108 3.336.108 5.017 0 1.687.036 3.366.108 5.036l.499-.021c.145 3.368.435 6.699.865 9.986l-.496.065a114.65 114.65 0 0 0 1.739 9.911l.488-.107c.725 3.28 1.59 6.508 2.589 9.677l-.476.15a113.815 113.815 0 0 0 3.446 9.458l.461-.192a114.717 114.717 0 0 0 4.244 9.079l-.443.232a114.92 114.92 0 0 0 5.042 8.71l.421-.269a115.616 115.616 0 0 0 5.756 8.202l-.396.305a115.95 115.95 0 0 0 6.473 7.706l.369-.338a115.8 115.8 0 0 0 7.086 7.086l-.338.368a115.964 115.964 0 0 0 7.706 6.474l.304-.397a115.213 115.213 0 0 0 8.203 5.756l-.269.422a115.6 115.6 0 0 0 8.71 5.042l.231-.443a114.519 114.519 0 0 0 9.079 4.243l-.191.462a114.65 114.65 0 0 0 9.457 3.446l.15-.477c3.169.999 6.397 1.865 9.678 2.59l-.108.488c3.255.719 6.561 1.301 9.912 1.739l.065-.496c3.287.429 6.618.719 9.986.864l-.022.5a116.927 116.927 0 0 0 10.073 0l-.021-.5c3.368-.145 6.699-.435 9.986-.864l.065.496c3.351-.438 6.657-1.02 9.911-1.739l-.107-.488c3.28-.725 6.508-1.591 9.677-2.59l.15.477a114.54 114.54 0 0 0 9.458-3.446l-.192-.462a114.354 114.354 0 0 0 9.079-4.243l.231.443a115.423 115.423 0 0 0 8.711-5.042l-.269-.422a115.278 115.278 0 0 0 8.202-5.755l.305.396a115.964 115.964 0 0 0 7.706-6.474l-.338-.368a116.083 116.083 0 0 0 7.086-7.086l.368.338a115.964 115.964 0 0 0 6.474-7.706l-.397-.305a114.967 114.967 0 0 0 5.756-8.202l.422.269a115.6 115.6 0 0 0 5.042-8.71l-.444-.232a114.01 114.01 0 0 0 4.244-9.079l.462.192a114.65 114.65 0 0 0 3.446-9.457l-.477-.151a114.072 114.072 0 0 0 2.59-9.677l.488.107c.719-3.254 1.301-6.56 1.739-9.911l-.496-.065c.429-3.287.719-6.618.864-9.986l.5.021c.072-1.67.108-3.349.108-5.036v-4.797h-.5v-9.595h.5v-9.595h-.5v-9.594h.5v-9.595h-.5v-9.594h.5v-9.595h-.5v-9.594h.5v-9.595h-.5v-9.595h.5v-9.594h-.5v-9.595h.5v-9.594h-.5v-9.595h.5v-9.594h-.5v-9.595h.5v-9.594h-.5V31.23h.5v-4.797c0-1.912-.093-3.802-.275-5.667l-.497.049a56.997 56.997 0 0 0-2.184-11.019l.479-.145A57.461 57.461 0 0 0 454.68-.815l-.44.237a57.534 57.534 0 0 0-6.25-9.334l.386-.317a58.207 58.207 0 0 0-8.012-8.012l-.317.386a57.46 57.46 0 0 0-9.334-6.25l.236-.44a57.452 57.452 0 0 0-10.465-4.343l-.145.479a57.003 57.003 0 0 0-11.019-2.184l.049-.497a58.424 58.424 0 0 0-5.667-.275c-1.515 0-3.017-.059-4.503-.175l-.039.499a57.672 57.672 0 0 1-8.964-1.412l.116-.486a56.928 56.928 0 0 1-8.555-2.78l-.191.461a57.688 57.688 0 0 1-8.083-4.128l.262-.426a57.604 57.604 0 0 1-7.275-5.296l-.325.38a58.308 58.308 0 0 1-6.417-6.417l.38-.325a57.526 57.526 0 0 1-5.296-7.275l-.426.262a57.635 57.635 0 0 1-4.128-8.083l.462-.191a56.852 56.852 0 0 1-2.781-8.555l-.486.116a57.629 57.629 0 0 1-1.412-8.964l.499-.039a57.852 57.852 0 0 1-.175-4.503z" stroke="#00ED64" stroke-dasharray="10 10"></path>
  </symbol>
  <symbol xmlns="http://www.w3.org/2000/svg" viewBox="0 0 185 185" id="favicon-dark">
    <rect width="185" height="185" rx="65" fill="#21313c"></rect>
    <path fill="#00ed64" d="M82.23 110.3v23.72l-20.55-11.85v-.01L41.15 110.3h-.02V86.58h.02l20.53-11.87h.02l20.53-11.87 20.55 11.87-20.53 11.87h-.02L61.7 98.43l20.53 11.87z"></path>
    <path fill="#fff" d="M143.87 74.7v23.73l-20.55 11.86-20.55 11.87-20.54-11.87 20.54-11.86h.01l20.54-11.86-20.55-11.87V50.98l20.55 11.86 20.55 11.86z"></path>
  </symbol>
  <symbol xmlns="http://www.w3.org/2000/svg" viewBox="0 0 185 185" id="favicon">
    <rect width="185" height="185" rx="65" fill="#fff"></rect>
    <path fill="#00ed64" d="M82.23 110.3v23.72l-20.55-11.85v-.01L41.15 110.3h-.02V86.58h.02l20.53-11.87h.02l20.53-11.87 20.55 11.87-20.53 11.87h-.02L61.7 98.43l20.53 11.87z"></path>
    <path fill="#21313c" d="M143.87 74.7v23.73l-20.55 11.86-20.55 11.87-20.54-11.87 20.54-11.86h.01l20.54-11.86-20.55-11.87V50.98l20.55 11.86 20.55 11.86z"></path>
  </symbol>
  <symbol viewBox="0 0 24 24" fill="none" xmlns="http://www.w3.org/2000/svg" id="footer-github-green-icon">
    <path d="M12 2A10 10 0 0 0 2 12c0 4.42 2.87 8.17 6.84 9.5.5.08.66-.23.66-.5v-1.69c-2.77.6-3.36-1.34-3.36-1.34-.46-1.16-1.11-1.47-1.11-1.47-.91-.62.07-.6.07-.6 1 .07 1.53 1.03 1.53 1.03.87 1.52 2.34 1.07 2.91.83.09-.65.35-1.09.63-1.34-2.22-.25-4.55-1.11-4.55-4.92 0-1.11.38-2 1.03-2.71-.1-.25-.45-1.29.1-2.64 0 0 .84-.27 2.75 1.02.79-.22 1.65-.33 2.5-.33.85 0 1.71.11 2.5.33 1.91-1.29 2.75-1.02 2.75-1.02.55 1.35.2 2.39.1 2.64.65.71 1.03 1.6 1.03 2.71 0 3.82-2.34 4.66-4.57 4.91.36.31.69.92.69 1.85V21c0 .27.16.59.67.5C19.14 20.16 22 16.42 22 12A10 10 0 0 0 12 2z" fill="#00ED64"></path>
  </symbol>
  <symbol viewBox="0 0 20 19" fill="none" xmlns="http://www.w3.org/2000/svg" id="footer-github-white-icon">
    <g clip-path="url(#clip0_45_5448)">
      <path d="M10.406.238a9.49 9.49 0 0 0-9.5 9.5c0 4.185 2.732 7.749 6.501 9.024.475.09.654-.207.654-.445v-1.602c-2.642.563-3.207-1.277-3.207-1.277-.445-1.1-1.068-1.396-1.068-1.396-.86-.594.06-.564.06-.564.95.06 1.453.98 1.453.98.862 1.454 2.227 1.04 2.762.8.09-.622.326-1.038.593-1.275-2.107-.238-4.333-1.068-4.333-4.69 0-1.04.355-1.87.978-2.553-.088-.238-.415-1.218.09-2.525 0 0 .8-.267 2.612.98a9.166 9.166 0 0 1 2.375-.326c.801 0 1.633.119 2.375.326 1.812-1.217 2.613-.98 2.613-.98.505 1.307.178 2.287.09 2.525.624.651.98 1.513.98 2.551 0 3.652-2.228 4.454-4.335 4.692.325.297.652.86.652 1.75v2.614c0 .268.178.563.653.445 3.772-1.307 6.502-4.869 6.502-9.054a9.49 9.49 0 0 0-9.5-9.5z" fill="#666"></path>
    </g>
    <defs>
      <clipPath id="clip0_45_5448">
        <path fill="#fff" transform="translate(.906)" d="M0 0h19v19H0z"></path>
      </clipPath>
    </defs>
  </symbol>
  <symbol viewBox="0 0 20 19" fill="none" xmlns="http://www.w3.org/2000/svg" id="footer-github">
    <g clip-path="url(#clip0_1_4)">
      <mask id="a" maskUnits="userSpaceOnUse" x="0" y="0" width="20" height="19">
        <path d="M19.906 0h-19v19h19V0z" fill="#fff"></path>
      </mask>
      <g mask="url(#a)">
        <path d="M10.406.238a9.49 9.49 0 0 0-9.5 9.5c0 4.185 2.732 7.749 6.501 9.024.475.09.654-.207.654-.445v-1.602c-2.642.563-3.207-1.277-3.207-1.277-.445-1.1-1.068-1.396-1.068-1.396-.86-.594.06-.564.06-.564.95.06 1.453.98 1.453.98.862 1.454 2.227 1.04 2.762.8.09-.622.326-1.038.593-1.275-2.107-.238-4.333-1.068-4.333-4.69 0-1.04.355-1.87.978-2.553-.088-.238-.415-1.218.09-2.525 0 0 .8-.267 2.612.98a9.166 9.166 0 0 1 2.375-.326c.801 0 1.633.119 2.375.326 1.812-1.217 2.613-.98 2.613-.98.505 1.307.178 2.287.09 2.525.624.651.98 1.513.98 2.551 0 3.652-2.228 4.454-4.335 4.692.325.297.652.86.652 1.75v2.614c0 .268.178.563.653.445 3.772-1.307 6.502-4.869 6.502-9.054a9.49 9.49 0 0 0-9.5-9.5z" fill="#fff"></path>
      </g>
    </g>
    <defs>
      <clipPath id="clip0_1_4">
        <path fill="#fff" d="M0 0h20v19H0z"></path>
      </clipPath>
    </defs>
  </symbol>
  <symbol viewBox="0 0 24 24" fill="none" xmlns="http://www.w3.org/2000/svg" id="footer-twitter-green-icon">
    <path d="M22.46 6c-.77.35-1.6.58-2.46.69.88-.53 1.56-1.37 1.88-2.38-.83.5-1.75.85-2.72 1.05C18.37 4.5 17.26 4 16 4c-2.35 0-4.27 1.92-4.27 4.29 0 .34.04.67.11.98C8.28 9.09 5.11 7.38 3 4.79c-.37.63-.58 1.37-.58 2.15 0 1.49.75 2.81 1.91 3.56-.71 0-1.37-.2-1.95-.5v.03c0 2.08 1.48 3.82 3.44 4.21a4.22 4.22 0 0 1-1.93.07 4.28 4.28 0 0 0 4 2.98 8.521 8.521 0 0 1-5.33 1.84c-.34 0-.68-.02-1.02-.06C3.44 20.29 5.7 21 8.12 21 16 21 20.33 14.46 20.33 8.79c0-.19 0-.37-.01-.56.84-.6 1.56-1.36 2.14-2.23z" fill="#00ED64"></path>
  </symbol>
  <symbol viewBox="0 0 21 17" fill="none" xmlns="http://www.w3.org/2000/svg" id="footer-twitter-white-icon">
    <g clip-path="url(#clip0_45_5451)">
      <path d="M20.094 2.3l-1.799 1.795v.299c0 .327-.053.641-.13.944-.043 2.469-.829 5.742-4.068 8.325-6.364 5.086-13.19.6-13.19.6 5.396 0 5.396-1.795 5.396-1.795-1.2 0-3.598-2.39-3.598-2.39.6.596 1.8 0 1.8 0C1.503 8.28 1.503 6.484 1.503 6.484c.6.598 1.8 0 1.8 0-2.997-2.39-1.199-5.382-1.199-5.382.6 2.992 8.396 4.188 8.396 4.188l.1-.049a7.077 7.077 0 0 1-.1-1.147c0-2.148 1.744-3.59 3.897-3.59 1.186 0 2.232.54 2.948 1.37l.35-.173L19.494.505l-1.196 2.393 1.796-.598z" fill="#666"></path>
    </g>
    <defs>
      <clipPath id="clip0_45_5451">
        <path fill="#fff" transform="translate(.906 .5)" d="M0 0h19.188v16H0z"></path>
      </clipPath>
    </defs>
  </symbol>
  <symbol viewBox="0 0 25 24" fill="none" xmlns="http://www.w3.org/2000/svg" id="green-arrow-down">
    <mask id="a" maskUnits="userSpaceOnUse" x="0" y="0" width="25" height="24">
      <path fill="#D9D9D9" d="M.5 0h24v24H.5z"></path>
    </mask>
    <g mask="url(#a)">
      <path d="M12.5 15.375l-6-6 1.4-1.4 4.6 4.6 4.6-4.6 1.4 1.4-6 6z" fill="#00ED64"></path>
    </g>
  </symbol>
  <symbol viewBox="0 0 125 776" fill="none" xmlns="http://www.w3.org/2000/svg" id="hero-section-decorator">
    <path opacity=".5" d="M473.134 303.56a71.033 71.033 0 0 1 4.625 2.432l-.128.473a76.618 76.618 0 0 1 8.838 5.932l.195-.428a86.1 86.1 0 0 1 8.286 7.342l-.257.374a94.893 94.893 0 0 1 7.437 8.441l.31-.314a104.798 104.798 0 0 1 6.569 9.433l-.355.249a111.332 111.332 0 0 1 5.53 10.073l.39-.183c1.669 3.447 3.177 7 4.512 10.634l-.418.118a118.297 118.297 0 0 1 3.409 10.868l.439-.053a118.48 118.48 0 0 1 2.337 11.068l-.453-.011a114.507 114.507 0 0 1 1.236 10.978l.459.073c.23 3.618.285 7.246.157 10.865l-.46-.132a103.959 103.959 0 0 1-.901 10.504l.455.19a98.751 98.751 0 0 1-.842 5.13l-.976 5.112-.451-.216-1.953 10.225.451.216-1.954 10.225-.45-.217-1.954 10.225.451.216-1.953 10.225-.451-.217-1.953 10.225.451.216-1.953 10.225-.451-.216-1.953 10.224.451.216-1.954 10.225-.45-.216-1.954 10.224.451.217-1.953 10.224-.451-.216-1.953 10.224.451.217-1.953 10.224-.451-.216-1.953 10.225.451.216-1.954 10.225-.45-.217-1.954 10.225.451.216-1.953 10.225-.451-.217-1.953 10.225.451.216-1.953 10.225-.451-.216-1.953 10.224.451.216-1.954 10.225-.45-.216-1.954 10.224.451.217-1.953 10.224-.451-.216-1.953 10.225.451.216-.977 5.112a194.067 194.067 0 0 1-1.033 5.048l-.448-.23a186.469 186.469 0 0 1-2.432 9.844l.442.256a178.145 178.145 0 0 1-2.94 9.58l-.434-.282a166.721 166.721 0 0 1-3.433 9.242l.425.306a158.636 158.636 0 0 1-3.934 8.906l-.414-.331a149.634 149.634 0 0 1-4.406 8.489l.402.355a141.918 141.918 0 0 1-4.896 8.093l-.387-.378a134.831 134.831 0 0 1-5.35 7.623l.372.399a128.312 128.312 0 0 1-5.815 7.154l-.356-.42a121.85 121.85 0 0 1-6.235 6.614l.337.439a116.542 116.542 0 0 1-6.683 6.088l-.317-.457a111.795 111.795 0 0 1-7.064 5.483l.296.474a107.79 107.79 0 0 1-7.47 4.881l-.273-.489a104.896 104.896 0 0 1-7.814 4.219l.248.502a102.497 102.497 0 0 1-8.173 3.545l-.222-.514a100.723 100.723 0 0 1-8.457 2.818l.193.523a100.884 100.884 0 0 1-8.763 2.077l-.164-.53c-2.957.562-5.948.994-8.97 1.292l.132.535c-3.039.3-6.108.465-9.203.492l-.1-.536c-3.083.027-6.192-.083-9.321-.332l.065.535a109.6 109.6 0 0 1-9.457-1.172l-.031-.531a114.822 114.822 0 0 1-9.468-2.006l-.006.523a122.105 122.105 0 0 1-9.501-2.853l.041-.513a129.826 129.826 0 0 1-9.39-3.657l-.076.5a136.806 136.806 0 0 1-4.682-2.14 142.907 142.907 0 0 1-4.645-2.335l.111-.483a145.96 145.96 0 0 1-9.093-5.21l-.145.463a154.751 154.751 0 0 1-8.905-5.978l.179-.44a162.238 162.238 0 0 1-8.581-6.653l-.211.415a171.829 171.829 0 0 1-8.28-7.337l.242-.389a180.392 180.392 0 0 1-7.873-7.917l-.27.36a191.875 191.875 0 0 1-7.486-8.499l.297-.329a200.937 200.937 0 0 1-7.012-8.961l-.321.298a208.936 208.936 0 0 1-6.565-9.431l.344-.266a215.514 215.514 0 0 1-6.051-9.778l-.364.233a222.923 222.923 0 0 1-5.561-10.134l.382-.2a229.298 229.298 0 0 1-5.025-10.379l-.398.167a233.266 233.266 0 0 1-4.508-10.627l.412-.134a236.985 236.985 0 0 1-3.959-10.772l-.424.101a237.524 237.524 0 0 1-3.43-10.939l.434-.069a238.319 238.319 0 0 1-2.873-10.984l-.443.037a236.72 236.72 0 0 1-2.335-11.065l.449-.005a233.322 233.322 0 0 1-1.783-11.045l-.455-.026a229.592 229.592 0 0 1-1.241-11.037l.458.057c-.32-3.639-.553-7.286-.695-10.936l-.46-.088a221.289 221.289 0 0 1-.157-10.868l.461.118c.037-3.573.162-7.143.378-10.707l-.46-.147a209.2 209.2 0 0 1 .907-10.556l.457.176c.385-3.455.859-6.899 1.421-10.329l-.453-.203c.28-1.706.582-3.409.907-5.108.324-1.698.626-3.4.906-5.105l.453.202a203.359 203.359 0 0 0 1.429-10.377l-.457-.175c.391-3.507.692-7.024.906-10.548l.459.147c.217-3.581.342-7.168.38-10.757l-.461-.118a219.71 219.71 0 0 0-.156-10.86l.46.088a225.313 225.313 0 0 0-.699-10.987l-.458-.058a229.034 229.034 0 0 0-1.24-11.027l.455.027a234.235 234.235 0 0 0-1.792-11.097l-.45.005a234.626 234.626 0 0 0-2.333-11.052l.443-.037a238.03 238.03 0 0 0-2.887-11.036l-.434.069a238.541 238.541 0 0 0-3.426-10.925l.424-.102a236.35 236.35 0 0 0-3.977-10.822l-.412.134a234.211 234.211 0 0 0-4.501-10.612l.398-.167a229.3 229.3 0 0 0-5.049-10.427l-.382.2a224.625 224.625 0 0 0-5.55-10.116l.364-.233a217.556 217.556 0 0 0-6.08-9.824l-.344.266a208.296 208.296 0 0 0-6.551-9.411l.322-.298a201.481 201.481 0 0 0-7.045-9.002l-.297.329a190.43 190.43 0 0 0-7.467-8.478l.27-.36a182.086 182.086 0 0 0-7.91-7.954l-.241.388a171.905 171.905 0 0 0-8.257-7.317l.211-.416a163.363 163.363 0 0 0-8.622-6.684l-.178.441a153.535 153.535 0 0 0-8.88-5.961l.145-.463a146.24 146.24 0 0 0-9.135-5.235l-.111.482a143.115 143.115 0 0 0-4.632-2.328 140.91 140.91 0 0 1-4.645-2.335l.111-.482a146.15 146.15 0 0 1-9.093-5.211l-.145.463a153.893 153.893 0 0 1-8.905-5.978l.179-.44a162.12 162.12 0 0 1-8.581-6.653l-.211.415a171.483 171.483 0 0 1-8.28-7.337l.242-.389a180.606 180.606 0 0 1-7.873-7.917l-.27.36a191.804 191.804 0 0 1-7.486-8.499l.297-.329a199.284 199.284 0 0 1-7.012-8.961l-.321.298a209.591 209.591 0 0 1-6.565-9.431l.344-.265a216.628 216.628 0 0 1-6.051-9.779l-.364.233a223.603 223.603 0 0 1-5.561-10.134l.382-.2a229.16 229.16 0 0 1-5.025-10.378l-.398.167a234.344 234.344 0 0 1-4.508-10.628l.412-.134a236.265 236.265 0 0 1-3.959-10.772l-.424.102a238.323 238.323 0 0 1-3.43-10.94l.434-.069a237.24 237.24 0 0 1-2.873-10.984l-.443.037a236.48 236.48 0 0 1-2.335-11.065l.45-.005a233.002 233.002 0 0 1-1.784-11.044l-.455-.027a229.997 229.997 0 0 1-1.241-11.037l.458.058c-.32-3.64-.553-7.287-.695-10.937l-.46-.088a220.269 220.269 0 0 1-.157-10.868l.46.118c.038-3.573.163-7.143.379-10.707l-.46-.147a208.9 208.9 0 0 1 .907-10.555l.457.175c.385-3.455.859-6.9 1.421-10.329l-.453-.203a198.736 198.736 0 0 1 1.94-10.155l.448.23a186.28 186.28 0 0 1 2.432-9.845l-.441-.256a176.756 176.756 0 0 1 2.94-9.58l.433.282a166.802 166.802 0 0 1 3.433-9.241l-.425-.307a158.292 158.292 0 0 1 3.935-8.906l.413.331a149.472 149.472 0 0 1 4.406-8.489l-.401-.354a142.088 142.088 0 0 1 4.895-8.093l.388.377a133.43 133.43 0 0 1 5.35-7.622l-.373-.4a128.154 128.154 0 0 1 5.816-7.153l.355.42A121.75 121.75 0 0 1 45.7-1.268l-.337-.439a116.74 116.74 0 0 1 6.683-6.088l.317.457a111.678 111.678 0 0 1 7.064-5.483l-.296-.474a108.178 108.178 0 0 1 7.47-4.881l.273.489a104.53 104.53 0 0 1 7.814-4.219l-.248-.502a102.724 102.724 0 0 1 8.174-3.545l.221.514a100.943 100.943 0 0 1 8.457-2.818l-.193-.523c2.883-.82 5.806-1.514 8.763-2.077l.164.53c2.957-.562 5.949-.994 8.97-1.292l-.132-.535c3.039-.3 6.109-.465 9.204-.492l.099.536a105.46 105.46 0 0 1 9.321.332l-.065-.535c3.133.25 6.287.64 9.458 1.172l.03.53c3.142.528 6.299 1.196 9.468 2.008l.006-.524a122.27 122.27 0 0 1 9.502 2.854l-.042.512a129.492 129.492 0 0 1 9.39 3.657l.076-.5a137.86 137.86 0 0 1 4.682 2.14l4.56 2.188-.093.491 9.119 4.375.094-.49 9.12 4.375-.094.49 9.12 4.376.094-.491 9.119 4.375-.093.491 9.119 4.376.094-.491 9.12 4.375-.094.491 9.12 4.376.094-.492 9.12 4.376-.094.49 9.119 4.376.094-.491 9.12 4.375-.094.491 9.12 4.376.094-.491 9.12 4.375-.094.491 9.12 4.376.093-.492 9.12 4.376-.094.49 9.12 4.376.094-.491 9.12 4.375-.094.492 9.12 4.375.093-.491 9.12 4.375-.094.491 9.12 4.375.094-.49 9.12 4.375-.094.49 9.12 4.376.094-.491 4.559 2.188a71.626 71.626 0 0 1 4.625 2.432l-.128.473a76.66 76.66 0 0 1 8.838 5.932l.195-.428a86.26 86.26 0 0 1 8.286 7.342l-.257.374a94.938 94.938 0 0 1 7.437 8.441l.31-.314a104.798 104.798 0 0 1 6.569 9.433l-.355.249a111.332 111.332 0 0 1 5.53 10.073l.39-.183c1.669 3.447 3.177 7 4.512 10.634l-.418.118a118.394 118.394 0 0 1 3.409 10.868l.439-.053a118.48 118.48 0 0 1 2.337 11.068l-.453-.011a114.507 114.507 0 0 1 1.236 10.978l.459.073c.23 3.618.285 7.246.157 10.866l-.46-.133a104.003 104.003 0 0 1-.901 10.505l.455.189a98.751 98.751 0 0 1-.842 5.13c-.324 1.701-.604 3.41-.841 5.125l-.455-.19a105.068 105.068 0 0 0-.91 10.604l.461.132c-.128 3.614-.073 7.236.157 10.848l-.46-.073c.236 3.712.655 7.412 1.247 11.082l.453.011a117.879 117.879 0 0 0 2.332 11.043l-.439.053a119.515 119.515 0 0 0 3.441 10.971l.418-.118a116.712 116.712 0 0 0 4.499 10.602l-.391.184a112.42 112.42 0 0 0 5.582 10.168l.354-.25a104.175 104.175 0 0 0 6.541 9.393l-.31.313a95.784 95.784 0 0 0 7.507 8.521l.256-.374a85.811 85.811 0 0 0 8.241 7.302l-.195.428a77.285 77.285 0 0 0 8.921 5.988l.129-.473a71.205 71.205 0 0 0 4.598 2.419z" stroke="#00ED64" stroke-dasharray="10 10"></path>
  </symbol>
  <symbol xmlns="http://www.w3.org/2000/svg" viewBox="0 0 800 800" id="instagram-green-icon">
    <path d="M400 470.3c38.8 0 70.5-31.6 70.5-70.5 0-15.3-5-29.5-13.3-41.1-12.8-17.7-33.6-29.4-57-29.4s-44.2 11.6-57 29.4c-8.3 11.6-13.3 25.8-13.3 41.1-.2 38.9 31.4 70.5 70.1 70.5zm153.8-156.4v-67.8H545l-59.1.2.4 67.8z"></path>
    <path d="M509.4 400c0 60.3-49.1 109.4-109.4 109.4S290.6 460.3 290.6 400c0-14.5 3-28.4 8.1-41.1H239v163.7c0 21.1 17.2 38.3 38.3 38.3h245.3c21.1 0 38.3-17.2 38.3-38.3V358.9h-59.7c5.4 12.7 8.2 26.6 8.2 41.1z"></path>
    <path d="M400 0C179.1 0 0 179.1 0 400s179.1 400 400 400 400-179.1 400-400S620.9 0 400 0zm200 358.9v163.7c0 42.7-34.7 77.3-77.3 77.3H277.3c-42.7 0-77.3-34.7-77.3-77.3V277.2c0-42.7 34.7-77.3 77.3-77.3h245.3c42.7 0 77.3 34.7 77.3 77.3v81.7h.1z"></path>
  </symbol>
  <symbol xmlns="http://www.w3.org/2000/svg" viewBox="0 0 800 800" id="instagram-icon">
    <path d="M400 470.3c38.8 0 70.5-31.6 70.5-70.5 0-15.3-5-29.5-13.3-41.1-12.8-17.7-33.6-29.4-57-29.4s-44.2 11.6-57 29.4c-8.3 11.6-13.3 25.8-13.3 41.1-.2 38.9 31.4 70.5 70.1 70.5zm153.8-156.4v-67.8H545l-59.1.2.4 67.8z"></path>
    <path d="M509.4 400c0 60.3-49.1 109.4-109.4 109.4S290.6 460.3 290.6 400c0-14.5 3-28.4 8.1-41.1H239v163.7c0 21.1 17.2 38.3 38.3 38.3h245.3c21.1 0 38.3-17.2 38.3-38.3V358.9h-59.7c5.4 12.7 8.2 26.6 8.2 41.1z"></path>
    <path d="M400 0C179.1 0 0 179.1 0 400s179.1 400 400 400 400-179.1 400-400S620.9 0 400 0zm200 358.9v163.7c0 42.7-34.7 77.3-77.3 77.3H277.3c-42.7 0-77.3-34.7-77.3-77.3V277.2c0-42.7 34.7-77.3 77.3-77.3h245.3c42.7 0 77.3 34.7 77.3 77.3v81.7z"></path>
  </symbol>
  <symbol viewBox="0 0 38 50" fill="none" xmlns="http://www.w3.org/2000/svg" id="java-icon">
    <path d="M18.293 9.265c-2.31 1.624-4.929 3.466-6.332 6.513-2.437 5.316 4.987 11.115 5.304 11.359a.41.41 0 0 0 .613-.514c-.026-.052-2.691-5.227-2.592-8.94.035-1.294 1.845-2.76 3.76-4.314 1.756-1.423 3.745-3.035 4.909-4.921C26.51 4.296 23.67.213 23.641.172a.41.41 0 0 0-.735.324c.006.027.558 2.726-.978 5.508-.633 1.15-2.024 2.128-3.635 3.26z" fill="#00ED64"></path>
    <path d="M28.026 11.096a.41.41 0 0 0-.392-.71c-.392.148-9.61 3.702-9.61 7.995 0 2.96 1.264 4.523 2.187 5.665.362.448.675.835.777 1.165.29.952-.397 2.671-.686 3.254a.41.41 0 0 0 .602.518c.158-.11 3.873-2.736 3.207-5.901-.248-1.203-.84-2.082-1.361-2.858-.808-1.201-1.392-2.07-.506-3.672 1.037-1.87 5.735-5.42 5.782-5.456z" fill="#00ED64"></path>
    <path d="M4.032 29.125c-.158.473-.083.943.216 1.358.999 1.387 4.539 2.151 9.967 2.151.736 0 1.513-.014 2.308-.043 8.68-.31 11.899-3.014 12.032-3.13a.41.41 0 0 0-.377-.704c-3.056.834-8.764 1.13-12.723 1.13-4.43 0-6.686-.319-7.238-.554.283-.39 2.031-1.084 4.197-1.51a.41.41 0 0 0-.079-.812c-1.27 0-7.637.102-8.303 2.114zm29.041-2.785c-1.79 0-3.488.897-3.56.935a.41.41 0 0 0 .194.771c.038 0 3.818.031 4.16 2.191.304 1.864-3.576 4.883-5.097 5.89a.41.41 0 0 0 .311.742c.361-.077 8.829-1.943 7.934-6.873-.547-3.022-2.446-3.656-3.942-3.656zm-5.806 9.183a.41.41 0 0 0-.168-.41l-2.03-1.423a.411.411 0 0 0-.34-.06c-.022.005-2.145.563-5.228.906-1.223.137-2.593.21-3.963.21-3.082 0-5.097-.363-5.39-.629-.039-.074-.027-.108-.02-.127.054-.148.34-.324.524-.394a.41.41 0 0 0-.239-.783c-2.037.492-3.033 1.18-2.96 2.043.129 1.532 3.677 2.318 6.676 2.526.432.03.898.044 1.386.044 4.988 0 11.383-1.565 11.447-1.58a.409.409 0 0 0 .305-.323zM11.96 38.812a.41.41 0 0 0-.236-.753c-.273.007-2.67.115-2.838 1.642-.051.456.08.873.388 1.239.861 1.02 3.185 1.626 7.104 1.854.463.027.934.041 1.4.041 4.982 0 8.337-1.56 8.478-1.626a.41.41 0 0 0 .038-.72l-2.566-1.567a.413.413 0 0 0-.297-.051c-.016.003-1.646.341-4.104.675a13.3 13.3 0 0 1-1.732.095c-2.456 0-5.188-.401-5.711-.664-.008-.049.002-.111.075-.165z" fill="#00ED64"></path>
    <path d="M15.456 47.544c11.411-.01 17.536-2.04 18.716-3.316.418-.452.463-.88.427-1.16-.087-.687-.714-1.108-.785-1.153a.414.414 0 0 0-.535.072.405.405 0 0 0-.002.534c.072.092.113.247-.097.458-.472.44-5.229 1.778-13.15 2.18a65.724 65.724 0 0 1-3.383.085c-7.092 0-12.282-.972-12.963-1.538.262-.377 2.098-.98 4.05-1.321a.41.41 0 0 0-.125-.81c-.055.007-.242.018-.458.032-3.222.197-6.944.635-7.139 2.295-.059.505.092.965.447 1.364.87.978 3.371 2.278 14.997 2.278z" fill="#00ED64"></path>
    <path d="M36.414 44.589a.41.41 0 0 0-.473.093c-.016.018-1.732 1.812-6.89 2.865-1.975.396-5.682.597-11.019.597-5.346 0-10.433-.21-10.484-.213a.41.41 0 1 0-.112.808c.053.013 5.384 1.262 12.674 1.262 3.496 0 6.898-.284 10.112-.844 5.992-1.05 6.412-4.022 6.427-4.148a.41.41 0 0 0-.235-.42z" fill="#00ED64"></path>
  </symbol>
  <symbol viewBox="0 0 163 163" fill="none" xmlns="http://www.w3.org/2000/svg" id="job-form-icon">
    <g clip-path="url(#clip0_40_2)" fill="#00ED64">
      <path d="M81.576 127.323a1.283 1.283 0 0 1-1.285-1.273c0-.703.556-1.273 1.26-1.273h.025a1.273 1.273 0 0 1 0 2.546zm-47.172-4.562a1.284 1.284 0 0 1-1.085-.604 1.276 1.276 0 0 1 .415-1.753c1.41-.868 3.177-1.688 5.557-2.578 3.904-1.459 12.575-4.858 17.46-7.277a1.274 1.274 0 1 1 1.13 2.283c-4.977 2.463-13.754 5.904-17.7 7.376-2.22.833-3.845 1.584-5.11 2.364a1.29 1.29 0 0 1-.667.189zm94.197.005c-.236 0-.467-.067-.667-.192-1.263-.78-2.889-1.531-5.119-2.367-3.937-1.469-12.703-4.905-17.695-7.376a1.273 1.273 0 0 1 1.128-2.282c4.9 2.427 13.562 5.82 17.457 7.276 2.392.891 4.159 1.713 5.566 2.586a1.262 1.262 0 0 1 .587 1.285 1.273 1.273 0 0 1-.636.909c-.19.106-.404.162-.621.161zM81.5 114.594c-11.987 0-31.821-18.471-31.821-39.518a1.272 1.272 0 1 1 2.545 0c0 19.063 18.264 36.972 29.276 36.972 11.013 0 29.276-17.909 29.276-36.972a1.272 1.272 0 1 1 2.545 0c0 21.047-19.834 39.518-31.821 39.518z"></path>
      <path d="M50.952 73.863a1.274 1.274 0 0 1-1.268-1.154c-1.11-11.845 1.463-21.293 7.644-28.08 9.179-10.08 24.238-12.195 35.255-12.195 6.23 0 10.576.684 10.757.714a1.269 1.269 0 0 1 1.061 1.11 1.268 1.268 0 0 1-.777 1.324c-5.746 2.363-5.127 7.986-4.624 10.215 2.337-.092 7.202.449 10.806 4.658 3.918 4.577 5.097 12.09 3.501 22.332a1.27 1.27 0 0 1-.97 1.042 1.272 1.272 0 0 1-1.333-.51l-8.303-11.862c-2.921 1.272-11.809 4.769-21.268 4.769-9.445 0-18.233-3.487-21.138-4.765l-8.3 11.859a1.273 1.273 0 0 1-1.043.543zm52.187-15.274c.403 0 .798.192 1.044.543l7.025 10.038c.796-7.81-.323-13.54-3.336-17.06-2.809-3.28-6.598-3.77-8.604-3.77-.614 0-1.002.048-1.041.053a1.298 1.298 0 0 1-1.383-.843c-1.029-2.965-1.481-8.651 2.521-12.288a81.413 81.413 0 0 0-6.782-.282c-10.504 0-24.82 1.971-33.373 11.362-5.051 5.548-7.47 13.115-7.212 22.532l6.82-9.742a1.268 1.268 0 0 1 1.602-.414c.102.05 10.298 4.962 21.013 4.962 10.742 0 21.049-4.915 21.154-4.965a1.24 1.24 0 0 1 .552-.126zm-43.278 50.914a1.273 1.273 0 0 1-1.272-1.273v-2.546a1.273 1.273 0 1 1 2.545 0v2.546a1.27 1.27 0 0 1-1.273 1.273z"></path>
      <path d="M70.046 122.231a1.272 1.272 0 0 1-.996-.477l-10.183-12.728a1.276 1.276 0 0 1 .2-1.79 1.279 1.279 0 0 1 1.79.199l10.182 12.728a1.274 1.274 0 0 1-.993 2.068z"></path>
      <path d="M70.046 122.231a1.277 1.277 0 0 1-1.272-1.182 1.272 1.272 0 0 1 .701-1.229l10.183-5.092a1.276 1.276 0 0 1 1.777 1.542 1.273 1.273 0 0 1-.639.736l-10.182 5.091a1.288 1.288 0 0 1-.568.134zm33.093-12.728a1.276 1.276 0 0 1-1.177-.786 1.27 1.27 0 0 1-.096-.487v-2.546a1.272 1.272 0 1 1 2.545 0v2.546a1.27 1.27 0 0 1-1.272 1.273z"></path>
      <path d="M92.956 122.231c-.29.001-.57-.097-.796-.278a1.279 1.279 0 0 1-.199-1.79l10.183-12.729a1.28 1.28 0 0 1 1.79-.199 1.277 1.277 0 0 1 .199 1.791L93.95 121.754a1.282 1.282 0 0 1-.995.477z"></path>
      <path d="M92.956 122.231a1.28 1.28 0 0 1-.57-.134l-10.182-5.091a1.282 1.282 0 0 1-.639-.736 1.277 1.277 0 0 1 .07-.972 1.276 1.276 0 0 1 1.708-.57l10.182 5.092a1.273 1.273 0 0 1-.57 2.411zm-5.092 27.707a1.272 1.272 0 0 1-.12-2.54c31.606-2.956 56.692-28.046 59.654-59.653a1.27 1.27 0 0 1 2.247-.694 1.282 1.282 0 0 1 .288.932c-3.075 32.826-29.129 58.88-61.95 61.95a1.6 1.6 0 0 1-.119.005zm60.789-73.671a1.275 1.275 0 0 1-1.268-1.151c-3.017-31.532-28.097-56.56-59.64-59.514a1.273 1.273 0 0 1-1.148-1.386 1.27 1.27 0 0 1 1.387-1.15c32.756 3.068 58.802 29.06 61.937 61.806a1.271 1.271 0 0 1-.753 1.285c-.162.072-.337.11-.515.11zm-134.316.144a1.273 1.273 0 0 1-1.269-1.391c3.072-32.825 29.125-58.88 61.948-61.954a1.274 1.274 0 1 1 .236 2.536c-31.604 2.96-56.691 28.048-59.648 59.654a1.274 1.274 0 0 1-1.267 1.155zm60.799 73.527c-.04 0-.08-.002-.12-.005-32.822-3.07-58.874-29.123-61.948-61.95a1.273 1.273 0 0 1 1.15-1.387c.68-.067 1.32.45 1.386 1.149 2.958 31.607 28.045 56.697 59.648 59.653a1.273 1.273 0 0 1-.116 2.54z"></path>
      <path d="M156.33 76.408a1.27 1.27 0 0 1-1.265-1.166c-3.018-35.981-31.325-64.288-67.308-67.307a1.272 1.272 0 1 1 .214-2.535c37.224 3.122 66.509 32.405 69.629 69.629a1.257 1.257 0 0 1-.331.97 1.261 1.261 0 0 1-.939.41zm-81.192 81.195c-.036 0-.07 0-.108-.005-37.224-3.123-66.508-32.403-69.629-69.627a1.272 1.272 0 0 1 1.16-1.375 1.252 1.252 0 0 1 1.375 1.161c3.018 35.981 31.325 64.287 67.308 67.305a1.27 1.27 0 0 1 1.16 1.375 1.273 1.273 0 0 1-1.266 1.166zm86.552-74.83h-25.457a1.272 1.272 0 1 1 0-2.546h25.457a1.272 1.272 0 1 1 0 2.546zm-134.923 0H1.31a1.272 1.272 0 1 1 0-2.546h25.457a1.272 1.272 0 1 1 0 2.546zm54.733 80.19a1.273 1.273 0 0 1-1.273-1.273v-25.457a1.272 1.272 0 1 1 2.546 0v25.457a1.269 1.269 0 0 1-.786 1.176 1.27 1.27 0 0 1-.487.097zm0-134.923a1.271 1.271 0 0 1-1.273-1.273V1.31a1.272 1.272 0 1 1 2.546 0v25.457A1.271 1.271 0 0 1 81.5 28.04z"></path>
    </g>
    <defs>
      <clipPath id="clip0_40_2">
        <path fill="#fff" d="M0 0h163v163H0z"></path>
      </clipPath>
    </defs>
  </symbol>
  <symbol viewBox="0 0 30 49" fill="none" xmlns="http://www.w3.org/2000/svg" id="left-arrow">
    <path d="M29.558 6.574L11.32 25.016l18.401 18.278-5.614 5.665L0 25.066 23.893.959l5.665 5.615z" fill="#fff"></path>
  </symbol>
  <symbol viewBox="0 0 35 1" fill="none" xmlns="http://www.w3.org/2000/svg" id="Line">
    <path stroke="#fff" d="M0 .5h35"></path>
  </symbol>
  <symbol viewBox="0 0 20 20" fill="none" xmlns="http://www.w3.org/2000/svg" id="link-green-icon">
    <path fill-rule="evenodd" clip-rule="evenodd" d="M8.299 14.956l-.801.796a1.795 1.795 0 0 1-2.52 0 1.733 1.733 0 0 1-.518-1.239c0-.468.184-.908.518-1.239l2.95-2.927c.611-.606 1.762-1.499 2.601-.668a.981.981 0 1 0 1.383-1.393c-1.426-1.414-3.531-1.153-5.366.667l-2.95 2.928a3.685 3.685 0 0 0-1.098 2.632c0 .994.39 1.929 1.098 2.632a3.741 3.741 0 0 0 2.643 1.084c.957 0 1.914-.361 2.643-1.085l.802-.796a.981.981 0 1 0-1.385-1.392zm8.942-11.372c-1.53-1.519-3.671-1.601-5.088-.195l-.999.992a.981.981 0 1 0 1.383 1.393l.999-.991c.733-.729 1.695-.427 2.322.195.334.332.518.772.518 1.239 0 .468-.184.908-.518 1.239l-3.147 3.123c-1.439 1.428-2.115.758-2.403.472a.982.982 0 0 0-1.383 1.393c.661.655 1.415.98 2.206.98.968 0 1.99-.487 2.963-1.453l3.147-3.123a3.687 3.687 0 0 0 1.099-2.633c0-.992-.391-1.927-1.099-2.631z" fill="#00ED64"></path>
    <mask id="a" maskUnits="userSpaceOnUse" x="2" y="2" width="17" height="17">
      <path fill-rule="evenodd" clip-rule="evenodd" d="M8.299 14.956l-.801.796a1.795 1.795 0 0 1-2.52 0 1.733 1.733 0 0 1-.518-1.239c0-.468.184-.908.518-1.239l2.95-2.927c.611-.606 1.762-1.499 2.601-.668a.981.981 0 1 0 1.383-1.393c-1.426-1.414-3.531-1.153-5.366.667l-2.95 2.928a3.685 3.685 0 0 0-1.098 2.632c0 .994.39 1.929 1.098 2.632a3.741 3.741 0 0 0 2.643 1.084c.957 0 1.914-.361 2.643-1.085l.802-.796a.981.981 0 1 0-1.385-1.392zm8.942-11.372c-1.53-1.519-3.671-1.601-5.088-.195l-.999.992a.981.981 0 1 0 1.383 1.393l.999-.991c.733-.729 1.695-.427 2.322.195.334.332.518.772.518 1.239 0 .468-.184.908-.518 1.239l-3.147 3.123c-1.439 1.428-2.115.758-2.403.472a.982.982 0 0 0-1.383 1.393c.661.655 1.415.98 2.206.98.968 0 1.99-.487 2.963-1.453l3.147-3.123a3.687 3.687 0 0 0 1.099-2.633c0-.992-.391-1.927-1.099-2.631z" fill="#fff"></path>
    </mask>
    <g mask="url(#a)">
      <path fill="#00ED64" d="M0 0h20v20H0z"></path>
    </g>
  </symbol>
  <symbol viewBox="0 0 20 20" fill="none" xmlns="http://www.w3.org/2000/svg" id="linkedin-blogs-green-icon">
    <path fill-rule="evenodd" clip-rule="evenodd" d="M5.325 3.474c0 1.01-.762 1.828-2.017 1.828-1.18 0-1.94-.819-1.94-1.828 0-1.033.786-1.827 1.99-1.827 1.205 0 1.942.793 1.967 1.827zm-3.86 15.032V6.745h3.738v11.76H1.465zm5.973-8.008c0-1.467-.05-2.695-.098-3.753h3.244l.173 1.636h.074c.491-.77 1.696-1.9 3.712-1.9 2.46 0 4.303 1.612 4.303 5.075v6.95h-3.737v-6.518c0-1.514-.541-2.549-1.893-2.549-1.033 0-1.647.698-1.918 1.372-.099.24-.122.578-.122.914v6.78H7.439v-8.007h-.001z" fill="#00ED64"></path>
  </symbol>
  <symbol xmlns="http://www.w3.org/2000/svg" viewBox="0 0 800 800" id="linkedin-green-icon">
    <path d="M400 0C179.1 0 0 179.1 0 400s179.1 400 400 400 400-179.1 400-400S620.9 0 400 0zM288.1 567.3h-78V317.8h78v249.5zM247 286.6h-.6c-28.3 0-46.6-19.1-46.6-43.3 0-24.7 18.9-43.3 47.7-43.3s46.4 18.6 47 43.3c.2 24-18.1 43.3-47.5 43.3zm353 280.7h-88.4v-129c0-33.8-13.8-56.9-44.2-56.9-23.3 0-36.3 15.6-42.2 30.6-2.2 5.3-1.9 12.8-1.9 20.5v134.8h-87.7s1.1-228.8 0-249.5h87.7V357c5.2-17.2 33.1-41.6 77.8-41.6 55.5 0 98.9 35.9 98.9 113.1v138.8z" fill="#00ed64"></path>
  </symbol>
  <symbol xmlns="http://www.w3.org/2000/svg" viewBox="0 0 800 800" id="linkedin-icon">
    <path d="M400 0C179.1 0 0 179.1 0 400s179.1 400 400 400 400-179.1 400-400S620.9 0 400 0zM288.1 567.3h-78V317.8h78v249.5zM247 286.6h-.6c-28.3 0-46.6-19.1-46.6-43.3 0-24.7 18.9-43.3 47.7-43.3s46.4 18.6 47 43.3c.2 24-18.1 43.3-47.5 43.3zm353 280.7h-88.4v-129c0-33.8-13.8-56.9-44.2-56.9-23.3 0-36.3 15.6-42.2 30.6-2.2 5.3-1.9 12.8-1.9 20.5v134.8h-87.7s1.1-228.8 0-249.5h87.7V357c5.2-17.2 33.1-41.6 77.8-41.6 55.5 0 98.9 35.9 98.9 113.1v138.8z" fill="#666"></path>
  </symbol>
  <symbol viewBox="0 0 24 24" fill="none" xmlns="http://www.w3.org/2000/svg" id="linkedin">
    <g clip-path="url(#clip0_446_6377)">
      <path d="M12 0C5.374 0 0 5.374 0 12s5.374 12 12 12 12-5.374 12-12S18.626 0 12 0zM8.513 18.14H5.59V9.349h2.923v8.793zM7.052 8.148h-.02c-.98 0-1.614-.675-1.614-1.518 0-.863.653-1.52 1.653-1.52s1.615.657 1.634 1.52c0 .843-.634 1.518-1.653 1.518zm11.999 9.994h-2.922v-4.704c0-1.182-.423-1.989-1.48-1.989-.808 0-1.289.544-1.5 1.07-.077.187-.096.45-.096.712v4.91H10.13s.039-7.967 0-8.792h2.923v1.245c.388-.6 1.083-1.451 2.633-1.451 1.923 0 3.365 1.256 3.365 3.957v5.042z" fill="#fff"></path>
    </g>
    <defs>
      <clipPath id="clip0_446_6377">
        <path fill="#fff" d="M0 0h24v24H0z"></path>
      </clipPath>
    </defs>
  </symbol>
  <symbol viewBox="0 0 16 20" fill="none" xmlns="http://www.w3.org/2000/svg" id="location">
    <path d="M8 10c.55 0 1.021-.196 1.413-.588C9.804 9.021 10 8.55 10 8a1.93 1.93 0 0 0-.587-1.413A1.928 1.928 0 0 0 8 6c-.55 0-1.02.196-1.412.587A1.927 1.927 0 0 0 6 8c0 .55.196 1.02.588 1.412C6.979 9.804 7.45 10 8 10zm0 10c-2.683-2.283-4.687-4.404-6.012-6.363C.663 11.679 0 9.867 0 8.2c0-2.5.804-4.492 2.413-5.975C4.021.742 5.883 0 8 0c2.117 0 3.979.742 5.587 2.225C15.196 3.708 16 5.7 16 8.2c0 1.667-.662 3.479-1.987 5.437C12.688 15.596 10.683 17.717 8 20z" fill="#00ED64"></path>
  </symbol>
  <symbol xmlns="http://www.w3.org/2000/svg" viewBox="0 0 441.25 102.46" id="logo-dark">
    <path d="M184.21 13v36.72h-8.06v-5.26a16 16 0 0 1-12.89 6.12c-10.37 0-18.08-8.28-18.08-19.22s7.71-19.23 18.08-19.23a16 16 0 0 1 12.89 6.12V13zm-8.06 18.36a11.34 11.34 0 1 0-22.68 0 11.34 11.34 0 1 0 22.68 0zm52.63-4.75v23.11h-8.06V29.27c0-5.62-3.61-9.36-9.15-9.36-5.83 0-9.72 3.81-9.72 9.5v20.31h-8.06V13h8.06v4.75a15.25 15.25 0 0 1 12.39-5.62c8.76 0 14.54 5.76 14.54 14.48zM261 50.08h-12.6c-2.59 0-4.32-1.44-4.32-3.53A4.26 4.26 0 0 1 246 43a19.32 19.32 0 0 0 6.84 1.22c9.65 0 17.07-6.91 17.07-16a15.4 15.4 0 0 0-3.38-9.8c.21-1.94 1.87-3.17 4.1-3.17h2.52V7.74h-2.95c-4.68 0-8.07 2.44-9 6.33a18.62 18.62 0 0 0-8.36-1.94c-9.72 0-17.06 6.91-17.06 16.06a15.53 15.53 0 0 0 5 11.52 10.29 10.29 0 0 0-4.83 8.85c0 5.55 4.4 9.36 10.95 9.36h12.6c3.62 0 6.26 2.2 6.54 5.09a25.69 25.69 0 0 1 7.77-4.38c-1.73-5.35-6.44-8.55-12.81-8.55zm-8.14-30.32a8.43 8.43 0 1 1-8.86 8.43c0-4.83 3.78-8.43 8.82-8.43zM278.24 0h8.06v49.72h-8.06zm53.86 34.6h-29.74c1.3 5.25 5.83 8.71 11.81 8.71a14.05 14.05 0 0 0 11-5l5.49 4.69A21.21 21.21 0 0 1 314 50.58c-11.66 0-20.3-8.35-20.3-19.37S302 12.13 313 12.13a18.81 18.81 0 0 1 19.29 19.3 24.11 24.11 0 0 1-.19 3.17zM302.29 28h21.38a11 11 0 0 0-21.38 0zM168.3 64a16 16 0 0 0-13 6.19V56.34a23.89 23.89 0 0 1-8.07-4.47v49.72h8.07v-5.33a16 16 0 0 0 13 6.19c10.3 0 18.07-8.28 18.07-19.22S178.6 64 168.3 64zm-1.58 30.68A11.45 11.45 0 1 1 178 83.23a11.19 11.19 0 0 1-11.28 11.45zm47.95-30.39v8.28h-1.37c-7.2 0-11.45 4.4-11.45 11.16v17.86h-8.06V64.87h8.06v5.4a13.76 13.76 0 0 1 11.45-6zm41.68.58v36.72h-8.06v-5.25a16 16 0 0 1-12.89 6.12c-10.37 0-18.07-8.28-18.07-19.23S225 64 235.4 64a16 16 0 0 1 12.89 6.12v-5.25zm-8.06 18.36A11.34 11.34 0 1 0 237 94.68a11.13 11.13 0 0 0 11.29-11.45zm15.41 0c0-10.94 8.42-19.22 19.65-19.22a19.26 19.26 0 0 1 16.85 9.14l-7 4.25a11.45 11.45 0 1 0 0 11.66l7 4.25a19.26 19.26 0 0 1-16.85 9.15c-11.23 0-19.65-8.28-19.65-19.23zM324.32 82l16.13-17.13h-10.51l-15.2 16.56V57.57H314a29.67 29.67 0 0 1-7.27-.88v44.89h8.06v-9.35l3.89-4.18 11.67 13.54H341z"></path>
    <path d="M379.26 86.47h-29.74c1.3 5.26 5.83 8.71 11.81 8.71a14.05 14.05 0 0 0 11-5l5.48 4.68a21.22 21.22 0 0 1-16.71 7.64c-11.66 0-20.3-8.36-20.3-19.37S349.16 64 360.18 64a18.8 18.8 0 0 1 19.29 19.3 24.11 24.11 0 0 1-.21 3.17zm-29.81-6.62h21.38a11 11 0 0 0-21.38 0zm46.94-7.64v17.36c0 3.45 1.95 5.11 5.33 5.11a10.85 10.85 0 0 0 5-1.3v7.56a14.08 14.08 0 0 1-6.69 1.52c-7.93 0-11.74-4.47-11.74-11.6V72.21h-6.19v-7.34h6.19v-9.51h8.06v9.51h10.37v7.34zm14.26 24.63l4.17-5.69a15.37 15.37 0 0 0 10.95 4.32c4.1 0 7.27-1.44 7.27-4 0-2.88-3.6-3.82-7.92-4.83-5.9-1.36-13.32-3.24-13.32-11.3 0-7.56 6.7-11.3 14.62-11.3a21.74 21.74 0 0 1 14 4.89l-4.25 5.69a14.53 14.53 0 0 0-9.58-3.6C423 71 420 72.21 420 74.73c0 2.88 3.53 3.75 8 4.76 5.91 1.29 13.25 3.16 13.25 11.16 0 7.63-6.77 11.81-15.34 11.81a22.61 22.61 0 0 1-15.26-5.62zM50.71 73.19v29.27L25.35 87.83v-.02L.02 73.19H0V43.93h.02l25.33-14.64h.02l25.34-14.65 25.35 14.65-25.33 14.64h-.02L25.37 58.55l25.34 14.64z"></path>
    <path fill="#00ed64" d="M126.75 29.27v29.28l-25.36 14.62-25.35 14.64-25.33-14.64 25.33-14.62h.02l25.33-14.64-25.35-14.64V0l25.35 14.64 25.36 14.63z"></path>
  </symbol>
  <symbol xmlns="http://www.w3.org/2000/svg" viewBox="0 0 441.25 102.46" id="logo-white">
    <path d="M184.21 13v36.72h-8.06v-5.26a16 16 0 0 1-12.89 6.12c-10.37 0-18.08-8.28-18.08-19.22s7.71-19.23 18.08-19.23a16 16 0 0 1 12.89 6.12V13zm-8.06 18.36a11.34 11.34 0 1 0-22.68 0 11.34 11.34 0 1 0 22.68 0zm52.63-4.75v23.11h-8.06V29.27c0-5.62-3.61-9.36-9.15-9.36-5.83 0-9.72 3.81-9.72 9.5v20.31h-8.06V13h8.06v4.75a15.25 15.25 0 0 1 12.39-5.62c8.76 0 14.54 5.76 14.54 14.48zM261 50.08h-12.6c-2.59 0-4.32-1.44-4.32-3.53A4.26 4.26 0 0 1 246 43a19.32 19.32 0 0 0 6.84 1.22c9.65 0 17.07-6.91 17.07-16a15.4 15.4 0 0 0-3.38-9.8c.21-1.94 1.87-3.17 4.1-3.17h2.52V7.74h-2.95c-4.68 0-8.07 2.44-9 6.33a18.62 18.62 0 0 0-8.36-1.94c-9.72 0-17.06 6.91-17.06 16.06a15.53 15.53 0 0 0 5 11.52 10.29 10.29 0 0 0-4.83 8.85c0 5.55 4.4 9.36 10.95 9.36h12.6c3.62 0 6.26 2.2 6.54 5.09a25.69 25.69 0 0 1 7.77-4.38c-1.73-5.35-6.44-8.55-12.81-8.55zm-8.14-30.32a8.43 8.43 0 1 1-8.86 8.43c0-4.83 3.78-8.43 8.82-8.43zM278.24 0h8.06v49.72h-8.06zm53.86 34.6h-29.74c1.3 5.25 5.83 8.71 11.81 8.71a14.05 14.05 0 0 0 11-5l5.49 4.69A21.21 21.21 0 0 1 314 50.58c-11.66 0-20.3-8.35-20.3-19.37S302 12.13 313 12.13a18.81 18.81 0 0 1 19.29 19.3 24.11 24.11 0 0 1-.19 3.17zM302.29 28h21.38a11 11 0 0 0-21.38 0zM168.3 64a16 16 0 0 0-13 6.19V56.34a23.89 23.89 0 0 1-8.07-4.47v49.72h8.07v-5.33a16 16 0 0 0 13 6.19c10.3 0 18.07-8.28 18.07-19.22S178.6 64 168.3 64zm-1.58 30.68A11.45 11.45 0 1 1 178 83.23a11.19 11.19 0 0 1-11.28 11.45zm47.95-30.39v8.28h-1.37c-7.2 0-11.45 4.4-11.45 11.16v17.86h-8.06V64.87h8.06v5.4a13.76 13.76 0 0 1 11.45-6zm41.68.58v36.72h-8.06v-5.25a16 16 0 0 1-12.89 6.12c-10.37 0-18.07-8.28-18.07-19.23S225 64 235.4 64a16 16 0 0 1 12.89 6.12v-5.25zm-8.06 18.36A11.34 11.34 0 1 0 237 94.68a11.13 11.13 0 0 0 11.29-11.45zm15.41 0c0-10.94 8.42-19.22 19.65-19.22a19.26 19.26 0 0 1 16.85 9.14l-7 4.25a11.45 11.45 0 1 0 0 11.66l7 4.25a19.26 19.26 0 0 1-16.85 9.15c-11.23 0-19.65-8.28-19.65-19.23zM324.32 82l16.13-17.13h-10.51l-15.2 16.56V57.57H314a29.67 29.67 0 0 1-7.27-.88v44.89h8.06v-9.35l3.89-4.18 11.67 13.54H341z"></path>
    <path d="M379.26 86.47h-29.74c1.3 5.26 5.83 8.71 11.81 8.71a14.05 14.05 0 0 0 11-5l5.48 4.68a21.22 21.22 0 0 1-16.71 7.64c-11.66 0-20.3-8.36-20.3-19.37S349.16 64 360.18 64a18.8 18.8 0 0 1 19.29 19.3 24.11 24.11 0 0 1-.21 3.17zm-29.81-6.62h21.38a11 11 0 0 0-21.38 0zm46.94-7.64v17.36c0 3.45 1.95 5.11 5.33 5.11a10.85 10.85 0 0 0 5-1.3v7.56a14.08 14.08 0 0 1-6.69 1.52c-7.93 0-11.74-4.47-11.74-11.6V72.21h-6.19v-7.34h6.19v-9.51h8.06v9.51h10.37v7.34zm14.26 24.63l4.17-5.69a15.37 15.37 0 0 0 10.95 4.32c4.1 0 7.27-1.44 7.27-4 0-2.88-3.6-3.82-7.92-4.83-5.9-1.36-13.32-3.24-13.32-11.3 0-7.56 6.7-11.3 14.62-11.3a21.74 21.74 0 0 1 14 4.89l-4.25 5.69a14.53 14.53 0 0 0-9.58-3.6C423 71 420 72.21 420 74.73c0 2.88 3.53 3.75 8 4.76 5.91 1.29 13.25 3.16 13.25 11.16 0 7.63-6.77 11.81-15.34 11.81a22.61 22.61 0 0 1-15.26-5.62zM50.71 73.19v29.27L25.35 87.83v-.02L.02 73.19H0V43.93h.02l25.33-14.64h.02l25.34-14.65 25.35 14.65-25.33 14.64h-.02L25.37 58.55l25.34 14.64z"></path>
    <path fill="#00ed64" d="M126.75 29.27v29.28l-25.36 14.62-25.35 14.64-25.33-14.64 25.33-14.62h.02l25.33-14.64-25.35-14.64V0l25.35 14.64 25.36 14.63z"></path>
  </symbol>
  <symbol viewBox="0 0 80 64" fill="none" xmlns="http://www.w3.org/2000/svg" id="mail">
    <path d="M72 0H8C3.6 0 .04 3.6.04 8L0 56c0 4.4 3.6 8 8 8h64c4.4 0 8-3.6 8-8V8c0-4.4-3.6-8-8-8zm0 16L40 36 8 16V8l32 20L72 8v8z" fill="#fff"></path>
  </symbol>
  <symbol viewBox="0 0 24 24" fill="none" xmlns="http://www.w3.org/2000/svg" id="minus-icon">
    <mask id="a" maskUnits="userSpaceOnUse" x="0" y="0" width="24" height="24">
      <path fill="#D9D9D9" d="M0 0h24v24H0z"></path>
    </mask>
    <g mask="url(#a)">
      <path d="M5 13v-2h14v2H5z" fill="#fff"></path>
    </g>
  </symbol>
  <symbol viewBox="0 0 24 25" fill="none" xmlns="http://www.w3.org/2000/svg" id="navbar-cancel-icon">
    <mask id="a" maskUnits="userSpaceOnUse" x="0" y="0" width="24" height="25">
      <path fill="#D9D9D9" d="M0 .5h24v24H0z"></path>
    </mask>
    <g mask="url(#a)">
      <path d="M6.4 19.5L5 18.1l5.6-5.6L5 6.9l1.4-1.4 5.6 5.6 5.6-5.6L19 6.9l-5.6 5.6 5.6 5.6-1.4 1.4-5.6-5.6-5.6 5.6z" fill="#00ED64"></path>
    </g>
  </symbol>
  <symbol viewBox="0 0 24 25" fill="none" xmlns="http://www.w3.org/2000/svg" id="navbar-hamburger">
    <mask id="a" maskUnits="userSpaceOnUse" x="0" y="0" width="24" height="25">
      <path fill="#D9D9D9" d="M0 .5h24v24H0z"></path>
    </mask>
    <g mask="url(#a)">
      <path d="M4 15.5v-2h16v2H4zm0-4v-2h16v2H4z" fill="#00ED64"></path>
    </g>
  </symbol>
  <symbol viewBox="0 0 24 24" fill="none" xmlns="http://www.w3.org/2000/svg" id="navbar-white-arrow-down">
    <mask id="a" maskUnits="userSpaceOnUse" x="0" y="0" width="24" height="24">
      <path fill="#D9D9D9" d="M0 0h24v24H0z"></path>
    </mask>
    <g mask="url(#a)">
      <path d="M12 15.4l-6-6L7.4 8l4.6 4.6L16.6 8 18 9.4l-6 6z" fill="#fff"></path>
    </g>
  </symbol>
  <symbol viewBox="0 0 24 24" fill="none" xmlns="http://www.w3.org/2000/svg" id="plus-icon">
    <mask id="a" maskUnits="userSpaceOnUse" x="0" y="0" width="24" height="24">
      <path fill="#D9D9D9" d="M0 0h24v24H0z"></path>
    </mask>
    <g mask="url(#a)">
      <path d="M11 19v-6H5v-2h6V5h2v6h6v2h-6v6h-2z" fill="#fff"></path>
    </g>
  </symbol>
  <symbol viewBox="0 0 30 48" fill="none" xmlns="http://www.w3.org/2000/svg" id="right-arrow">
    <path d="M0 42.36L18.32 24 0 5.64 5.64 0l24 24-24 24L0 42.36z" fill="#fff"></path>
  </symbol>
  <symbol viewBox="0 0 24 24" fill="none" xmlns="http://www.w3.org/2000/svg" id="search">
    <mask id="a" maskUnits="userSpaceOnUse" x="0" y="0" width="24" height="24">
      <path fill="#D9D9D9" d="M0 0h24v24H0z"></path>
    </mask>
    <g mask="url(#a)">
      <path d="M19.6 21l-6.3-6.3A6.096 6.096 0 0 1 9.5 16c-1.817 0-3.354-.629-4.612-1.887C3.629 12.854 3 11.317 3 9.5c0-1.817.63-3.354 1.888-4.613C6.146 3.629 7.683 3 9.5 3c1.817 0 3.354.629 4.613 1.887C15.371 6.146 16 7.683 16 9.5a6.096 6.096 0 0 1-1.3 3.8l6.3 6.3-1.4 1.4zM9.5 14c1.25 0 2.313-.437 3.188-1.312S14 10.75 14 9.5c0-1.25-.437-2.313-1.312-3.188S10.75 5 9.5 5c-1.25 0-2.313.437-3.188 1.312S5 8.25 5 9.5c0 1.25.437 2.313 1.312 3.188S8.25 14 9.5 14z" fill="#00ED64"></path>
    </g>
  </symbol>
  <symbol viewBox="0 0 25 24" fill="none" xmlns="http://www.w3.org/2000/svg" id="textlink_arrow">
    <mask id="a" maskUnits="userSpaceOnUse" x="0" y="0" width="25" height="24">
      <path fill="#D9D9D9" d="M.668 0h24v24h-24z"></path>
    </mask>
    <g mask="url(#a)">
      <path d="M6.068 20l-1.4-1.4L16.268 7h-6.6V5h10v10h-2V8.4L6.068 20z" fill="#00ED64"></path>
    </g>
  </symbol>
  <symbol viewBox="0 0 171 315" fill="none" xmlns="http://www.w3.org/2000/svg" id="top-corner-pattern">
    <path opacity=".5" d="M346.365-88.702c0-1.912-.093-3.802-.274-5.666l-.498.048a57.084 57.084 0 0 0-2.183-11.019l.478-.145a57.397 57.397 0 0 0-4.343-10.465l-.44.236a57.504 57.504 0 0 0-6.25-9.333l.386-.318a58.22 58.22 0 0 0-8.012-8.012l-.317.387a57.427 57.427 0 0 0-9.334-6.25l.237-.441a57.477 57.477 0 0 0-10.466-4.343l-.145.479a57.01 57.01 0 0 0-11.019-2.184l.049-.497a58.329 58.329 0 0 0-5.667-.275h-4.797v.5h-9.594v-.5h-9.595v.5h-9.595v-.5h-9.594v.5h-9.595v-.5h-9.594v.5h-9.595v-.5h-9.594v.5h-9.595v-.5h-9.595v.5h-9.594v-.5h-9.595v.5h-9.594v-.5h-9.595v.5h-9.594v-.5h-9.595v.5h-9.595v-.5h-4.797c-1.687 0-3.366.036-5.036.108l.021.5c-3.368.145-6.699.435-9.986.864l-.065-.496c-3.35.438-6.657 1.02-9.911 1.739l.108.488c-3.281.725-6.51 1.591-9.678 2.59l-.15-.477a114.646 114.646 0 0 0-9.458 3.446l.192.462a114.434 114.434 0 0 0-9.08 4.243l-.23-.443a115.605 115.605 0 0 0-8.71 5.042l.268.422a115.022 115.022 0 0 0-8.202 5.756l-.305-.397a116.012 116.012 0 0 0-7.706 6.474l.338.368a115.884 115.884 0 0 0-7.086 7.086l-.368-.338a116.05 116.05 0 0 0-6.474 7.706l.397.305a115.223 115.223 0 0 0-5.756 8.202l-.422-.269a115.322 115.322 0 0 0-5.042 8.71l.444.232a114.324 114.324 0 0 0-4.244 9.079l-.462-.192a114.502 114.502 0 0 0-3.446 9.458l.477.15a113.95 113.95 0 0 0-2.59 9.678l-.488-.108a114.86 114.86 0 0 0-1.739 9.911l.496.065c-.43 3.287-.72 6.618-.864 9.986l-.5-.021a117.162 117.162 0 0 0 0 10.073l.5-.022c.145 3.368.435 6.7.864 9.986l-.496.065c.438 3.351 1.02 6.657 1.739 9.912l.488-.108c.725 3.28 1.59 6.509 2.59 9.677l-.477.15a114.495 114.495 0 0 0 3.446 9.458l.462-.191a114.348 114.348 0 0 0 4.243 9.078l-.443.232a115.333 115.333 0 0 0 5.042 8.71l.422-.269a115.301 115.301 0 0 0 5.756 8.203l-.397.304a116.067 116.067 0 0 0 6.474 7.706l.368-.338a115.688 115.688 0 0 0 7.086 7.086l-.338.369a116.06 116.06 0 0 0 7.706 6.473l.305-.396a115.236 115.236 0 0 0 8.202 5.756l-.269.421a115.287 115.287 0 0 0 8.71 5.042l.232-.443a114.35 114.35 0 0 0 9.079 4.243l-.192.462a114.487 114.487 0 0 0 9.458 3.446l.15-.477c3.169 1 6.397 1.865 9.677 2.59l-.108.488a114.74 114.74 0 0 0 9.912 1.739l.065-.496c3.287.43 6.618.72 9.986.865l-.021.5c1.67.071 3.349.107 5.036.107 1.681 0 3.354.036 5.017.108l.022-.5c3.384.146 6.73.438 10.033.87l-.065.495a114.58 114.58 0 0 1 9.872 1.731l.108-.488a114.49 114.49 0 0 1 9.723 2.602l-.151.477a113.89 113.89 0 0 1 9.419 3.432l.192-.462a115.11 115.11 0 0 1 9.122 4.264l-.232.443c2.97 1.55 5.865 3.227 8.676 5.022l.269-.421a115.72 115.72 0 0 1 8.241 5.782l-.305.397a115.288 115.288 0 0 1 7.675 6.448l.338-.369a116.062 116.062 0 0 1 7.12 7.12l-.369.338a115.288 115.288 0 0 1 6.448 7.675l.397-.305a115.72 115.72 0 0 1 5.782 8.241l-.421.269a114.894 114.894 0 0 1 5.022 8.676l.443-.232a114.903 114.903 0 0 1 4.264 9.122l-.462.192a113.961 113.961 0 0 1 3.432 9.419l.477-.151a114.679 114.679 0 0 1 2.602 9.723l-.489.108a114.197 114.197 0 0 1 1.732 9.872l.496-.065c.431 3.303.723 6.649.868 10.033l-.499.022c.071 1.663.108 3.336.108 5.017 0 1.687.036 3.366.108 5.036l.499-.021c.145 3.368.435 6.699.865 9.986l-.496.065a114.65 114.65 0 0 0 1.739 9.911l.488-.107c.725 3.28 1.59 6.508 2.589 9.677l-.476.15a113.815 113.815 0 0 0 3.446 9.458l.461-.192a114.717 114.717 0 0 0 4.244 9.079l-.443.232a114.92 114.92 0 0 0 5.042 8.71l.421-.269a115.616 115.616 0 0 0 5.756 8.202l-.396.305a115.95 115.95 0 0 0 6.473 7.706l.369-.338a115.8 115.8 0 0 0 7.086 7.086l-.338.368a115.964 115.964 0 0 0 7.706 6.474l.304-.397a115.213 115.213 0 0 0 8.203 5.756l-.269.422a115.6 115.6 0 0 0 8.71 5.042l.231-.443a114.519 114.519 0 0 0 9.079 4.243l-.191.462a114.65 114.65 0 0 0 9.457 3.446l.15-.477c3.169.999 6.397 1.865 9.678 2.59l-.108.488c3.255.719 6.561 1.301 9.912 1.739l.065-.496c3.287.429 6.618.719 9.986.864l-.022.5a116.927 116.927 0 0 0 10.073 0l-.021-.5c3.368-.145 6.699-.435 9.986-.864l.065.496c3.351-.438 6.657-1.02 9.911-1.739l-.107-.488c3.28-.725 6.508-1.591 9.677-2.59l.15.477a114.54 114.54 0 0 0 9.458-3.446l-.192-.462a114.354 114.354 0 0 0 9.079-4.243l.231.443a115.423 115.423 0 0 0 8.711-5.042l-.269-.422a115.278 115.278 0 0 0 8.202-5.755l.305.396a115.964 115.964 0 0 0 7.706-6.474l-.338-.368a116.083 116.083 0 0 0 7.086-7.086l.368.338a115.964 115.964 0 0 0 6.474-7.706l-.397-.305a114.967 114.967 0 0 0 5.756-8.202l.422.269a115.6 115.6 0 0 0 5.042-8.71l-.444-.232a114.01 114.01 0 0 0 4.244-9.079l.462.192a114.65 114.65 0 0 0 3.446-9.457l-.477-.151a114.072 114.072 0 0 0 2.59-9.677l.488.107c.719-3.254 1.301-6.56 1.739-9.911l-.496-.065c.429-3.287.719-6.618.864-9.986l.5.021c.072-1.67.108-3.349.108-5.036v-4.797h-.5v-9.595h.5v-9.595h-.5v-9.594h.5v-9.595h-.5v-9.594h.5v-9.595h-.5v-9.594h.5v-9.595h-.5v-9.595h.5v-9.594h-.5v-9.595h.5v-9.594h-.5v-9.595h.5v-9.594h-.5v-9.595h.5v-9.594h-.5V31.23h.5v-4.797c0-1.912-.093-3.802-.275-5.667l-.497.049a56.997 56.997 0 0 0-2.184-11.019l.479-.145A57.461 57.461 0 0 0 454.68-.815l-.44.237a57.534 57.534 0 0 0-6.25-9.334l.386-.317a58.207 58.207 0 0 0-8.012-8.012l-.317.386a57.46 57.46 0 0 0-9.334-6.25l.236-.44a57.452 57.452 0 0 0-10.465-4.343l-.145.479a57.003 57.003 0 0 0-11.019-2.184l.049-.497a58.424 58.424 0 0 0-5.667-.275c-1.515 0-3.017-.059-4.503-.175l-.039.499a57.672 57.672 0 0 1-8.964-1.412l.116-.486a56.928 56.928 0 0 1-8.555-2.78l-.191.461a57.688 57.688 0 0 1-8.083-4.128l.262-.426a57.604 57.604 0 0 1-7.275-5.296l-.325.38a58.308 58.308 0 0 1-6.417-6.417l.38-.325a57.526 57.526 0 0 1-5.296-7.275l-.426.262a57.635 57.635 0 0 1-4.128-8.083l.462-.191a56.852 56.852 0 0 1-2.781-8.555l-.486.116a57.629 57.629 0 0 1-1.412-8.964l.499-.039a57.852 57.852 0 0 1-.175-4.503z" stroke="#00ED64" stroke-dasharray="10 10"></path>
  </symbol>
  <symbol viewBox="0 0 20 20" fill="none" xmlns="http://www.w3.org/2000/svg" id="twitter-blogs-green-icon">
    <path fill-rule="evenodd" clip-rule="evenodd" d="M18.694 4.519a7.512 7.512 0 0 1-2.147.589 3.75 3.75 0 0 0 1.644-2.068 7.481 7.481 0 0 1-2.374.907 3.73 3.73 0 0 0-2.729-1.18 3.737 3.737 0 0 0-3.64 4.589 10.613 10.613 0 0 1-7.704-3.905 3.737 3.737 0 0 0 1.157 4.99 3.733 3.733 0 0 1-1.693-.468v.047a3.74 3.74 0 0 0 2.998 3.665 3.715 3.715 0 0 1-1.687.065 3.745 3.745 0 0 0 3.492 2.596 7.502 7.502 0 0 1-5.534 1.547 10.573 10.573 0 0 0 5.729 1.68c6.875 0 10.634-5.695 10.634-10.635a9.73 9.73 0 0 0-.011-.483 7.595 7.595 0 0 0 1.865-1.936z" fill="#00ED64"></path>
    <mask id="a" maskUnits="userSpaceOnUse" x="0" y="2" width="19" height="16">
      <path fill-rule="evenodd" clip-rule="evenodd" d="M18.694 4.519a7.512 7.512 0 0 1-2.147.589 3.75 3.75 0 0 0 1.644-2.068 7.481 7.481 0 0 1-2.374.907 3.73 3.73 0 0 0-2.729-1.18 3.737 3.737 0 0 0-3.64 4.589 10.613 10.613 0 0 1-7.704-3.905 3.737 3.737 0 0 0 1.157 4.99 3.733 3.733 0 0 1-1.693-.468v.047a3.74 3.74 0 0 0 2.998 3.665 3.715 3.715 0 0 1-1.687.065 3.745 3.745 0 0 0 3.492 2.596 7.502 7.502 0 0 1-5.534 1.547 10.573 10.573 0 0 0 5.729 1.68c6.875 0 10.634-5.695 10.634-10.635a9.73 9.73 0 0 0-.011-.483 7.595 7.595 0 0 0 1.865-1.936z" fill="#fff"></path>
    </mask>
    <g mask="url(#a)">
      <path fill="#00ED64" d="M0 0h20v20H0z"></path>
    </g>
  </symbol>
  <symbol viewBox="0 0 24 24" fill="none" xmlns="http://www.w3.org/2000/svg" id="twitter">
    <g clip-path="url(#clip0_446_6382)">
      <path d="M12 0C5.383 0 0 5.383 0 12c0 6.616 5.383 12 12 12 6.616 0 12-5.384 12-12 0-6.617-5.383-12-12-12zm5.353 9.254c.006.118.008.238.008.358 0 3.65-2.777 7.857-7.859 7.857a7.812 7.812 0 0 1-4.233-1.24 5.577 5.577 0 0 0 4.089-1.143 2.765 2.765 0 0 1-2.58-1.919 2.784 2.784 0 0 0 1.247-.046 2.763 2.763 0 0 1-2.215-2.708v-.035c.372.206.798.33 1.25.345a2.76 2.76 0 0 1-.854-3.688 7.843 7.843 0 0 0 5.692 2.887 2.762 2.762 0 0 1 4.707-2.52 5.513 5.513 0 0 0 1.755-.67 2.774 2.774 0 0 1-1.216 1.528 5.491 5.491 0 0 0 1.586-.434 5.556 5.556 0 0 1-1.377 1.428z" fill="#fff"></path>
    </g>
    <defs>
      <clipPath id="clip0_446_6382">
        <path fill="#fff" d="M0 0h24v24H0z"></path>
      </clipPath>
    </defs>
  </symbol>
  <symbol xmlns="http://www.w3.org/2000/svg" viewBox="0 0 800 800" id="youtube-green-icon">
    <path d="M346.7 477l131-76.8-131-76.9z"></path>
    <path d="M400 0C179.1 0 0 179.1 0 400s179.1 400 400 400 400-179.1 400-400S620.9 0 400 0zm200 471.6c0 68.9-68.9 68.9-68.9 68.9H268.9c-68.9 0-68.9-68.9-68.9-68.9v-143c0-68.9 68.9-68.9 68.9-68.9h262.2c68.9 0 68.9 68.9 68.9 68.9v143z"></path>
  </symbol>
  <symbol xmlns="http://www.w3.org/2000/svg" viewBox="0 0 800 800" id="youtube-icon">
    <path d="M346.7 477l131-76.8-131-76.9z"></path>
    <path d="M400 0C179.1 0 0 179.1 0 400s179.1 400 400 400 400-179.1 400-400S620.9 0 400 0zm200 471.6c0 68.9-68.9 68.9-68.9 68.9H268.9c-68.9 0-68.9-68.9-68.9-68.9v-143c0-68.9 68.9-68.9 68.9-68.9h262.2c68.9 0 68.9 68.9 68.9 68.9v143z"></path>
  </symbol>
</svg>

<svg>
  <use xlink:href="#arrow-left-icon"></use>
</svg><svg>
  <use xlink:href="#arrow-left"></use>
</svg><svg>
  <use xlink:href="#arrow-right-white"></use>
</svg><svg>
  <use xlink:href="#arrow-right"></use>
</svg><svg>
  <use xlink:href="#arrow-up"></use>
</svg><svg>
  <use xlink:href="#arrow_right_alt"></use>
</svg><svg>
  <use xlink:href="#arrow_right_dark"></use>
</svg><svg>
  <use xlink:href="#bottom-corner-pattern"></use>
</svg><svg>
  <use xlink:href="#calendar-icon"></use>
</svg><svg>
  <use xlink:href="#check_box"></use>
</svg><svg>
  <use xlink:href="#contact-form-featured-icon"></use>
</svg><svg>
  <use xlink:href="#cross-icon"></use>
</svg><svg>
  <use xlink:href="#developer-teams-section-decorator"></use>
</svg><svg>
  <use xlink:href="#diagonal-arrow"></use>
</svg><svg>
  <use xlink:href="#down-arrow"></use>
</svg><svg>
  <use xlink:href="#error-page-icon"></use>
</svg><svg>
  <use xlink:href="#exit-icon"></use>
</svg><svg>
  <use xlink:href="#facebook-blogs-green-icon"></use>
</svg><svg>
  <use xlink:href="#facebook-round-svgrepo-com"></use>
</svg><svg>
  <use xlink:href="#facebook"></use>
</svg><svg>
  <use xlink:href="#faqs-corner-icon"></use>
</svg><svg>
  <use xlink:href="#favicon-dark"></use>
</svg><svg>
  <use xlink:href="#favicon"></use>
</svg><svg>
  <use xlink:href="#footer-github-green-icon"></use>
</svg><svg>
  <use xlink:href="#footer-github-white-icon"></use>
</svg><svg>
  <use xlink:href="#footer-github"></use>
</svg><svg>
  <use xlink:href="#footer-twitter-green-icon"></use>
</svg><svg>
  <use xlink:href="#footer-twitter-white-icon"></use>
</svg><svg>
  <use xlink:href="#green-arrow-down"></use>
</svg><svg>
  <use xlink:href="#hero-section-decorator"></use>
</svg><svg>
  <use xlink:href="#instagram-green-icon"></use>
</svg><svg>
  <use xlink:href="#instagram-icon"></use>
</svg><svg>
  <use xlink:href="#java-icon"></use>
</svg><svg>
  <use xlink:href="#job-form-icon"></use>
</svg><svg>
  <use xlink:href="#left-arrow"></use>
</svg><svg>
  <use xlink:href="#Line"></use>
</svg><svg>
  <use xlink:href="#link-green-icon"></use>
</svg><svg>
  <use xlink:href="#linkedin-blogs-green-icon"></use>
</svg><svg>
  <use xlink:href="#linkedin-green-icon"></use>
</svg><svg>
  <use xlink:href="#linkedin-icon"></use>
</svg><svg>
  <use xlink:href="#linkedin"></use>
</svg><svg>
  <use xlink:href="#location"></use>
</svg><svg>
  <use xlink:href="#logo-dark"></use>
</svg><svg>
  <use xlink:href="#logo-white"></use>
</svg><svg>
  <use xlink:href="#mail"></use>
</svg><svg>
  <use xlink:href="#minus-icon"></use>
</svg><svg>
  <use xlink:href="#navbar-cancel-icon"></use>
</svg><svg>
  <use xlink:href="#navbar-hamburger"></use>
</svg><svg>
  <use xlink:href="#navbar-white-arrow-down"></use>
</svg><svg>
  <use xlink:href="#plus-icon"></use>
</svg><svg>
  <use xlink:href="#right-arrow"></use>
</svg><svg>
  <use xlink:href="#search"></use>
</svg><svg>
  <use xlink:href="#textlink_arrow"></use>
</svg><svg>
  <use xlink:href="#top-corner-pattern"></use>
</svg><svg>
  <use xlink:href="#twitter-blogs-green-icon"></use>
</svg><svg>
  <use xlink:href="#twitter"></use>
</svg><svg>
  <use xlink:href="#youtube-green-icon"></use>
</svg><svg>
  <use xlink:href="#youtube-icon"></use>
</svg>
